<?xml version="1.0" encoding="UTF-8" standalone="no"?>
<!DOCTYPE svg PUBLIC "-//W3C//DTD SVG 20010904//EN"
              "http://www.w3.org/TR/2001/REC-SVG-20010904/DTD/svg10.dtd">

<svg xmlns="http://www.w3.org/2000/svg"
     width="71.2522mm" height="21.8695mm"
     viewBox="0 0 202 62">
  <path id="Selection"
        fill="#333333" stroke-width="1"
        d="M 24.00,36.00
           C 24.00,36.00 36.00,45.29 36.00,45.29
             38.83,47.31 46.16,51.96 47.16,55.17
             48.60,59.83 43.62,61.44 40.00,60.70
             36.61,60.00 31.85,56.22 29.00,54.12
             29.00,54.12 10.00,40.13 10.00,40.13
             7.38,38.16 1.63,34.60 1.63,31.00
             1.63,27.40 7.38,23.84 10.00,21.87
             10.00,21.87 29.00,7.88 29.00,7.88
             31.85,5.78 36.61,2.00 40.00,1.30
             43.62,0.56 48.60,2.17 47.16,6.83
             46.16,10.04 38.83,14.69 36.00,16.71
             36.00,16.71 24.00,26.00 24.00,26.00
             24.00,26.00 178.00,26.00 178.00,26.00
             178.00,26.00 166.00,16.71 166.00,16.71
             163.17,14.69 155.84,10.04 154.84,6.83
             153.40,2.17 158.38,0.56 162.00,1.30
             165.39,2.00 170.15,5.78 173.00,7.88
             173.00,7.88 192.00,21.87 192.00,21.87
             194.62,23.84 200.37,27.40 200.37,31.00
             200.37,34.60 194.62,38.16 192.00,40.13
             192.00,40.13 173.00,54.12 173.00,54.12
             170.15,56.22 165.39,60.00 162.00,60.70
             158.38,61.44 153.40,59.83 154.84,55.17
             155.84,51.96 163.17,47.31 166.00,45.29
             166.00,45.29 178.00,36.00 178.00,36.00
             178.00,36.00 24.00,36.00 24.00,36.00 Z" />
</svg>
