<?xml version="1.0" encoding="UTF-8" standalone="no"?>
<!DOCTYPE svg PUBLIC "-//W3C//DTD SVG 20010904//EN"
              "http://www.w3.org/TR/2001/REC-SVG-20010904/DTD/svg10.dtd">

<svg xmlns="http://www.w3.org/2000/svg"
     width="71.2522mm" height="29.6296mm"
     viewBox="0 0 202 84">
  <path id="Selection"
        fill="#333333" stroke-width="1"
        d="M 22.00,48.00
           C 22.00,48.00 34.00,60.00 34.00,60.00
             37.17,63.17 46.00,71.20 47.22,75.00
             48.58,79.23 45.34,83.18 41.00,82.46
             37.23,81.84 32.66,76.66 30.00,74.00
             30.00,74.00 9.00,53.00 9.00,53.00
             6.31,50.30 1.45,46.08 1.45,42.00
             1.45,37.92 6.31,33.70 9.00,31.00
             9.00,31.00 30.00,10.00 30.00,10.00
             32.66,7.34 37.23,2.16 41.00,1.54
             45.34,0.82 48.58,4.77 47.22,9.00
             46.00,12.80 37.17,20.83 34.00,24.00
             34.00,24.00 22.00,36.00 22.00,36.00
             22.00,36.00 180.00,36.00 180.00,36.00
             180.00,36.00 168.00,24.00 168.00,24.00
             164.83,20.83 156.00,12.80 154.78,9.00
             153.42,4.77 156.66,0.82 161.00,1.54
             164.77,2.16 169.34,7.34 172.00,10.00
             172.00,10.00 193.00,31.00 193.00,31.00
             195.69,33.70 200.55,37.92 200.55,42.00
             200.55,46.08 195.69,50.30 193.00,53.00
             193.00,53.00 172.00,74.00 172.00,74.00
             169.34,76.66 164.77,81.84 161.00,82.46
             156.66,83.18 153.42,79.23 154.78,75.00
             156.00,71.20 164.83,63.17 168.00,60.00
             168.00,60.00 180.00,48.00 180.00,48.00
             180.00,48.00 22.00,48.00 22.00,48.00 Z" />
</svg>
