<?xml version="1.0" encoding="UTF-8" standalone="no"?>
<!-- Created with Inkscape (http://www.inkscape.org/) -->

<svg
   xmlns:dc="http://purl.org/dc/elements/1.1/"
   xmlns:cc="http://creativecommons.org/ns#"
   xmlns:rdf="http://www.w3.org/1999/02/22-rdf-syntax-ns#"
   xmlns:svg="http://www.w3.org/2000/svg"
   xmlns="http://www.w3.org/2000/svg"
   xmlns:sodipodi="http://sodipodi.sourceforge.net/DTD/sodipodi-0.dtd"
   xmlns:inkscape="http://www.inkscape.org/namespaces/inkscape"
   width="870"
   height="492.00803"
   viewBox="0 0 230.1875 130.17713"
   version="1.1"
   id="svg8"
   inkscape:version="0.92.1 r15371"
   sodipodi:docname="values.svg">
  <defs
     id="defs2" />
  <sodipodi:namedview
     id="base"
     pagecolor="#c0c0c0"
     bordercolor="#666666"
     borderopacity="1.0"
     inkscape:pageopacity="0"
     inkscape:pageshadow="2"
     inkscape:zoom="1"
     inkscape:cx="172.20127"
     inkscape:cy="251.08819"
     inkscape:document-units="px"
     inkscape:current-layer="g5584"
     showgrid="false"
     units="px"
     inkscape:snap-page="true"
     inkscape:window-width="1920"
     inkscape:window-height="1016"
     inkscape:window-x="0"
     inkscape:window-y="27"
     inkscape:window-maximized="1"
     inkscape:object-paths="false"
     inkscape:object-nodes="true"
     fit-margin-top="0"
     fit-margin-left="0"
     fit-margin-right="0"
     fit-margin-bottom="0"
     showguides="false" />
  <metadata
     id="metadata5">
    <rdf:RDF>
      <cc:Work
         rdf:about="">
        <dc:format>image/svg+xml</dc:format>
        <dc:type
           rdf:resource="http://purl.org/dc/dcmitype/StillImage" />
        <dc:title />
      </cc:Work>
    </rdf:RDF>
  </metadata>
  <g
     inkscape:label="Layer 1"
     inkscape:groupmode="layer"
     id="layer1"
     transform="translate(0,65.088562)">
    <rect
       style="opacity:1;fill:#eeeeee;fill-opacity:1;fill-rule:nonzero;stroke:none;stroke-width:0.26458332;stroke-linecap:butt;stroke-linejoin:round;stroke-miterlimit:4;stroke-dasharray:none;stroke-dashoffset:0;stroke-opacity:0.90944878;paint-order:normal"
       id="rect5518"
       width="230.1875"
       height="130.17712"
       x="5.6771849e-09"
       y="-65.088562"
       rx="5.2916665"
       ry="5.2916665" />
    <g
       id="g5584"
       transform="matrix(2,0,0,2,5.2916647,-48.54143)"
       style="stroke-width:0.5">
      <g
         id="g4561"
         style="stroke-width:0.5">
        <rect
           ry="1.984375"
           rx="1.984375"
           style="opacity:1;fill:#222222;fill-opacity:1;fill-rule:nonzero;stroke:none;stroke-width:0.25;stroke-linecap:butt;stroke-linejoin:round;stroke-miterlimit:4;stroke-dasharray:none;stroke-dashoffset:0;stroke-opacity:0.90944878;paint-order:normal"
           id="rect4485"
           width="26.458334"
           height="26.458334"
           x="0"
           y="-1.110223e-16" />
        <rect
           ry="1.3229166"
           rx="1.3229166"
           y="1.322917"
           x="1.322917"
           height="23.8125"
           width="23.8125"
           id="rect4487"
           style="opacity:1;fill:#f44336;fill-opacity:1;fill-rule:nonzero;stroke:none;stroke-width:0.25;stroke-linecap:butt;stroke-linejoin:round;stroke-miterlimit:4;stroke-dasharray:none;stroke-dashoffset:0;stroke-opacity:0.90944878;paint-order:normal" />
        <path
           inkscape:connector-curvature="0"
           id="rect5205-3"
           d="m 0.72760467,18.520836 v 4.167188 c 0,1.539081 1.23904383,2.778124 2.77812503,2.778124 H 22.952604 c 1.539081,0 2.778125,-1.239043 2.778125,-2.778124 v -4.167188 z"
           style="opacity:1;fill:#222222;fill-opacity:1;fill-rule:nonzero;stroke:none;stroke-width:0.24999999;stroke-linecap:butt;stroke-linejoin:round;stroke-miterlimit:4;stroke-dasharray:none;stroke-dashoffset:0;stroke-opacity:0.90944878;paint-order:normal" />
        <text
           xml:space="preserve"
           style="font-style:normal;font-variant:normal;font-weight:500;font-stretch:normal;font-size:4.23333311px;line-height:4.23333311px;font-family:Montserrat;-inkscape-font-specification:'Montserrat Medium';text-align:center;text-anchor:middle;opacity:1;fill:#eeeeee;fill-opacity:1;fill-rule:nonzero;stroke:none;stroke-width:0.25;stroke-linecap:butt;stroke-linejoin:round;stroke-miterlimit:4;stroke-dasharray:none;stroke-dashoffset:0;stroke-opacity:0.90944878;paint-order:normal;"
           x="13.045942"
           y="23.288628"
           id="text4491"><tspan
             sodipodi:role="line"
             id="tspan4489"
             x="13.045942"
             y="23.288628"
             style="font-style:normal;font-variant:normal;font-weight:500;font-stretch:normal;font-size:4.23333311px;font-family:Montserrat;-inkscape-font-specification:'Montserrat Medium';fill:#eeeeee;stroke-width:0.25;fill-opacity:1;">EQUALITY</tspan></text>
        <path
           style="fill:#222222;stroke-width:0.49999988;fill-opacity:1"
           d="m 7.5061558,19.237704 c 0.022779,-0.04395 0.149307,-0.256462 0.281173,-0.47224 0.1318663,-0.215777 0.4208828,-0.691041 0.64226,-1.05614 l 0.4025026,-0.663819 v -0.346046 -0.346043 h 0.8764678 0.8764668 l -0.02049,-1.915473 -0.02049,-1.915471 0.317201,-0.640634 0.317201,-0.640633 0.02153,-1.6532888 0.02154,-1.6532904 -0.148256,-0.01756 C 10.893214,7.8957442 10.450405,7.7470525 10.212482,7.6280281 10.116581,7.5800522 9.8681117,7.4459935 9.6603258,7.3301198 9.0754018,7.0039298 8.8912426,6.9320653 8.5996054,6.9161946 8.2795667,6.8987784 8.1737295,6.9390918 7.6749773,7.2683876 7.3273511,7.497904 7.0854772,7.6171021 6.7978325,7.7006539 6.7418907,7.7169033 6.5261142,7.7382389 6.3183292,7.7480662 l -0.3777917,0.017867 v 0.1307737 0.1307738 l 0.2382448,0.00842 0.2382448,0.00842 0.2361808,0.7326355 c 0.1298991,0.4029489 0.3471506,1.0791855 0.482782,1.5027478 0.1356302,0.423561 0.2710969,0.842038 0.3010371,0.929947 0.029939,0.0879 0.1347745,0.414844 0.232966,0.72652 0.098192,0.311679 0.2505683,0.789003 0.3386131,1.060722 0.088046,0.271719 0.18945,0.585576 0.2253434,0.69746 l 0.065262,0.203426 0.490375,0.01452 0.490374,0.01452 -0.1602743,0.188895 C 8.6217775,14.702538 7.8730952,15.093213 6.8559553,15.29697 6.4890188,15.37048 6.4138051,15.37558 5.6935207,15.37583 4.9750785,15.376094 4.896573,15.37093 4.5234316,15.29782 3.4363691,15.085107 2.782125,14.733554 2.2018116,14.050338 L 2.0845629,13.912303 H 2.6327985 3.1810341 L 3.4170262,13.193048 C 3.546822,12.797457 3.8065934,12.003005 3.9942947,11.4276 4.1819974,10.852196 4.4425575,10.054475 4.5733175,9.6548891 4.7040777,9.2553026 4.8755727,8.7290018 4.9544175,8.4853324 L 5.0977737,8.0422971 5.3375254,8.0421545 5.5772771,8.0420116 V 7.8536058 7.6651997 L 5.4281754,7.5896438 C 5.1240542,7.4355399 4.8555859,7.0679074 4.803529,6.7342789 4.7804633,6.5864528 4.7592915,6.5805218 5.0251214,6.7963514 c 0.1414614,0.1148528 0.4487131,0.2866574 0.5126553,0.2866574 0.024515,0 0.0395,-0.033074 0.0395,-0.087183 v -0.087183 h 0.1743649 0.1743652 l 4.393e-4,0.1089786 C 5.9271047,7.1857479 5.9550947,7.2088995 6.1551842,7.2070149 6.4567595,7.2041801 6.6360046,7.0971332 7.106787,6.638739 7.7173251,6.044266 7.8371246,5.9562474 8.1491562,5.8728965 c 0.3739113,-0.09988 0.9661033,-0.00499 1.9470778,0.3119787 0.51704,0.1670666 0.951292,0.287856 1.034872,0.287856 0.05245,0 0.05491,-0.03436 0.05491,-0.7683973 0,-0.4746919 -0.01097,-0.77518 -0.02871,-0.7861423 -0.0158,-0.00976 -0.101135,-0.036609 -0.189659,-0.059666 -0.08853,-0.023055 -0.196569,-0.063929 -0.240106,-0.090826 -0.157125,-0.097079 -0.332909,-0.2890666 -0.421179,-0.4600007 -0.0806,-0.156086 -0.09018,-0.2017837 -0.09139,-0.4359127 -0.0012,-0.2282533 0.0093,-0.2847871 0.08238,-0.4441085 0.374501,-0.8165997 1.535949,-0.8121195 1.907518,0.00735 0.0725,0.1598854 0.08544,0.2249022 0.08542,0.4288471 -2e-5,0.2043548 -0.01253,0.2668319 -0.08348,0.4167823 -0.143084,0.3024466 -0.355615,0.4912082 -0.651341,0.5784967 l -0.122465,0.036147 -0.0077,0.803243 c -0.0042,0.4417835 0.0023,0.8031514 0.01452,0.8030392 0.07934,-7.266e-4 0.602335,-0.1459494 1.097508,-0.304748 0.881238,-0.2826078 1.178814,-0.3454478 1.641938,-0.3467316 0.506733,-0.00141 0.673949,0.092333 1.354248,0.7591553 0.427754,0.4192843 0.604683,0.5426343 0.844491,0.5887582 0.168311,0.032373 0.213311,-0.00532 0.213311,-0.1786894 V 6.908644 h 0.174365 0.174364 v 0.1182016 c 0,0.1085357 0.0054,0.1167312 0.06539,0.1002155 0.151872,-0.041777 0.545309,-0.2588922 0.708671,-0.3910745 l 0.17621,-0.1425784 -0.02695,0.1483126 c -0.07949,0.4373523 -0.430491,0.8247431 -0.872454,0.9629048 -0.04039,0.012626 -0.05086,0.048984 -0.05086,0.1766451 v 0.1607466 l 0.239751,3.955e-4 0.239752,3.953e-4 0.16467,0.5154377 c 0.359199,1.1243334 0.642517,2.0102402 0.722471,2.2590882 0.04621,0.143851 0.157299,0.490403 0.246845,0.770114 0.08955,0.27971 0.186876,0.580489 0.216285,0.668399 0.02942,0.0879 0.133951,0.414844 0.232311,0.72652 0.09835,0.311678 0.206677,0.64842 0.240711,0.748318 l 0.06185,0.18163 h 0.491244 0.491243 l -0.07892,0.09444 c -0.350189,0.419056 -0.644462,0.653755 -1.098444,0.876063 -0.397765,0.194779 -0.680565,0.291351 -1.120326,0.382564 -0.998208,0.207046 -2.221121,0.154185 -3.134974,-0.135505 -0.686974,-0.217767 -1.335439,-0.646337 -1.676414,-1.107936 l -0.08002,-0.108331 0.54156,-0.0079 0.541559,-0.0079 0.0839,-0.247017 c 0.04614,-0.13586 0.236832,-0.717802 0.423752,-1.293207 0.186918,-0.575404 0.402592,-1.235813 0.479271,-1.467574 0.07667,-0.231761 0.291719,-0.8921667 0.477864,-1.4675712 0.186146,-0.5754056 0.365426,-1.1213859 0.398401,-1.2132907 l 0.05996,-0.1671 h 0.228389 c 0.219379,0 0.229108,-0.00286 0.246626,-0.072653 0.01,-0.039959 0.01,-0.1053457 0,-0.1453043 -0.01732,-0.069053 -0.02865,-0.072678 -0.228375,-0.073158 C 15.914794,7.749842 15.520779,7.6147069 15.057626,7.3073026 14.62311,7.0189063 14.458751,6.9351145 14.279999,6.910857 13.978529,6.869946 13.678993,6.95753 13.191182,7.2292244 c -0.846613,0.471534 -1.12947,0.5985645 -1.48937,0.6688757 l -0.19616,0.038322 v 1.6187263 1.6187266 l 0.246837,0.51918 c 0.13576,0.285549 0.276342,0.57149 0.312405,0.635424 l 0.06557,0.116238 0.01452,1.947076 0.01452,1.947079 0.762848,0.0077 0.762846,0.0077 v 0.330256 0.330258 l 0.370527,0.505518 c 0.203788,0.278035 0.39668,0.540475 0.428647,0.5832 0.03196,0.04272 0.127583,0.173155 0.212484,0.28985 0.0849,0.116694 0.264711,0.3617 0.399586,0.544456 0.134874,0.18276 0.245225,0.342958 0.245225,0.355998 0,0.01303 -1.772323,0.0237 -3.938492,0.0237 H 7.4647375 Z m -1.935996,-8.078298 -0.00742,-2.7528986 -0.074436,-0.00571 C 5.4473678,8.3976474 5.4008618,8.4039074 5.384964,8.4147094 5.369069,8.4255034 5.30919,8.5781918 5.2519049,8.7540105 5.1946189,8.929828 5.0429734,9.3940755 4.914913,9.7856702 4.7868539,10.177266 4.5285838,10.968446 4.3409802,11.543852 4.1533775,12.119256 3.905062,12.877744 3.7891694,13.229381 c -0.1158926,0.351637 -0.2048381,0.649146 -0.1976571,0.661133 0.00719,0.012 0.4569837,0.02179 0.9995584,0.02179 h 0.9865021 z m 2.3319852,2.729013 c 0,-0.01315 -0.018792,-0.08179 -0.041761,-0.15257 C 7.8374161,13.665072 7.7120435,13.273691 7.5817789,12.866112 7.4515132,12.458535 7.2359431,11.785049 7.1027347,11.369478 6.9695254,10.953908 6.7540793,10.280423 6.623965,9.8728458 6.1797136,8.4812382 6.1520042,8.4064123 6.0769772,8.3957766 5.9184549,8.3733042 5.9260073,8.2361105 5.9260073,11.138174 c 0,1.475205 0.00794,2.702878 0.017638,2.728161 0.015597,0.04065 0.1299726,0.04597 0.9880685,0.04597 0.5337361,0 0.9704297,-0.01075 0.9704297,-0.02389 z m 8.671555,-0.02209 c 0.0097,-0.02527 0.01765,-1.252955 0.01765,-2.72816 0,-2.3943834 -0.0048,-2.6862301 -0.04532,-2.7198127 -0.06459,-0.053604 -0.191341,-0.00233 -0.219144,0.088623 -0.02742,0.089688 -0.750926,2.3172137 -0.991113,3.0513897 -0.258783,0.791021 -0.43367,1.324349 -0.600864,1.832362 -0.08181,0.248584 -0.148749,0.467632 -0.148749,0.48677 0,0.02634 0.23944,0.03479 0.984958,0.03479 0.871348,0 0.986996,-0.0054 1.0026,-0.04597 z m 2.313444,0.0047 c 0,-0.04091 -0.232017,-0.780955 -0.697671,-2.225325 C 17.861948,10.629658 17.618753,9.8712717 17.537135,9.6113184 17.17388,8.4543309 17.160514,8.4178886 17.0932,8.4009941 16.930157,8.3600726 16.940069,8.1811411 16.940069,11.165142 v 2.747161 h 0.973538 c 0.823317,0 0.973537,-0.0065 0.973537,-0.04142 z"
           id="path4521"
           inkscape:connector-curvature="0" />
      </g>
      <g
         transform="translate(55.562501)"
         id="g5146"
         style="stroke-width:0.5">
        <rect
           y="-1.110223e-16"
           x="0"
           height="26.458334"
           width="26.458334"
           id="rect5134"
           style="opacity:1;fill:#222222;fill-opacity:1;fill-rule:nonzero;stroke:none;stroke-width:0.25;stroke-linecap:butt;stroke-linejoin:round;stroke-miterlimit:4;stroke-dasharray:none;stroke-dashoffset:0;stroke-opacity:0.90944878;paint-order:normal"
           rx="1.984375"
           ry="1.984375" />
        <rect
           style="opacity:1;fill:#ffeb3b;fill-opacity:1;fill-rule:nonzero;stroke:none;stroke-width:0.25;stroke-linecap:butt;stroke-linejoin:round;stroke-miterlimit:4;stroke-dasharray:none;stroke-dashoffset:0;stroke-opacity:0.90944878;paint-order:normal"
           id="rect5136"
           width="23.8125"
           height="23.8125"
           x="1.322917"
           y="1.322917"
           rx="1.3229166"
           ry="1.3229166" />
        <path
           sodipodi:nodetypes="cccccscsccsccccccccsccccccssccsccsccccccccccscccscccccccccccscsscsscccccsscsssccscccccccscccsccssscccccccccscccccccccccccccccsccccccsccccccccccccccccccccc"
           inkscape:connector-curvature="0"
           id="path4587"
           d="m 10.832837,21.487109 c -0.207754,-0.04394 -0.65865,-0.189092 -0.776235,-0.249896 -0.05377,-0.02781 -0.1883227,-0.08028 -0.2990194,-0.116624 -0.49944,-0.163958 -0.9122002,-0.44783 -1.1637683,-0.800374 -0.3500617,-0.490567 -1.4805685,-2.541744 -1.4820244,-2.688962 -2.512e-4,-0.03118 0.041351,-0.128373 0.092576,-0.215986 0.2273213,-0.388804 0.3331623,-0.804136 0.2745579,-1.077401 -0.019471,-0.0908 -0.035404,-0.207623 -0.035404,-0.259595 0,-0.114097 -0.018702,-0.122191 -0.3896597,-0.168709 -0.16034,-0.02011 -0.3326475,-0.05242 -0.3829058,-0.07183 -0.082169,-0.03171 -0.091377,-0.05142 -0.091377,-0.195424 0,-0.08808 0.016826,-0.170549 0.037383,-0.183255 0.026474,-0.01636 0.030124,-0.126021 0.012499,-0.375784 -0.076653,-1.086539 0.033077,-1.550395 0.4799485,-2.028771 L 7.213505,12.943057 6.9997005,12.457833 C 6.8017271,12.008539 6.3366036,10.828873 6.2515705,10.560392 6.1885132,10.361311 6.0898802,9.8600947 6.048856,9.530304 6.0272627,9.356685 5.9957853,9.1605623 5.9789084,9.0944771 5.9620316,9.0283951 5.9482308,8.8324589 5.9482308,8.6590717 c 0,-0.1733873 -0.00943,-0.4050857 -0.020865,-0.5148854 L 5.9065001,7.9445508 5.7936715,8.0694394 C 5.655254,8.2226501 5.4813233,8.310022 5.3702429,8.2821424 5.3250774,8.2708126 5.2273108,8.2053867 5.152979,8.1367651 L 5.0178312,8.0119956 V 7.7410622 c 0,-0.1584699 -0.013791,-0.2709334 -0.033231,-0.2709334 -0.052661,0 -0.037896,-0.3731633 0.017666,-0.4466295 0.071414,-0.094412 0.059817,-0.19973 -0.034287,-0.311569 -0.045688,-0.054301 -0.083072,-0.1166891 -0.083072,-0.1386443 0,-0.021952 -0.025131,-0.082457 -0.055839,-0.1344496 -0.052302,-0.088537 -0.052302,-0.1072589 0,-0.295375 0.030708,-0.1104653 0.055839,-0.2573736 0.055839,-0.326463 0,-0.1201994 -0.00697,-0.1280853 -0.1611398,-0.1828488 C 4.5073167,5.5572709 4.4027809,5.4692326 4.2858244,5.2653133 4.1939041,5.105044 4.1877112,5.0717363 4.1874241,4.7360016 4.1871729,4.4154344 4.1978209,4.3499367 4.2889106,4.1137515 4.4092743,3.8016371 4.6162132,3.5099183 4.8285053,3.353088 4.9663302,3.2512734 4.986242,3.2191131 5.0298572,3.0279017 5.0891208,2.7680817 5.2389667,2.5720338 5.4775306,2.442191 5.6153453,2.3671784 5.7106655,2.3453185 6.0046769,2.3212552 6.2020782,2.3050961 6.395327,2.2819443 6.434119,2.2697942 c 0.054137,-0.016959 0.086855,8.408e-4 0.1407933,0.076581 0.069599,0.097754 0.2802064,0.2059197 0.4009156,0.2059197 0.054137,0 0.060145,0.018466 0.044345,0.1362778 -0.021224,0.1582012 0.014293,0.1946319 0.1907469,0.1956849 0.06396,3.771e-4 0.1721415,0.0162 0.2403911,0.035158 0.1515694,0.042089 0.3528455,-0.0041 0.4406685,-0.1011481 0.095663,-0.1057097 0.1164357,-0.080519 0.1163034,0.1410814 -1.384e-4,0.2469654 -0.086445,0.4235907 -0.2070671,0.4237896 -0.098205,1.63e-4 -0.2737376,0.1084187 -0.3401591,0.2097903 -0.075812,0.1157087 -0.019942,0.231602 0.1634775,0.3390927 0.1686985,0.098862 0.1869759,0.1585181 0.07651,0.2496867 -0.073116,0.06034 -0.073485,0.064001 -0.01661,0.1658552 0.075105,0.1345173 0.07895,0.5631074 0.00687,0.7673456 -0.08745,0.2478627 -0.3632094,0.4853417 -0.7602586,0.6547229 l -0.214878,0.091664 0.15046,0.2146103 c 0.2784491,0.3971681 0.3958598,0.6813507 0.4936623,1.1948552 0.093663,0.4917939 0.2850008,1.0194507 0.578355,1.5949748 0.5040641,0.9889094 0.5584093,1.1082939 0.7136422,1.5676958 0.084476,0.249994 0.1535893,0.478026 0.1535893,0.506736 0,0.02871 0.015042,0.0522 0.033436,0.0522 0.050313,0 1.5035827,-0.263253 1.5147137,-0.274382 0.01307,-0.01307 0.08006,-0.552674 0.08006,-0.644884 0,-0.06253 -0.114379,-0.1325221 -0.7559509,-0.4625815 C 8.5787694,9.0449472 8.1598019,8.8268405 8.143526,8.8116278 c -0.00789,-0.00738 -1.631e-4,-0.027684 0.017215,-0.045073 0.019994,-0.019994 0.1290636,-0.0082 0.2968433,0.032236 0.1458758,0.035117 0.4521408,0.1085827 0.6805879,0.163257 0.2284461,0.05467 0.66634,0.1600396 0.9730958,0.2341448 0.306756,0.07411 0.577418,0.1347388 0.601468,0.1347388 0.05716,0 0.485612,-0.3245425 0.485612,-0.3678429 0,-0.051317 -0.86973,-1.7739091 -0.901984,-1.7864807 -0.01563,-0.00605 -0.02842,-0.032257 -0.02842,-0.058146 0,-0.025888 -0.01495,-0.047073 -0.03323,-0.047073 -0.01828,0 -0.03323,-0.022628 -0.03323,-0.050292 0,-0.049339 -0.06375,-0.1827872 -0.102968,-0.2155352 -0.01094,-0.00913 -0.01967,-0.041628 -0.01938,-0.072203 5.16e-4,-0.056639 0.09211,0.036809 0.819721,0.8364586 0.207867,0.228447 0.504695,0.5536724 0.659618,0.7227234 l 0.281677,0.3073642 h 0.287859 0.287859 L 12.50339,8.1762403 C 12.551524,7.943224 12.66013,7.416134 12.744742,7.0049305 12.829351,6.5937257 12.90297,6.2528869 12.908335,6.24751 c 0.01104,-0.011063 0.03536,0.3722866 0.08496,1.338921 0.01875,0.3655154 0.04222,0.7699028 0.05217,0.8986392 l 0.01808,0.2340669 0.255328,0.098216 c 0.14043,0.054024 0.265049,0.098216 0.276932,0.098216 0.02547,0 1.489369,-1.3534982 1.650835,-1.5263318 0.124353,-0.1331085 0.173902,-0.1505091 0.148149,-0.052025 -0.0095,0.036553 -0.03058,0.066461 -0.04673,0.066461 -0.01615,0 -0.02936,0.022435 -0.02936,0.049841 0,0.027417 -0.01321,0.049841 -0.02935,0.049841 -0.01615,0 -0.03792,0.026165 -0.04839,0.058146 -0.01853,0.056608 -0.139782,0.2725799 -0.247191,0.4402797 -0.02926,0.045688 -0.235844,0.4010882 -0.45907,0.7897758 l -0.405863,0.7067039 0.146554,0.1008303 0.146555,0.1008302 0.556369,-0.1540607 c 0.306002,-0.084743 0.839046,-0.235528 1.184541,-0.3350858 0.345493,-0.099559 0.638861,-0.1767995 0.651928,-0.1716493 0.01306,0.00513 -0.422918,0.3009456 -0.968853,0.6573118 -0.70477,0.4600608 -0.988111,0.6624128 -0.977098,0.6978018 0.0085,0.02742 0.05646,0.16199 0.106498,0.299057 0.08167,0.223678 0.09169,0.298586 0.09784,0.731031 0.0067,0.469816 0.0095,0.487608 0.116839,0.714415 0.09531,0.20157 0.111723,0.275048 0.122974,0.550785 0.01119,0.274207 0.0033,0.337173 -0.05711,0.455571 -0.09101,0.178382 -0.08865,0.209508 0.02407,0.31749 0.06489,0.06217 0.186244,0.11486 0.390436,0.169531 0.565954,0.151529 1.112474,0.414579 1.288433,0.620146 0.184778,0.215873 0.292626,0.478597 0.339403,0.82681 0.08756,0.651806 0.119762,3.271091 0.137828,3.742534 l 0.01859,0.485045 -0.191725,0.3789 c -0.261837,0.517464 -0.445757,0.793896 -0.630253,0.947271 -0.08562,0.07119 -0.258273,0.264006 -0.383652,0.428488 -0.125382,0.164482 -0.292533,0.360653 -0.371451,0.435938 -0.282955,0.269927 -0.872523,0.716838 -1.1863,0.899253 -0.175758,0.102173 -0.431708,0.256528 -0.568776,0.342999 -0.388703,0.24522 -0.706054,0.393236 -1.211538,0.565073 -0.25658,0.08722 -0.616615,-2.064511 -0.800079,-1.998826 -0.341657,0.122322 -0.805004,0.221161 -1.012189,0.215911 -0.06397,-0.0016 -0.183588,-0.01718 -0.265829,-0.03456 z m 0.324281,-8.177041 c 0.08967,-0.09572 0.140921,-0.231897 0.140921,-0.374431 0,-0.101486 -0.01474,-0.119105 -0.149555,-0.178736 -0.08225,-0.03639 -0.230436,-0.14265 -0.329292,-0.236145 l -0.179738,-0.169989 -0.360203,0.112011 c -0.4483917,0.139434 -0.464439,0.174069 -0.192827,0.416153 0.13358,0.119057 0.257191,0.191859 0.429815,0.253142 0.133272,0.04731 0.307623,0.123356 0.387448,0.16899 0.176726,0.101025 0.167534,0.100697 0.253431,0.009 z m -0.53726,-1.640191 c 0.01015,-0.03857 -0.0089,-0.128293 -0.04235,-0.199371 l -0.06083,-0.129236 -0.8304728,-0.0072 -0.8304737,-0.0072 0.1734887,0.09029 c 0.1106518,0.05759 0.2113765,0.14445 0.2780984,0.239822 0.057541,0.08224 0.1790501,0.226238 0.2700301,0.319995 l 0.1654174,0.170467 0.4292999,-0.203696 c 0.311894,-0.147988 0.434357,-0.222876 0.44779,-0.273832 z"
           style="fill:#222222;stroke-width:0.49999994;fill-opacity:1" />
        <path
           inkscape:connector-curvature="0"
           id="rect5205"
           d="m 0.7276035,18.520835 v 4.167188 c 0,1.539081 1.2390438,2.778125 2.778125,2.778125 H 22.952604 c 1.539081,0 2.778125,-1.239044 2.778125,-2.778125 v -4.167188 z"
           style="opacity:1;fill:#222222;fill-opacity:1;fill-rule:nonzero;stroke:none;stroke-width:0.25;stroke-linecap:butt;stroke-linejoin:round;stroke-miterlimit:4;stroke-dasharray:none;stroke-dashoffset:0;stroke-opacity:0.90944878;paint-order:normal" />
        <text
           id="text5142"
           y="23.288628"
           x="13.045943"
           style="font-style:normal;font-variant:normal;font-weight:500;font-stretch:normal;font-size:4.23333311px;line-height:4.23333311px;font-family:Montserrat;-inkscape-font-specification:'Montserrat Medium';text-align:center;text-anchor:middle;opacity:1;fill:#eeeeee;fill-opacity:1;fill-rule:nonzero;stroke:none;stroke-width:0.25;stroke-linecap:butt;stroke-linejoin:round;stroke-miterlimit:4;stroke-dasharray:none;stroke-dashoffset:0;stroke-opacity:0.90944878;paint-order:normal;"
           xml:space="preserve"><tspan
             style="font-style:normal;font-variant:normal;font-weight:500;font-stretch:normal;font-size:4.23333311px;font-family:Montserrat;-inkscape-font-specification:'Montserrat Medium';fill:#eeeeee;stroke-width:0.25;fill-opacity:1;"
             y="23.288628"
             x="13.045943"
             id="tspan5140"
             sodipodi:role="line">LIBERTY</tspan></text>
      </g>
      <g
         id="g5175"
         transform="translate(55.562501,27.781251)"
         style="stroke-width:0.5">
        <rect
           ry="1.984375"
           rx="1.984375"
           style="opacity:1;fill:#222222;fill-opacity:1;fill-rule:nonzero;stroke:none;stroke-width:0.25;stroke-linecap:butt;stroke-linejoin:round;stroke-miterlimit:4;stroke-dasharray:none;stroke-dashoffset:0;stroke-opacity:0.90944878;paint-order:normal"
           id="rect5163"
           width="26.458334"
           height="26.458334"
           x="0"
           y="-1.110223e-16" />
        <rect
           ry="1.3229166"
           rx="1.3229166"
           y="1.322917"
           x="1.322917"
           height="23.8125"
           width="23.8125"
           id="rect5165"
           style="opacity:1;fill:#3f51b5;fill-opacity:1;fill-rule:nonzero;stroke:none;stroke-width:0.25;stroke-linecap:butt;stroke-linejoin:round;stroke-miterlimit:4;stroke-dasharray:none;stroke-dashoffset:0;stroke-opacity:0.90944878;paint-order:normal" />
        <path
           sodipodi:nodetypes="cscsccscsccccccscccscccccsccccccsccccccscscsccccsccscccccccscccsssccccccccscscscscsccscscccccs"
           inkscape:connector-curvature="0"
           id="path5188"
           d="m 7.6914827,20.376315 c 0,-0.01811 0.1493833,-1.208877 0.3319628,-2.646139 L 8.3554084,15.116975 6.4516543,12.377881 C 5.4045894,10.871379 4.5072314,9.5801659 4.4575252,9.5085179 L 4.3671501,9.3782509 5.8500426,7.1888517 C 6.6656334,5.9846825 7.3528408,4.9928182 7.3771704,4.9847083 c 0.024329,-0.0081 0.9619739,0.4010515 2.083654,0.9092471 l 2.0394186,0.9239925 -0.01072,0.1492401 c -0.0059,0.082082 -0.04748,0.3545987 -0.09239,0.6055925 l -0.08166,0.456352 -0.967001,0.2384583 C 9.8166137,8.3987422 9.3580054,8.5055258 9.3293354,8.5048866 9.3006656,8.5042359 9.0296001,8.2772559 8.7269677,8.0004594 8.4243355,7.7236631 8.168126,7.5057945 8.1576136,7.5163068 c -0.010512,0.010513 0.00725,0.1531416 0.039483,0.3169535 L 8.2556927,8.1310999 8.0618702,8.440351 C 7.9052267,8.6902819 7.8211436,8.7702387 7.6235255,8.8571854 7.4890382,8.9163564 7.3871586,8.9729239 7.3971265,8.9828919 c 0.00997,0.01 0.4264693,0.17957 0.9255589,0.376894 0.4990897,0.197325 0.9446058,0.397577 0.9900359,0.445004 0.1142794,0.119304 2.6765677,4.0536641 2.7009237,4.1472291 0.01326,0.05094 -0.173639,0.198752 -0.572054,0.45239 -0.643752,0.409824 -0.651085,0.437891 -0.117914,0.451319 0.47246,0.0119 0.408305,-0.166604 0.705594,1.963263 0.145883,1.045157 0.27603,1.297424 0.289216,1.311297 0.01318,0.01389 0.01637,-0.129388 0.0071,-1.069061 l -0.01691,-1.708495 0.339902,-0.171357 c 0.186945,-0.09425 0.3399,-0.189138 0.3399,-0.210871 0,-0.02172 -0.08901,-0.126423 -0.197788,-0.232647 -0.172982,-0.168913 -0.255603,-0.345766 -0.658784,-1.410147 l -0.461043,-1.217013 -0.805369,-0.97833 c -0.442953,-0.538081 -0.797102,-0.986597 -0.786998,-0.996703 0.02697,-0.02697 2.604431,0.531937 2.701398,0.585785 0.04533,0.02517 0.377207,0.342377 0.737504,0.704897 0.360297,0.36252 0.678113,0.658569 0.706261,0.657885 0.02815,-6.87e-4 0.482498,-0.385281 1.00967,-0.854662 0.527173,-0.469381 0.964457,-0.836861 0.971741,-0.816622 0.0072,0.02024 -0.153804,0.846978 -0.357978,1.837201 l -0.371224,1.800402 -0.301473,0.366924 c -0.16581,0.201807 -0.438737,0.537183 -0.606503,0.745277 l -0.305031,0.378354 -0.0578,1.68998 c -0.03179,0.929488 -0.07218,2.024823 -0.08977,2.434075 l -0.03197,0.744096 H 10.88741 c -1.7577522,0 -3.1959132,-0.01481 -3.1959132,-0.03294 z m 5.9480193,-9.057052 c -0.316469,-0.280614 -0.581138,-0.524 -0.588154,-0.540859 -0.01138,-0.02734 2.538668,-3.125048 2.756811,-3.3488756 0.08437,-0.086567 0.117964,-0.052247 0.777451,0.7942222 l 0.689274,0.8846993 -0.213621,0.194099 c -0.733575,0.666537 -2.752764,2.4690721 -2.79526,2.4953371 -0.0281,0.01737 -0.310033,-0.198009 -0.626501,-0.478623 z m -1.646476,-1.19457 C 11.542663,9.9093269 11.158755,9.7176919 11.1399,9.6988369 c -0.03726,-0.03726 2.496088,-3.8688112 2.557985,-3.8688112 0.08707,0 1.888578,1.2694665 1.888578,1.3308211 0,0.08474 -2.655803,3.3563712 -2.724147,3.3558232 -0.02774,-2.09e-4 -0.418926,-0.176612 -0.86929,-0.391977 z M 9.8211257,9.4251609 C 9.5080213,9.2439989 9.2627652,9.0848549 9.2761119,9.0715089 c 0.03861,-0.03861 1.8646361,-0.5657405 1.8859481,-0.5444281 0.03009,0.03009 -0.666671,1.2034581 -0.722166,1.2161501 -0.02721,0.0062 -0.305665,-0.136907 -0.6187683,-0.31807 z M 11.683725,7.381276 C 11.834422,6.6963972 11.877767,6.7692508 11.045918,6.3092737 10.6445,6.0873061 10.315766,5.8904609 10.315401,5.8718398 c -3.53e-4,-0.01862 0.284341,-0.4762445 0.632682,-1.0169416 l 0.633348,-0.9830851 1.094467,0.6784765 c 0.601957,0.3731623 1.091972,0.7059292 1.088923,0.7394823 -0.0031,0.033554 -0.316684,0.507017 -0.696966,1.0521418 -0.638185,0.9148211 -0.718311,1.0090156 -1.04063,1.2233437 -0.192065,0.1277142 -0.368528,0.2322077 -0.392142,0.2322077 -0.02361,0 -0.0017,-0.1872851 0.04865,-0.4161891 z M 8.9582833,5.3728402 C 8.3925834,5.1264245 7.9184917,4.9135657 7.9047463,4.8998201 7.8910012,4.886075 8.2489619,4.3867798 8.7002156,3.7902759 L 9.520677,2.7057234 9.7285289,2.8264968 c 0.1143189,0.066426 0.5018561,0.2893287 0.8611931,0.4953408 0.359335,0.2060119 0.660646,0.39649 0.669578,0.423285 0.01969,0.05907 -1.185578,2.086813 -1.236522,2.0803244 C 10.003008,5.822927 9.5239833,5.6192556 8.9582833,5.3728402 Z"
           style="fill:#222222;stroke-width:0.49999994;fill-opacity:1" />
        <path
           inkscape:connector-curvature="0"
           id="rect5205-3-6"
           d="m 0.72760492,18.520836 v 4.167188 c 0,1.539081 1.23904398,2.778124 2.77812498,2.778124 H 22.952604 c 1.539081,0 2.778125,-1.239043 2.778125,-2.778124 v -4.167188 z"
           style="opacity:1;fill:#222222;fill-opacity:1;fill-rule:nonzero;stroke:none;stroke-width:0.24999997;stroke-linecap:butt;stroke-linejoin:round;stroke-miterlimit:4;stroke-dasharray:none;stroke-dashoffset:0;stroke-opacity:0.90944878;paint-order:normal" />
        <text
           xml:space="preserve"
           style="font-style:normal;font-variant:normal;font-weight:500;font-stretch:normal;font-size:4.23333311px;line-height:4.23333311px;font-family:Montserrat;-inkscape-font-specification:'Montserrat Medium';text-align:center;letter-spacing:-0.26458332px;text-anchor:middle;opacity:1;fill:#eeeeee;fill-opacity:1;fill-rule:nonzero;stroke:none;stroke-width:0.25;stroke-linecap:butt;stroke-linejoin:round;stroke-miterlimit:4;stroke-dasharray:none;stroke-dashoffset:0;stroke-opacity:0.90944878;paint-order:normal;"
           x="13.045943"
           y="23.288628"
           id="text5173"><tspan
             sodipodi:role="line"
             id="tspan5171"
             x="12.913651"
             y="23.288628"
             style="font-style:normal;font-variant:normal;font-weight:500;font-stretch:normal;font-size:4.23333311px;font-family:Montserrat;-inkscape-font-specification:'Montserrat Medium';letter-spacing:-0.26458332px;fill:#eeeeee;stroke-width:0.25;fill-opacity:1;">AUTHORITY</tspan></text>
      </g>
      <g
         id="g5250"
         transform="translate(27.781251)"
         style="stroke-width:0.5">
        <rect
           ry="1.984375"
           rx="1.984375"
           style="opacity:1;fill:#222222;fill-opacity:1;fill-rule:nonzero;stroke:none;stroke-width:0.25;stroke-linecap:butt;stroke-linejoin:round;stroke-miterlimit:4;stroke-dasharray:none;stroke-dashoffset:0;stroke-opacity:0.90944878;paint-order:normal"
           id="rect5238"
           width="26.458334"
           height="26.458334"
           x="0"
           y="-1.110223e-16" />
        <rect
           ry="1.3229166"
           rx="1.3229166"
           y="1.322917"
           x="1.322917"
           height="23.8125"
           width="23.8125"
           id="rect5240"
           style="opacity:1;fill:#ff9800;fill-opacity:1;fill-rule:nonzero;stroke:none;stroke-width:0.25;stroke-linecap:butt;stroke-linejoin:round;stroke-miterlimit:4;stroke-dasharray:none;stroke-dashoffset:0;stroke-opacity:0.90944878;paint-order:normal" />
        <path
           style="opacity:1;fill:#222222;fill-opacity:1;fill-rule:nonzero;stroke:none;stroke-width:0.25;stroke-linecap:butt;stroke-linejoin:round;stroke-miterlimit:4;stroke-dasharray:none;stroke-dashoffset:0;stroke-opacity:0.90944878;paint-order:normal"
           d="m 0.7276035,18.520835 v 4.167188 c 0,1.539081 1.2390438,2.778125 2.778125,2.778125 H 22.952604 c 1.539081,0 2.778125,-1.239044 2.778125,-2.778125 v -4.167188 z"
           id="path5244"
           inkscape:connector-curvature="0" />
        <text
           xml:space="preserve"
           style="font-style:normal;font-variant:normal;font-weight:500;font-stretch:normal;font-size:4.23333311px;line-height:4.23333311px;font-family:Montserrat;-inkscape-font-specification:'Montserrat Medium';text-align:center;text-anchor:middle;opacity:1;fill:#eeeeee;fill-opacity:1;fill-rule:nonzero;stroke:none;stroke-width:0.25;stroke-linecap:butt;stroke-linejoin:round;stroke-miterlimit:4;stroke-dasharray:none;stroke-dashoffset:0;stroke-opacity:0.90944878;paint-order:normal;"
           x="13.045943"
           y="23.288628"
           id="text5248"><tspan
             sodipodi:role="line"
             id="tspan5246"
             x="13.045943"
             y="23.288628"
             style="font-style:normal;font-variant:normal;font-weight:500;font-stretch:normal;font-size:4.23333311px;font-family:Montserrat;-inkscape-font-specification:'Montserrat Medium';fill:#eeeeee;stroke-width:0.25;fill-opacity:1;">MIGHT</tspan></text>
        <path
           inkscape:connector-curvature="0"
           id="path5277"
           d="m 3.1274994,3.8365297 c 2.013e-4,0.023171 0.071906,0.4611583 0.1594602,0.9733076 L 3.446148,5.7410169 3.838957,6.1409446 C 4.0550024,6.3609042 5.3459466,7.6580081 6.7077216,9.0233962 L 9.1836775,11.505922 7.8461693,12.843431 6.5086607,14.180938 6.2171159,13.890297 5.925571,13.599656 4.8791424,13.244648 3.8327146,12.88964 l 1.1780295,1.178447 1.1780294,1.178446 -1.1913403,1.18821 -1.1913414,1.18821 -0.1461864,0.01584 c -0.5294869,0.05736 -0.9062925,0.575598 -0.7984417,1.098128 0.043074,0.208694 0.1055019,0.324936 0.254554,0.47399 0.1508261,0.150827 0.2685273,0.213465 0.4851884,0.258217 0.1891711,0.03908 0.4161677,0.0061 0.5986616,-0.08703 0.2494428,-0.127258 0.4579709,-0.434189 0.4887866,-0.719443 l 0.015319,-0.141822 1.188209,-1.191339 1.1882087,-1.191341 1.1673901,1.164719 C 8.959855,18.013315 9.40761,18.44163 9.395781,18.401034 9.385111,18.364434 9.2292297,17.898414 9.0493668,17.365445 L 8.722344,16.396413 8.4341666,16.107339 8.1459889,15.818266 l 1.3375191,-1.33752 1.337519,-1.337519 1.337518,1.337519 1.337518,1.33752 -0.285114,0.286399 -0.285117,0.286397 -0.346917,1.020844 c -0.190803,0.561463 -0.346916,1.028631 -0.346916,1.03815 0,0.0096 0.527119,-0.50971 1.171374,-1.153841 l 1.171375,-1.171149 1.181271,1.181049 1.181273,1.181048 0.01404,0.155041 c 0.04876,0.537761 0.570872,0.934041 1.089497,0.826921 0.21666,-0.04476 0.334364,-0.107391 0.485186,-0.258217 0.149054,-0.149052 0.211482,-0.265296 0.254555,-0.473988 0.107852,-0.522532 -0.268953,-1.040766 -0.79844,-1.098132 l -0.146187,-0.01584 -1.191342,-1.18821 -1.191339,-1.18821 1.177472,-1.177694 1.177472,-1.177696 -1.045882,0.354268 -1.045881,0.354269 -0.291535,0.290628 -0.291534,0.29063 -1.337512,-1.33751 L 12.45835,11.505912 15.327687,8.6364805 18.197026,5.76705 18.362434,4.7916546 c 0.09097,-0.5364682 0.15948,-0.9810155 0.152235,-0.9878835 -0.0072,-0.00686 -0.444451,0.059104 -0.971569,0.146604 L 16.584721,4.1094717 13.702875,6.9890106 10.821028,9.8685484 7.9458298,6.9934018 5.0706336,4.1182572 4.0989306,3.9563297 C 3.2635464,3.8171182 3.1272661,3.8003118 3.1274994,3.8365297 Z"
           style="fill:#222222;stroke-width:0.5;fill-opacity:1" />
      </g>
      <g
         transform="translate(27.781251,27.781251)"
         id="g5264"
         style="stroke-width:0.5">
        <rect
           y="-1.110223e-16"
           x="0"
           height="26.458334"
           width="26.458334"
           id="rect5252"
           style="opacity:1;fill:#222222;fill-opacity:1;fill-rule:nonzero;stroke:none;stroke-width:0.25;stroke-linecap:butt;stroke-linejoin:round;stroke-miterlimit:4;stroke-dasharray:none;stroke-dashoffset:0;stroke-opacity:0.90944878;paint-order:normal"
           rx="1.984375"
           ry="1.984375" />
        <rect
           style="opacity:1;fill:#03a9f4;fill-opacity:1;fill-rule:nonzero;stroke:none;stroke-width:0.25;stroke-linecap:butt;stroke-linejoin:round;stroke-miterlimit:4;stroke-dasharray:none;stroke-dashoffset:0;stroke-opacity:0.90944878;paint-order:normal"
           id="rect5254"
           width="23.8125"
           height="23.8125"
           x="1.322917"
           y="1.322917"
           rx="1.3229166"
           ry="1.3229166" />
        <path
           inkscape:connector-curvature="0"
           id="path5305"
           d="m 6.268127,21.709471 c 0.089728,-0.09631 0.1579292,-0.117365 0.2308356,-0.07126 0.2875218,0.181824 0.91061,-0.0068 0.91061,-0.27562 0,-0.208053 0.081581,-0.222714 0.2249671,-0.04043 0.1804845,0.229449 0.4999343,0.231174 0.7106239,0.0038 0.1228506,-0.132557 0.184236,-0.153923 0.2831754,-0.09856 0.1495573,0.0837 0.5617146,0.01976 0.6635373,-0.102928 0.039377,-0.04745 0.092822,-0.170839 0.1187666,-0.274208 0.030437,-0.12127 0.081726,-0.174685 0.1445742,-0.150567 0.1547296,0.05937 0.7252389,-0.253034 0.8311219,-0.45512 0.08273,-0.1579 0.135706,-0.181133 0.373793,-0.163943 0.217898,0.01573 0.32643,-0.02123 0.505978,-0.172307 0.191605,-0.161224 0.222797,-0.227961 0.192838,-0.41258 -0.03344,-0.206067 -0.02355,-0.218455 0.153648,-0.192448 0.136319,0.02001 0.271139,-0.03775 0.481132,-0.206125 0.160459,-0.128656 0.293374,-0.274657 0.295367,-0.324448 0.0063,-0.156386 -0.262267,-0.620719 -0.553676,-0.957416 -0.337181,-0.389565 -0.479581,-0.789919 -0.360265,-1.012865 0.04458,-0.08329 0.280504,-0.277404 0.524288,-0.431367 0.394582,-0.249201 0.521041,-0.393592 1.151917,-1.315256 0.684102,-0.999425 1.108187,-1.512174 1.34104,-1.621415 0.06114,-0.02867 0.237483,-0.03488 0.391891,-0.01376 l 0.280741,0.03838 -0.210556,0.146657 c -0.115806,0.08067 -0.344785,0.220708 -0.508842,0.311211 -0.335337,0.184992 -0.348407,0.212368 -0.175463,0.367479 0.113354,0.101662 0.16611,0.07868 0.684305,-0.298192 0.308815,-0.224593 0.585168,-0.393739 0.61412,-0.37588 0.02895,0.01786 0.05426,-0.0088 0.05624,-0.0594 0.002,-0.05053 0.224458,-0.265584 0.494392,-0.477894 0.751006,-0.590685 2.038427,-1.940415 2.334703,-2.447698 0.31738,-0.54342 0.299641,-0.6401104 -0.0254,-0.138478 -0.360063,0.555672 -1.497784,1.700025 -2.264041,2.277238 -0.379298,0.285721 -0.716032,0.519493 -0.748297,0.519493 -0.066,0 -0.187405,-0.280084 -0.258592,-0.596574 -0.143352,-0.637341 -0.504496,-0.900904 -1.186276,-0.86574 -0.263153,0.01357 -0.465908,-0.0062 -0.479474,-0.04667 -0.05827,-0.173965 0.06426,-0.309348 0.444433,-0.491052 0.80713,-0.385772 0.945907,-0.687365 0.560873,-1.21889 L 14.285474,9.7724341 14.401531,9.4176091 C 14.498941,9.1198114 14.50382,9.0168473 14.431961,8.7769773 14.384861,8.6197843 14.271778,7.9666069 14.180661,7.325472 13.947377,5.6839561 13.776364,5.2648357 13.065563,4.59259 12.758714,4.3023843 12.630702,4.2253766 12.483845,4.242648 12.33545,4.2601 12.28236,4.316032 12.233296,4.5066081 c -0.03424,0.1329986 -0.04913,0.3104895 -0.03308,0.3944242 l 0.02917,0.1526085 -0.235337,-0.1388529 c -0.300306,-0.1771841 -0.443554,-0.079979 -0.443554,0.3009881 0,0.2229354 0.0432,0.3026541 0.261639,0.4827018 0.315287,0.259886 0.252232,0.2837576 -0.106193,0.040202 -0.395897,-0.2690179 -0.580096,-0.2197945 -0.680931,0.1819636 -0.0407,0.1621697 -0.0047,0.2059007 0.343333,0.4168193 0.446805,0.2707925 0.481035,0.3393472 0.06721,0.1346011 -0.679047,-0.3359655 -0.908754,-0.3002009 -0.982289,0.1529385 -0.04045,0.2492511 -0.03491,0.2566164 0.284635,0.3786523 0.179238,0.068451 0.343512,0.1529766 0.365055,0.1878343 0.02154,0.034857 -0.07809,0.01438 -0.221419,-0.045503 -0.143323,-0.059884 -0.396563,-0.1088806 -0.562755,-0.1088806 -0.242841,0 -0.3307277,0.036308 -0.4476327,0.1849277 -0.080005,0.1017107 -0.1454636,0.2096772 -0.1454636,0.2399258 0,0.030249 0.2073096,0.1239859 0.4606863,0.2083047 0.542832,0.180643 0.562863,0.2683502 0.02479,0.1085607 C 9.6598696,7.6151081 9.4121392,7.6341975 9.2394789,7.8536992 9.1594734,7.9554096 9.0940146,8.0620079 9.0940146,8.090584 c 0,0.028577 0.1500208,0.1149114 0.3333796,0.1918566 l 0.3333791,0.1398998 -0.3750061,-0.00831 c -0.3426978,-0.0076 -0.3900364,0.01095 -0.5494535,0.2152815 L 8.6618663,8.8529021 8.9305794,8.9976897 c 0.2226988,0.1199947 0.2356626,0.1374911 0.075704,0.1021765 -0.1061556,-0.023436 -0.2719675,-0.022795 -0.3684721,0.00144 -0.1443201,0.036222 -0.1754628,0.086589 -0.1754628,0.28378 0,0.1318583 0.030802,0.3207569 0.068448,0.4197744 0.037646,0.099013 0.052106,0.1800322 0.032132,0.1800322 -0.019975,0 -0.4692538,-0.3589401 -0.9984011,-0.7976449 C 6.5295014,8.3291227 5.4215197,7.2193699 4.9471053,6.5656351 4.7851207,6.3424224 4.5603402,6.0615342 4.4475928,5.9414392 4.3348459,5.8213442 4.0155638,5.2873131 3.7380771,4.754703 3.2063004,3.734008 3.0779472,3.5785774 2.9023216,3.7426366 2.8107176,3.8282076 2.8189086,3.907025 2.9709776,4.4032241 3.0659456,4.7131065 3.1907924,5.0613969 3.2484123,5.1772023 3.3516121,5.3846124 3.3499667,5.3840882 3.1383017,5.1421103 l -0.214875,-0.2456481 -0.00285,0.320028 c -0.00249,0.2796444 0.037002,0.3667185 0.3129807,0.6900355 0.3794961,0.444591 0.4104421,0.5473405 0.064573,0.2143979 l -0.2512622,-0.24187 0.045435,0.2807405 c 0.097164,0.6003668 0.1225798,0.6694863 0.2964766,0.8062737 0.098746,0.077674 0.1443009,0.1412256 0.1012321,0.1412256 -0.052732,0 -0.064108,0.1088867 -0.034833,0.3333796 0.059651,0.4574226 0.1349691,0.5788335 0.3598738,0.580102 0.1047962,5.836e-4 0.237915,0.033081 0.2958177,0.0722 0.080556,0.054423 0.055833,0.066532 -0.1052781,0.051564 C 3.7975221,8.12521 3.795279,8.128679 3.8155721,8.438516 c 0.021911,0.3345531 0.077783,0.4028245 0.3841417,0.4693982 0.1684513,0.036606 0.1792471,0.05306 0.081643,0.12443 -0.1014607,0.074189 -0.096413,0.1073926 0.051527,0.3389596 0.1570631,0.2458476 0.1818294,0.2571912 0.5851159,0.2679817 l 0.4211104,0.011264 -0.3333794,0.069476 c -0.1833585,0.038216 -0.3333792,0.093812 -0.3333792,0.1235385 0,0.072008 0.7296417,0.632609 0.8233602,0.632609 0.040397,0 0.069064,0.0525 0.063702,0.116671 -0.013754,0.164622 0.6872623,0.45507 0.9970425,0.413098 l 0.2347539,-0.0318 -0.1821148,0.168777 c -0.1001631,0.09282 -0.1821152,0.236434 -0.1821152,0.319124 0,0.08269 0.186948,0.409307 0.41544,0.725816 0.228491,0.31651 0.4986251,0.757337 0.6002976,0.979615 0.1016724,0.222279 0.3259762,0.636582 0.4984534,0.920675 0.1724772,0.284094 0.3472704,0.613134 0.3884292,0.731203 0.1714237,0.491747 -0.2430379,1.011272 -1.2664362,1.587472 -0.3428072,0.193009 -0.9183332,0.534019 -1.2789471,0.757799 -1.311726,0.813995 -1.7161826,1.033126 -2.1184494,1.147756 -0.4449971,0.126806 -0.5216918,0.21288 -0.3971061,0.44567 0.06389,0.11938 0.056996,0.211371 -0.032629,0.435365 -0.10536,0.263321 -0.1050803,0.293457 0.00384,0.413812 0.064611,0.07139 0.178329,0.149123 0.2527057,0.172729 0.1256216,0.03988 0.127457,0.05479 0.025837,0.209878 -0.2409889,0.367796 -0.058183,0.873748 0.3156957,0.873748 0.1699168,0 0.2065759,0.02921 0.2065759,0.164585 0,0.212459 0.2248162,0.414646 0.4280789,0.384989 0.1015905,-0.01483 0.2283163,0.04644 0.3513144,0.169824 0.2007344,0.201369 0.3133324,0.232246 0.4745226,0.130128 0.058487,-0.03706 0.1679416,-0.02312 0.2807405,0.03574 0.2614409,0.136414 0.5439762,0.120357 0.6927847,-0.03937 z m 13.318995,-9.225253 c 0.355239,-0.111339 1.438367,-0.672013 1.438367,-0.744563 0,-0.02992 -0.08686,-0.07016 -0.193009,-0.08942 -0.10615,-0.01926 -0.458816,-0.105384 -0.78369,-0.191371 -0.850097,-0.225011 -1.138959,-0.157997 -2.367456,0.54923 l -0.22092,0.127178 0.185826,0.08045 c 0.102204,0.04425 0.295874,0.144702 0.430379,0.22323 0.286465,0.167247 1.048447,0.190081 1.510503,0.04527 z m -2.361651,-0.886535 c 0.335069,-0.453205 0.4402,-1.079206 0.290288,-1.7285258 -0.101481,-0.4395601 -0.496516,-1.498535 -0.559002,-1.498535 -0.06874,0 -0.303521,0.5450614 -0.451396,1.0479695 -0.208905,0.7104693 -0.103449,1.5810213 0.255733,2.1111553 0.211186,0.311698 0.277034,0.321332 0.464377,0.06793 z M 19.749317,10.7472 c 0.166646,-0.08248 0.649297,-0.477255 1.072559,-0.8772599 0.423261,-0.4000048 0.815935,-0.7272814 0.872608,-0.7272814 0.05667,0 0.103045,-0.03217 0.103045,-0.071489 0,-0.1018064 -0.791515,-0.017319 -1.148252,0.122567 -0.159799,0.062662 -0.389375,0.1797717 -0.510171,0.2602449 -0.349999,0.233168 -1.49562,1.3232804 -1.456753,1.3861684 0.07277,0.117746 0.76274,0.05764 1.066967,-0.09295 z M 18.522631,9.9006396 c 0.406325,-0.5327203 0.486265,-1.0386948 0.293355,-1.8567503 -0.12854,-0.545084 -0.451222,-1.3577104 -0.539127,-1.3577104 -0.08372,0 -0.331499,0.5541914 -0.454845,1.0173229 -0.208904,0.7843701 -0.05958,1.7212058 0.356383,2.2360082 l 0.161828,0.200276 z M 19.625345,9.1879085 C 20.18643,8.7470707 20.504247,8.345508 20.710555,7.816741 20.911197,7.302499 21.170653,6.1018553 21.088462,6.0679577 20.98729,6.0262317 20.488489,6.3268927 20.141874,6.638529 19.515399,7.2017844 19.179664,8.0431119 19.215152,8.9608318 l 0.02061,0.5331629 z"
           style="fill:#222222;stroke-width:0.49999994;fill-opacity:1" />
        <path
           style="opacity:1;fill:#222222;fill-opacity:1;fill-rule:nonzero;stroke:none;stroke-width:0.24999997;stroke-linecap:butt;stroke-linejoin:round;stroke-miterlimit:4;stroke-dasharray:none;stroke-dashoffset:0;stroke-opacity:0.90944878;paint-order:normal"
           d="m 0.72760492,18.520836 v 4.167188 c 0,1.539081 1.23904398,2.778124 2.77812498,2.778124 H 22.952604 c 1.539081,0 2.778125,-1.239043 2.778125,-2.778124 v -4.167188 z"
           id="path5258"
           inkscape:connector-curvature="0" />
        <text
           id="text5262"
           y="23.288628"
           x="13.045943"
           style="font-style:normal;font-variant:normal;font-weight:500;font-stretch:normal;font-size:4.23333311px;line-height:4.23333311px;font-family:Montserrat;-inkscape-font-specification:'Montserrat Medium';text-align:center;letter-spacing:0px;text-anchor:middle;opacity:1;fill:#eeeeee;fill-opacity:1;fill-rule:nonzero;stroke:none;stroke-width:0.25;stroke-linecap:butt;stroke-linejoin:round;stroke-miterlimit:4;stroke-dasharray:none;stroke-dashoffset:0;stroke-opacity:0.90944878;paint-order:normal;"
           xml:space="preserve"><tspan
             style="font-style:normal;font-variant:normal;font-weight:500;font-stretch:normal;font-size:4.23333311px;font-family:Montserrat;-inkscape-font-specification:'Montserrat Medium';letter-spacing:0px;fill:#eeeeee;stroke-width:0.25;fill-opacity:1;"
             y="23.288628"
             x="13.045943"
             id="tspan5260"
             sodipodi:role="line">PEACE</tspan></text>
      </g>
      <g
         transform="translate(0,27.781251)"
         id="g5334"
         style="stroke-width:0.5">
        <rect
           y="-1.110223e-16"
           x="0"
           height="26.458334"
           width="26.458334"
           id="rect5322"
           style="opacity:1;fill:#222222;fill-opacity:1;fill-rule:nonzero;stroke:none;stroke-width:0.25;stroke-linecap:butt;stroke-linejoin:round;stroke-miterlimit:4;stroke-dasharray:none;stroke-dashoffset:0;stroke-opacity:0.90944878;paint-order:normal"
           rx="1.984375"
           ry="1.984375" />
        <rect
           style="opacity:1;fill:#00897b;fill-opacity:1;fill-rule:nonzero;stroke:none;stroke-width:0.25;stroke-linecap:butt;stroke-linejoin:round;stroke-miterlimit:4;stroke-dasharray:none;stroke-dashoffset:0;stroke-opacity:0.90944878;paint-order:normal"
           id="rect5324"
           width="23.8125"
           height="23.8125"
           x="1.322917"
           y="1.322917"
           rx="1.3229166"
           ry="1.3229166" />
        <path
           style="opacity:1;fill:#222222;fill-opacity:1;fill-rule:nonzero;stroke:none;stroke-width:0.24999999;stroke-linecap:butt;stroke-linejoin:round;stroke-miterlimit:4;stroke-dasharray:none;stroke-dashoffset:0;stroke-opacity:0.90944878;paint-order:normal"
           d="m 0.72760467,18.520836 v 4.167188 c 0,1.539081 1.23904383,2.778124 2.77812503,2.778124 H 22.952604 c 1.539081,0 2.778125,-1.239043 2.778125,-2.778124 v -4.167188 z"
           id="path5326"
           inkscape:connector-curvature="0" />
        <text
           id="text5330"
           y="23.288628"
           x="13.045943"
           style="font-style:normal;font-variant:normal;font-weight:500;font-stretch:normal;font-size:4.23333311px;line-height:4.23333311px;font-family:Montserrat;-inkscape-font-specification:'Montserrat Medium';text-align:center;text-anchor:middle;opacity:1;fill:#eeeeee;fill-opacity:1;fill-rule:nonzero;stroke:none;stroke-width:0.25;stroke-linecap:butt;stroke-linejoin:round;stroke-miterlimit:4;stroke-dasharray:none;stroke-dashoffset:0;stroke-opacity:0.90944878;paint-order:normal;"
           xml:space="preserve"><tspan
             style="font-style:normal;font-variant:normal;font-weight:500;font-stretch:normal;font-size:4.23333311px;font-family:Montserrat;-inkscape-font-specification:'Montserrat Medium';fill:#eeeeee;stroke-width:0.25;fill-opacity:1;"
             y="23.288628"
             x="13.045943"
             id="tspan5328"
             sodipodi:role="line">WEALTH</tspan></text>
        <path
           inkscape:connector-curvature="0"
           id="path5347"
           d="M 9.402202,18.520836 9.3842353,17.714385 8.7707532,17.612582 C 8.1138401,17.503572 7.2415254,17.250004 6.7688637,17.030669 5.9935039,16.670865 5.1956549,15.936571 4.9192966,15.328429 4.7733514,15.00727 4.7427698,14.852188 4.7438705,14.438837 c 0.00158,-0.597901 0.1498429,-0.938029 0.5540116,-1.271053 0.4177441,-0.344212 0.8957956,-0.507124 1.50327,-0.512292 0.5940108,-0.005 0.967738,0.115408 1.3599039,0.438346 1.2780673,1.052439 0.5843599,2.795862 -1.181084,2.968295 l -0.413681,0.04041 0.180008,0.17136 c 0.3424198,0.325973 1.1140979,0.626783 2.0760653,0.809279 0.6640289,0.125971 0.5941596,0.42663 0.5941596,-2.556758 V 11.904742 L 9.0774941,11.763171 C 8.8910279,11.685314 8.4861275,11.515931 8.1777156,11.386766 6.7313225,10.781013 5.720306,9.8937709 5.3432851,8.8993427 5.0479427,8.1203492 5.1364793,6.8520664 5.5433302,6.0336994 6.1097441,4.8943785 7.4248515,4.0262524 9.0452057,3.7220492 l 0.3713182,-0.06971 V 2.8908535 2.1293682 h 0.2583083 0.2583083 v 0.7362127 0.736212 h 0.6457715 0.645771 V 2.8655809 2.1293682 h 0.290596 0.290597 v 0.7656611 c 0,0.4211134 0.0218,0.7658609 0.04843,0.7661056 0.214223,0.00197 0.952992,0.1475188 1.352563,0.266479 1.647274,0.4904269 2.62301,1.3571426 2.715888,2.4124377 0.04107,0.4666781 -0.08942,0.8239198 -0.424568,1.1622535 C 15.118297,7.8858179 14.836133,7.9887054 14.16294,7.989196 13.631335,7.989607 13.551591,7.974022 13.228292,7.8067721 12.800408,7.5854242 12.491929,7.2031327 12.383007,6.7592262 c -0.06871,-0.2800274 -0.06207,-0.3634799 0.0575,-0.7225142 0.142449,-0.4277199 0.280509,-0.5849832 0.765472,-0.8719213 0.202322,-0.1197082 0.36002,-0.1621559 0.629103,-0.1693363 0.197502,-0.00527 0.359334,-0.029129 0.359623,-0.053016 0.0019,-0.1545445 -1.026083,-0.5681251 -1.71077,-0.6883032 -0.213104,-0.037405 -0.45317,-0.080796 -0.533479,-0.096425 l -0.146016,-0.028419 0.01686,2.4195036 0.01686,2.4195043 0.633602,0.2272833 c 1.370901,0.4917626 2.561358,1.1150746 3.199509,1.6752286 0.884419,0.776326 1.16184,1.294261 1.21711,2.27229 0.06066,1.073182 -0.157017,1.861345 -0.735324,2.66262 -0.521865,0.72307 -1.273547,1.201124 -2.432831,1.547225 -0.385558,0.115114 -0.974017,0.240735 -1.307686,0.279172 l -0.606669,0.06989 v 0.81264 0.812643 h -0.290592 -0.290596 v -0.79511 -0.79511 H 10.578912 9.9331405 v 0.79511 0.795108 H 9.6766546 9.4201685 Z m 1.580316,-1.313036 0.242165,-8.12e-4 V 14.857297 12.5076 l -0.58164,-0.212321 c -0.319901,-0.116778 -0.610499,-0.212322 -0.6457706,-0.212322 -0.041467,0 -0.064131,0.903997 -0.064131,2.558633 v 2.558632 l 0.2744526,0.02366 c 0.150949,0.01296 0.332573,0.01491 0.403607,0.0043 0.07104,-0.01075 0.238128,-0.01984 0.371318,-0.02027 z m 1.531619,-0.339787 c 0.485697,-0.208834 1.050883,-0.710139 1.231991,-1.092741 0.200732,-0.424062 0.203264,-1.131137 0.0055,-1.538866 -0.274099,-0.565145 -0.726598,-0.944109 -1.62073,-1.357346 l -0.325014,-0.15022 v 2.186566 2.186566 l 0.1755,-0.04017 c 0.09652,-0.0221 0.336268,-0.109294 0.532761,-0.193783 z M 11.224683,6.4288476 V 4.072969 l -0.403608,6.588e-4 c -0.221983,3.564e-4 -0.512938,0.017132 -0.646566,0.037273 l -0.2429617,0.036624 0.01694,2.1229688 0.01694,2.122969 0.1614437,0.042987 c 0.08879,0.023644 0.36486,0.1106938 0.613482,0.1934343 0.248622,0.082748 0.459305,0.1514358 0.468184,0.1526467 0.0089,0.00122 0.01615,-1.0579438 0.01615,-2.3536777 z M 9.4165239,6.2227086 c 0,-2.1780523 0.040029,-2.0522223 -0.5539916,-1.7414769 C 8.3787625,4.7343033 7.9129084,5.2270085 7.7725255,5.6340645 7.5337467,6.3264327 7.7293625,6.9430095 8.3637291,7.4975217 8.6004502,7.7044444 9.2685506,8.1277474 9.368091,8.1338773 9.394729,8.1354973 9.416524,7.2754917 9.4165239,6.2227086 Z"
           style="fill:#222222;stroke-width:0.5;fill-opacity:1" />
      </g>
      <g
         id="g5361"
         transform="translate(83.343752)"
         style="stroke-width:0.5">
        <rect
           ry="1.984375"
           rx="1.984375"
           style="opacity:1;fill:#222222;fill-opacity:1;fill-rule:nonzero;stroke:none;stroke-width:0.25;stroke-linecap:butt;stroke-linejoin:round;stroke-miterlimit:4;stroke-dasharray:none;stroke-dashoffset:0;stroke-opacity:0.90944878;paint-order:normal"
           id="rect5349"
           width="26.458334"
           height="26.458334"
           x="0"
           y="-1.110223e-16" />
        <rect
           ry="1.3229166"
           rx="1.3229166"
           y="1.322917"
           x="1.322917"
           height="23.8125"
           width="23.8125"
           id="rect5351"
           style="opacity:1;fill:#8bc34a;fill-opacity:1;fill-rule:nonzero;stroke:none;stroke-width:0.25;stroke-linecap:butt;stroke-linejoin:round;stroke-miterlimit:4;stroke-dasharray:none;stroke-dashoffset:0;stroke-opacity:0.90944878;paint-order:normal" />
        <path
           inkscape:connector-curvature="0"
           id="path5388"
           d="m 2.9744483,20.16467 c 0.025851,-0.04195 0.2799786,-0.453145 0.5647298,-0.913775 l 0.51773,-0.837506 V 12.098099 5.7828098 L 3.4828278,4.8595693 C 3.1670832,4.3517869 2.9239716,3.9211046 2.9425786,3.9024972 c 0.018607,-0.018607 1.8128003,0.00888 3.9870949,0.061076 3.1404885,0.075395 4.7505815,0.075618 7.8313465,0.00109 2.132945,-0.051601 3.895648,-0.076254 3.917116,-0.054787 0.02147,0.021469 -0.222132,0.4647323 -0.541336,0.9850298 l -0.58037,0.9459927 v 6.2683563 6.268356 l 0.572012,0.919918 c 0.314608,0.505953 0.572014,0.925323 0.572014,0.931935 0,0.0066 -3.548927,0.0119 -7.886505,0.01174 -5.238088,-1.48e-4 -7.8707203,-0.02588 -7.8395027,-0.07655 z M 7.1071159,18.505831 C 7.1067982,18.495344 7.0199778,18.231574 6.9141313,17.919675 6.6602368,17.171537 6.567026,16.479939 6.6507551,15.965491 6.7972156,15.0656 7.1919159,14.59443 8.5914282,13.648828 c 1.2252303,-0.827847 1.3381533,-0.953697 1.3381533,-1.491357 0,-0.567258 -0.18976,-0.799234 -1.2573449,-1.537066 C 7.1818506,9.5903667 6.7698476,9.1040832 6.6520448,8.2359913 6.5809442,7.7120497 6.6782013,6.7951575 6.8703763,6.1777022 L 7.0153841,5.7117929 H 5.9556227 4.8958615 v 6.3302831 c 0,5.008398 0.019908,6.332237 0.095336,6.33963 0.096478,0.0094 1.5204493,0.106842 1.9067118,0.130399 0.1153558,0.007 0.2094986,0.0042 0.2092064,-0.0063 z m 9.2099501,-0.104057 0.40041,-0.04039 V 12.036589 5.7117929 h -1.075918 c -0.935185,0 -1.070052,0.01529 -1.031066,0.1168828 0.287462,0.7491104 0.390943,1.2733517 0.390943,1.9805002 0,0.6517236 -0.02576,0.8109467 -0.177022,1.0944074 -0.285103,0.5342567 -0.75634,0.9841316 -1.652659,1.5777377 -1.179178,0.780934 -1.488258,1.131877 -1.487711,1.689213 4.6e-4,0.466155 0.220321,0.716306 1.2303,1.399774 1.608558,1.08854 2.048731,1.645675 2.106725,2.666535 0.03274,0.576277 -0.106356,1.170528 -0.468139,2.000015 l -0.123857,0.283977 0.743793,-0.03933 c 0.409086,-0.02163 0.923977,-0.05751 1.144201,-0.07973 z M 14.305082,16.75165 c 0.153743,-0.573687 -0.07307,-1.177971 -0.625665,-1.666979 -0.325669,-0.288188 -2.238798,-1.593498 -2.335515,-1.593498 -0.07882,0 -0.03847,0.726269 0.06837,1.230293 0.181955,0.858443 0.653518,1.570538 1.252227,1.890956 0.254436,0.13617 0.941637,0.300437 1.279361,0.305813 0.264603,0.0042 0.322635,-0.02255 0.361234,-0.166585 z M 8.5598313,16.72459 c 0.7660262,-0.227486 1.2958632,-0.727431 1.5571147,-1.46927 0.136565,-0.387781 0.319992,-1.663567 0.249339,-1.734219 -0.06193,-0.06193 -1.2859282,0.709899 -1.9507477,1.230085 -0.7973779,0.623905 -1.1337782,1.211503 -1.0361029,1.809782 0.046303,0.283609 0.049716,0.286005 0.4074899,0.286005 0.1984379,0 0.5462464,-0.05507 0.772907,-0.122383 z M 12.73485,9.3374218 c 0.898335,-0.2186926 1.373941,-0.5776885 1.547752,-1.1682657 0.11651,-0.3958868 0.0188,-1.0327042 -0.283659,-1.8486937 L 13.801602,5.7880618 H 10.806668 7.8117368 L 7.6040094,6.3410083 C 7.3403727,7.0427798 7.2557493,8.081268 7.434324,8.4233774 7.7256184,8.9814346 8.3718345,9.3145411 9.4202185,9.4470519 10.185933,9.5438339 12.154398,9.4787229 12.73485,9.3374174 Z"
           style="fill:#222222;stroke-width:0.49999997;fill-opacity:1" />
        <path
           style="opacity:1;fill:#222222;fill-opacity:1;fill-rule:nonzero;stroke:none;stroke-width:0.25;stroke-linecap:butt;stroke-linejoin:round;stroke-miterlimit:4;stroke-dasharray:none;stroke-dashoffset:0;stroke-opacity:0.90944878;paint-order:normal"
           d="m 0.7276035,18.520835 v 4.167188 c 0,1.539081 1.2390438,2.778125 2.778125,2.778125 H 22.952604 c 1.539081,0 2.778125,-1.239044 2.778125,-2.778125 v -4.167188 z"
           id="path5355"
           inkscape:connector-curvature="0" />
        <text
           xml:space="preserve"
           style="font-style:normal;font-variant:normal;font-weight:500;font-stretch:normal;font-size:4.23333311px;line-height:4.23333311px;font-family:Montserrat;-inkscape-font-specification:'Montserrat Medium';text-align:center;letter-spacing:-0.26458332px;text-anchor:middle;opacity:1;fill:#eeeeee;fill-opacity:1;fill-rule:nonzero;stroke:none;stroke-width:0.25;stroke-linecap:butt;stroke-linejoin:round;stroke-miterlimit:4;stroke-dasharray:none;stroke-dashoffset:0;stroke-opacity:0.90944878;paint-order:normal;"
           x="13.045943"
           y="23.288628"
           id="text5359"><tspan
             sodipodi:role="line"
             id="tspan5357"
             x="12.913652"
             y="23.288628"
             style="font-style:normal;font-variant:normal;font-weight:500;font-stretch:normal;font-size:4.23333311px;font-family:Montserrat;-inkscape-font-specification:'Montserrat Medium';letter-spacing:-0.26458332px;fill:#eeeeee;stroke-width:0.25;fill-opacity:1;">TRADITION</tspan></text>
      </g>
      <g
         transform="translate(83.343752,27.781251)"
         id="g5375"
         style="stroke-width:0.5">
        <rect
           y="-1.110223e-16"
           x="0"
           height="26.458334"
           width="26.458334"
           id="rect5363"
           style="opacity:1;fill:#222222;fill-opacity:1;fill-rule:nonzero;stroke:none;stroke-width:0.25;stroke-linecap:butt;stroke-linejoin:round;stroke-miterlimit:4;stroke-dasharray:none;stroke-dashoffset:0;stroke-opacity:0.90944878;paint-order:normal"
           rx="1.984375"
           ry="1.984375" />
        <rect
           style="opacity:1;fill:#9c27b0;fill-opacity:1;fill-rule:nonzero;stroke:none;stroke-width:0.25;stroke-linecap:butt;stroke-linejoin:round;stroke-miterlimit:4;stroke-dasharray:none;stroke-dashoffset:0;stroke-opacity:0.90944878;paint-order:normal"
           id="rect5365"
           width="23.8125"
           height="23.8125"
           x="1.322917"
           y="1.322917"
           rx="1.3229166"
           ry="1.3229166" />
        <path
           id="text5407"
           d="m 10.804879,3.4467321 a 0.15871531,0.15871531 0 0 0 -0.136382,0.1146841 0.15871531,0.15871531 0 0 0 0,0.00252 C 10.140525,3.6384432 9.6416792,3.965285 9.1881282,4.6909495 8.7115532,5.4663873 8.3524323,6.579977 8.0772328,7.9666052 6.7809381,7.5183239 5.6533861,7.2662043 4.7408247,7.2822132 3.7816738,7.2991518 3.1147858,7.5444251 2.8147338,8.0695121 a 0.15871531,0.15871531 0 0 0 0,0.00253 C 2.7114104,8.2598824 2.6603742,8.4734102 2.6603742,8.7068424 c 0,0.4210159 0.1552856,0.8916088 0.4475822,1.4177576 0.4325522,0.800072 1.2077345,1.656709 2.2422503,2.565227 -1.0505355,0.923913 -1.835515,1.786695 -2.2682869,2.580106 a 0.15871531,0.15871531 0 0 0 0,0.002 c -0.2751035,0.525219 -0.4215456,0.985636 -0.4215456,1.389797 0,0.23355 0.051235,0.447071 0.1543596,0.634798 a 0.15871531,0.15871531 0 0 0 0,0.0025 c 0.291392,0.51696 0.943761,0.765711 1.8864159,0.799078 a 0.15871531,0.15871531 0 0 0 0.00252,0 c 0.9137959,0.02385 2.0535277,-0.233556 3.3717428,-0.696171 0.2741331,1.348491 0.6233467,2.453038 1.0867197,3.23598 a 0.15871531,0.15871531 0 0 0 0,0.002 c 0.500317,0.825527 1.0505898,1.281995 1.6589068,1.281995 0.601456,0 1.143394,-0.456502 1.635347,-1.281995 a 0.15871531,0.15871531 0 0 0 0,-0.002 c 0.463775,-0.783622 0.815602,-1.888301 1.089818,-3.238461 1.329834,0.457616 2.472598,0.71099 3.381042,0.686873 0.941434,-0.02479 1.593573,-0.269105 1.885797,-0.78482 v -0.0025 c 0.112868,-0.188987 0.168617,-0.409658 0.168617,-0.651537 0,-0.404148 -0.146131,-0.860011 -0.421545,-1.377461 a 0.15871531,0.15871531 0 0 0 0,-0.0025 c -0.442823,-0.797089 -1.23398,-1.657456 -2.293703,-2.579495 1.035751,-0.909437 1.822657,-1.768065 2.270146,-2.575146 h -0.0025 c 0.292427,-0.5180303 0.447581,-0.9804659 0.447581,-1.3941992 0,-0.2419357 -0.05577,-0.4625695 -0.168619,-0.6515355 C 18.512152,7.5425303 17.843709,7.2989275 16.877611,7.2822708 15.967425,7.2660519 14.83776,7.5183689 13.538724,7.964183 13.2636,6.5792764 12.907093,5.4657804 12.430927,4.6910059 11.93891,3.8904337 11.406296,3.446827 10.820996,3.446827 a 0.15871531,0.15871531 0 0 0 -0.01612,0 z m 0.01612,0.9373179 c 0.150341,0 0.307715,0.067598 0.482918,0.2318503 0.175202,0.1642516 0.359966,0.4245219 0.545528,0.7798595 0.346282,0.6549206 0.623917,1.637559 0.838751,2.8683679 C 12.063219,8.5044145 11.441451,8.7755104 10.823482,9.0818019 10.1896,8.7745053 9.5580522,8.5050791 8.9302472,8.2641277 9.1450812,7.0333188 9.4227172,6.0506804 9.7689982,5.3957598 9.9543492,5.040836 10.140769,4.7800283 10.319487,4.6159003 10.498204,4.4517709 10.66064,4.38405 10.821003,4.38405 Z M 4.7637673,8.1296051 c 0.0911,-0.00115 0.1872412,6.346e-4 0.2888825,0.00565 0.7474087,0.037804 1.7184191,0.2872155 2.8559695,0.7048491 C 7.8091824,9.5057349 7.7347419,10.1847 7.6885481,10.876545 7.1087668,11.268017 6.5593987,11.671897 6.038942,12.090331 5.1011119,11.31416 4.3963857,10.596689 3.988867,9.9627665 a 0.15871531,0.15871531 0 0 0 0,-0.00253 C 3.7681673,9.6213132 3.6336709,9.3292372 3.580961,9.0911211 3.5282498,8.8530027 3.5516668,8.6760009 3.6373786,8.5331928 a 0.15871531,0.15871531 0 0 0 0.00252,-0.00253 c 0.077723,-0.1367995 0.2165721,-0.2425416 0.4500609,-0.3136849 0.1751178,-0.053358 0.4005682,-0.083788 0.673853,-0.0874 z m 12.1033117,0 c 0.27339,0.00358 0.499447,0.033915 0.676332,0.0874 0.234475,0.070887 0.376969,0.1768772 0.458741,0.313679 0.08224,0.1423488 0.106741,0.319181 0.05208,0.5579284 -0.05467,0.2387484 -0.192044,0.5324907 -0.412866,0.8716061 a 0.15871531,0.15871531 0 0 0 0,0.00253 c -0.407388,0.6412594 -1.116485,1.3628534 -2.061855,2.1393474 -0.520806,-0.418729 -1.06877,-0.824565 -1.648986,-1.216282 -0.04645,-0.698312 -0.126237,-1.3800514 -0.23247,-2.0457355 1.137528,-0.4174882 2.114328,-0.6667861 2.877667,-0.7048491 h 0.002 c 0.10164,-0.00496 0.198374,-0.00669 0.289502,-0.00565 z m -4.035678,1.0433264 c 0.04584,0.3539495 0.08088,0.7148688 0.112198,1.0798995 -0.175573,-0.108229 -0.351341,-0.216193 -0.526931,-0.327937 a 0.15871531,0.15871531 0 0 0 -0.0069,-0.00427 C 12.214625,9.8121648 12.028243,9.7125709 11.840155,9.6112854 12.174114,9.458371 12.504862,9.3113246 12.831407,9.1730008 Z m -4.0418758,0.00935 c 0.326574,0.1336185 0.657179,0.2795376 0.991253,0.4314618 -0.186048,0.1011782 -0.370227,0.2010224 -0.559789,0.3093389 a 0.15871531,0.15871531 0 0 0 -0.0049,0.00196 c -0.182855,0.1129498 -0.361907,0.2210548 -0.541185,0.3304198 0.03138,-0.364238 0.06877,-0.7236537 0.114684,-1.0730809 z m 2.0060608,0.9373175 c 0.380181,0.198616 0.760401,0.400801 1.140652,0.613721 0.371731,0.21239 0.734257,0.434199 1.091678,0.660834 0.02131,0.42509 0.03285,0.856072 0.03285,1.295632 0,0.432446 -0.01154,0.86114 -0.03285,1.286333 -0.349844,0.226046 -0.713033,0.446287 -1.091678,0.658356 a 0.15871531,0.15871531 0 0 0 -0.0025,0.0025 c -0.371354,0.219764 -0.744002,0.424638 -1.115216,0.623009 -0.383491,-0.197657 -0.757492,-0.404235 -1.1195748,-0.62302 a 0.15871531,0.15871531 0 0 0 -0.0074,-0.0025 c -0.386186,-0.212008 -0.751044,-0.432481 -1.1010585,-0.658357 -0.014251,-0.425344 -0.021077,-0.853753 -0.021077,-1.286334 0,-0.43968 0.00695,-0.870323 0.021076,-1.295631 0.3576325,-0.22649 0.7242425,-0.448455 1.1034555,-0.660834 a 0.15871531,0.15871531 0 0 0 0.0025,0 c 0.3630898,-0.211751 0.7289838,-0.416062 1.0991248,-0.613701 z m 0.02542,1.485328 c -0.188874,0 -0.3708,0.04999 -0.538711,0.143202 -0.171397,0.08681 -0.3084208,0.221062 -0.4029468,0.391169 -0.09393,0.16904 -0.143202,0.354836 -0.143202,0.550488 0,0.188829 0.04989,0.373214 0.143202,0.541191 a 0.15871531,0.15871531 0 0 0 0.0025,0.0025 c 0.09539,0.162205 0.2318638,0.293164 0.4004678,0.38683 0.167961,0.09331 0.349881,0.142581 0.538712,0.142581 0.182147,0 0.360733,-0.04998 0.52755,-0.142581 0.168607,-0.09366 0.305067,-0.224631 0.400468,-0.38683 a 0.15871531,0.15871531 0 0 0 0.0025,-0.0025 c 0.0933,-0.167972 0.142582,-0.352359 0.142582,-0.541191 0,-0.195699 -0.04866,-0.381459 -0.142582,-0.550488 -0.09453,-0.170196 -0.231581,-0.304361 -0.402947,-0.391169 -0.166866,-0.09271 -0.345443,-0.143202 -0.527551,-0.143202 z m -3.1839118,0.440762 c -0.00372,0.214088 -0.00744,0.42643 -0.00744,0.644097 0,0.211732 0.00372,0.42303 0.00744,0.634798 -0.3033437,-0.208533 -0.599767,-0.419111 -0.8809054,-0.634798 0.2813243,-0.220605 0.5773205,-0.434325 0.8809054,-0.644097 z m 6.3467368,0 c 0.305228,0.210184 0.604168,0.422996 0.890825,0.644097 -0.286462,0.216167 -0.585836,0.425848 -0.890825,0.634798 0.0071,-0.211604 0.01673,-0.42321 0.01673,-0.634798 0,-0.217475 -0.0095,-0.430149 -0.01673,-0.644097 z M 6.0296423,13.2781 c 0.5275631,0.418627 1.0784643,0.823966 1.6589043,1.215663 0.046328,0.690981 0.1207678,1.369074 0.2200723,2.033955 -1.160654,0.425172 -2.144836,0.675309 -2.8913055,0.705469 C 4.61878,17.248937 4.3031245,17.217547 4.0731758,17.146397 3.8432258,17.075227 3.7056835,16.970535 3.6280732,16.837059 3.5506142,16.70381 3.5280247,16.531303 3.5809642,16.295868 3.6338912,16.060432 3.7639564,15.76801 3.9770937,15.4286 a 0.15871531,0.15871531 0 0 0 0.00252,-0.002 c 0.3832817,-0.631258 1.0899612,-1.357034 2.0500742,-2.148612 z m 9.5591617,0 c 0.96081,0.791844 1.672955,1.518278 2.064332,2.150501 a 0.15871531,0.15871531 0 0 0 0,0.0025 c 0.216985,0.339287 0.350189,0.630109 0.402948,0.864788 0.05275,0.234678 0.02916,0.40539 -0.05146,0.53871 a 0.15871531,0.15871531 0 0 0 0,0.0025 c -0.07762,0.13351 -0.217644,0.238174 -0.447582,0.309341 -0.229941,0.07116 -0.545612,0.102586 -0.944138,0.08679 -0.746585,-0.0301 -1.734583,-0.280105 -2.903084,-0.70547 0.09934,-0.664867 0.1745,-1.342932 0.220691,-2.033956 0.580438,-0.391713 1.13072,-0.797047 1.658285,-1.215663 z m -6.9139598,1.83434 c 0.179297,0.11221 0.356256,0.226872 0.546149,0.335376 0.183963,0.108171 0.37225,0.208311 0.559787,0.30934 -0.334633,0.153247 -0.66654,0.299067 -0.993731,0.437665 -0.04593,-0.354709 -0.08083,-0.716546 -0.112201,-1.082381 z m 4.2687668,0.0025 c -0.03133,0.365031 -0.06636,0.72595 -0.11221,1.079899 -0.326544,-0.138319 -0.657293,-0.284745 -0.991251,-0.437662 0.188098,-0.101294 0.374478,-0.200883 0.569706,-0.30934 a 0.15871531,0.15871531 0 0 0 0.002,-0.0025 c 0.182513,-0.107351 0.356337,-0.219479 0.531892,-0.330417 z m -2.148023,1.171648 c 0.628416,0.308237 1.259678,0.581275 1.895095,0.829452 -0.207335,1.202298 -0.481959,2.171875 -0.829453,2.844192 a 0.15871531,0.15871531 0 0 0 0,0.0025 c -0.181416,0.358889 -0.367022,0.621577 -0.543669,0.787298 -0.176647,0.165722 -0.336712,0.23433 -0.496555,0.23433 -0.164814,0 -0.330249,-0.07084 -0.510814,-0.23681 -0.180567,-0.165946 -0.3676438,-0.428443 -0.5529688,-0.78727 -0.347492,-0.672316 -0.622117,-1.641893 -0.829453,-2.84419 0.625889,-0.247397 1.2488838,-0.522441 1.8678178,-0.829454 z"
           style="font-style:normal;font-variant:normal;font-weight:bold;font-stretch:normal;font-size:4.23333311px;line-height:4.23333311px;font-family:Montserrat;-inkscape-font-specification:'Montserrat Bold';text-align:center;text-anchor:middle;opacity:1;fill:#222222;fill-opacity:1;fill-rule:nonzero;stroke:none;stroke-width:0.24999999;stroke-linecap:butt;stroke-linejoin:round;stroke-miterlimit:4;stroke-dasharray:none;stroke-dashoffset:0;stroke-opacity:0.90944878;paint-order:normal"
           inkscape:connector-curvature="0" />
        <path
           style="opacity:1;fill:#222222;fill-opacity:1;fill-rule:nonzero;stroke:none;stroke-width:0.24999997;stroke-linecap:butt;stroke-linejoin:round;stroke-miterlimit:4;stroke-dasharray:none;stroke-dashoffset:0;stroke-opacity:0.90944878;paint-order:normal"
           d="m 0.72760492,18.520836 v 4.167188 c 0,1.539081 1.23904398,2.778124 2.77812498,2.778124 H 22.952604 c 1.539081,0 2.778125,-1.239043 2.778125,-2.778124 v -4.167188 z"
           id="path5369"
           inkscape:connector-curvature="0" />
        <text
           id="text5373"
           y="23.288628"
           x="13.045943"
           style="font-style:normal;font-variant:normal;font-weight:500;font-stretch:normal;font-size:4.23333311px;line-height:4.23333311px;font-family:Montserrat;-inkscape-font-specification:'Montserrat Medium';text-align:center;letter-spacing:-0.26458332px;text-anchor:middle;opacity:1;fill:#eeeeee;fill-opacity:1;fill-rule:nonzero;stroke:none;stroke-width:0.25;stroke-linecap:butt;stroke-linejoin:round;stroke-miterlimit:4;stroke-dasharray:none;stroke-dashoffset:0;stroke-opacity:0.90944878;paint-order:normal;"
           xml:space="preserve"><tspan
             style="font-style:normal;font-variant:normal;font-weight:500;font-stretch:normal;font-size:4.23333311px;font-family:Montserrat;-inkscape-font-specification:'Montserrat Medium';letter-spacing:-0.26458332px;fill:#eeeeee;stroke-width:0.25;fill-opacity:1;"
             y="23.288628"
             x="12.913651"
             id="tspan5371"
             sodipodi:role="line">PROGRESS</tspan></text>
      </g>
      <text
         id="text5330-7"
         y="-2.6882584"
         x="13.045943"
         style="font-style:normal;font-variant:normal;font-weight:500;font-stretch:normal;font-size:4.23333311px;line-height:4.23333311px;font-family:Montserrat;-inkscape-font-specification:'Montserrat Medium';text-align:center;text-anchor:middle;opacity:1;fill:#222222;fill-opacity:1;fill-rule:nonzero;stroke:none;stroke-width:0.24999999;stroke-linecap:butt;stroke-linejoin:round;stroke-miterlimit:4;stroke-dasharray:none;stroke-dashoffset:0;stroke-opacity:0.90944878;paint-order:normal;"
         xml:space="preserve"><tspan
           style="font-style:normal;font-variant:normal;font-weight:500;font-stretch:normal;font-size:4.23333311px;font-family:Montserrat;-inkscape-font-specification:'Montserrat Medium';fill:#222222;stroke-width:0.24999999;fill-opacity:1;"
           y="-2.6882584"
           x="13.045943"
           id="tspan5328-5"
           sodipodi:role="line">ECONOMY</tspan></text>
      <text
         xml:space="preserve"
         style="font-style:normal;font-variant:normal;font-weight:500;font-stretch:normal;font-size:4.23333311px;line-height:4.23333311px;font-family:Montserrat;-inkscape-font-specification:'Montserrat Medium';text-align:center;text-anchor:middle;opacity:1;fill:#222222;fill-opacity:1;fill-rule:nonzero;stroke:none;stroke-width:0.24999999;stroke-linecap:butt;stroke-linejoin:round;stroke-miterlimit:4;stroke-dasharray:none;stroke-dashoffset:0;stroke-opacity:0.90944878;paint-order:normal"
         x="68.792595"
         y="-2.6882584"
         id="text5508"><tspan
           sodipodi:role="line"
           id="tspan5506"
           x="68.792595"
           y="-2.6882584"
           style="font-style:normal;font-variant:normal;font-weight:500;font-stretch:normal;font-size:4.23333311px;font-family:Montserrat;-inkscape-font-specification:'Montserrat Medium';fill:#222222;fill-opacity:1;stroke-width:0.24999999">STATE</tspan></text>
      <text
         id="text5512"
         y="-2.6882584"
         x="40.827194"
         style="font-style:normal;font-variant:normal;font-weight:500;font-stretch:normal;font-size:4.23333311px;line-height:4.23333311px;font-family:Montserrat;-inkscape-font-specification:'Montserrat Medium';text-align:center;text-anchor:middle;opacity:1;fill:#222222;fill-opacity:1;fill-rule:nonzero;stroke:none;stroke-width:0.24999999;stroke-linecap:butt;stroke-linejoin:round;stroke-miterlimit:4;stroke-dasharray:none;stroke-dashoffset:0;stroke-opacity:0.90944878;paint-order:normal;"
         xml:space="preserve"><tspan
           style="font-style:normal;font-variant:normal;font-weight:500;font-stretch:normal;font-size:4.23333311px;font-family:Montserrat;-inkscape-font-specification:'Montserrat Medium';fill:#222222;stroke-width:0.24999999;fill-opacity:1;"
           y="-2.6882584"
           x="40.827194"
           id="tspan5510"
           sodipodi:role="line">DIPLOMACY</tspan></text>
      <text
         id="text5516"
         y="-2.6882584"
         x="96.523048"
         style="font-style:normal;font-variant:normal;font-weight:500;font-stretch:normal;font-size:4.23333311px;line-height:4.23333311px;font-family:Montserrat;-inkscape-font-specification:'Montserrat Medium';text-align:center;text-anchor:middle;opacity:1;fill:#222222;fill-opacity:1;fill-rule:nonzero;stroke:none;stroke-width:0.24999999;stroke-linecap:butt;stroke-linejoin:round;stroke-miterlimit:4;stroke-dasharray:none;stroke-dashoffset:0;stroke-opacity:0.90944878;paint-order:normal;"
         xml:space="preserve"><tspan
           style="font-style:normal;font-variant:normal;font-weight:500;font-stretch:normal;font-size:4.23333311px;font-family:Montserrat;-inkscape-font-specification:'Montserrat Medium';fill:#222222;stroke-width:0.24999999;fill-opacity:1;"
           y="-2.6882584"
           x="96.523048"
           id="tspan5514"
           sodipodi:role="line">SOCIETY</tspan></text>
    </g>
  </g>
</svg>
