<?xml version="1.0" encoding="UTF-8" standalone="no"?>
<!-- Created with Inkscape (http://www.inkscape.org/) -->

<svg
   xmlns:dc="http://purl.org/dc/elements/1.1/"
   xmlns:cc="http://creativecommons.org/ns#"
   xmlns:rdf="http://www.w3.org/1999/02/22-rdf-syntax-ns#"
   xmlns:svg="http://www.w3.org/2000/svg"
   xmlns="http://www.w3.org/2000/svg"
   xmlns:sodipodi="http://sodipodi.sourceforge.net/DTD/sodipodi-0.dtd"
   xmlns:inkscape="http://www.inkscape.org/namespaces/inkscape"
   width="200"
   height="200"
   viewBox="0 0 52.916668 52.916666"
   version="1.1"
   id="svg8"
   inkscape:version="0.92.1 r15371"
   sodipodi:docname="authority.svg">
  <defs
     id="defs2">
    <inkscape:path-effect
       effect="envelope"
       id="path-effect4658"
       is_visible="true"
       yy="true"
       xx="true"
       bendpath1="m -199.08406,108.42369 h 7.0057"
       bendpath2="m -192.07836,108.42369 v 6.75242"
       bendpath3="m -199.08406,115.17611 h 7.0057"
       bendpath4="m -199.08406,108.42369 v 6.75242" />
    <inkscape:path-effect
       effect="bend_path"
       id="path-effect4656"
       is_visible="true"
       bendpath="m -192.00142,114.60623 c 2.12577,-0.53066 4.48261,0.85111 7.0057,0"
       prop_scale="1"
       scale_y_rel="false"
       vertical="false"
       bendpath-nodetypes="cc" />
    <inkscape:path-effect
       effect="bounding_box"
       id="path-effect4654"
       is_visible="true"
       linkedpath=""
       visualbounds="false" />
  </defs>
  <sodipodi:namedview
     id="base"
     pagecolor="#ffffff"
     bordercolor="#666666"
     borderopacity="1.0"
     inkscape:pageopacity="0.0"
     inkscape:pageshadow="2"
     inkscape:zoom="2"
     inkscape:cx="243.37431"
     inkscape:cy="61.162565"
     inkscape:document-units="px"
     inkscape:current-layer="g5175"
     showgrid="false"
     fit-margin-top="0"
     fit-margin-left="0"
     fit-margin-right="0"
     fit-margin-bottom="0"
     inkscape:window-width="1920"
     inkscape:window-height="1017"
     inkscape:window-x="1432"
     inkscape:window-y="32"
     inkscape:window-maximized="1"
     showguides="false"
     inkscape:object-nodes="true"
     units="px"
     inkscape:snap-page="true" />
  <metadata
     id="metadata5">
    <rdf:RDF>
      <cc:Work
         rdf:about="">
        <dc:format>image/svg+xml</dc:format>
        <dc:type
           rdf:resource="http://purl.org/dc/dcmitype/StillImage" />
        <dc:title />
      </cc:Work>
    </rdf:RDF>
  </metadata>
  <g
     inkscape:label="Layer 1"
     inkscape:groupmode="layer"
     id="layer1"
     transform="translate(98.048812,-95.14345)">
    <g
       style="stroke-width:0.5"
       transform="matrix(2,0,0,2,-98.048812,95.143449)"
       id="g5175">
      <rect
         y="-1.110223e-16"
         x="0"
         height="26.458334"
         width="26.458334"
         id="rect5163"
         style="opacity:1;fill:#222222;fill-opacity:1;fill-rule:nonzero;stroke:none;stroke-width:0.25;stroke-linecap:butt;stroke-linejoin:round;stroke-miterlimit:4;stroke-dasharray:none;stroke-dashoffset:0;stroke-opacity:0.90944878;paint-order:normal"
         rx="1.984375"
         ry="1.984375" />
      <rect
         style="opacity:1;fill:#3f51b5;fill-opacity:1;fill-rule:nonzero;stroke:none;stroke-width:0.25;stroke-linecap:butt;stroke-linejoin:round;stroke-miterlimit:4;stroke-dasharray:none;stroke-dashoffset:0;stroke-opacity:0.90944878;paint-order:normal"
         id="rect5165"
         width="23.8125"
         height="23.8125"
         x="1.322917"
         y="1.322917"
         rx="1.3229166"
         ry="1.3229166" />
      <path
         inkscape:connector-curvature="0"
         style="fill:#222222;fill-opacity:1;stroke:none;stroke-width:0.05;stroke-opacity:1"
         d="m 17.238857,5.2588694 c -0.178148,-0.056563 -0.382718,-0.058283 -0.571036,0.00251 -0.250061,0.080726 -0.284007,0.1322477 -0.423722,0.6404907 -0.06396,0.2326784 -0.137295,0.4911462 -0.162991,0.5742231 -0.02581,0.08305 -0.06137,0.2093727 -0.07909,0.2807222 -0.01753,0.071404 -0.05596,0.2124873 -0.08523,0.3136783 -0.0916,0.3162143 -0.199576,0.7067435 -0.202389,0.732877 -0.0015,0.013755 -0.02868,0.1134585 -0.06023,0.2218919 -0.03153,0.1084449 -0.07666,0.2732534 -0.100396,0.3662718 -0.02375,0.093027 -0.09584,0.3661029 -0.160261,0.6065157 -0.06428,0.240454 -0.115657,0.442464 -0.113858,0.448978 0.0017,0.0065 -0.01123,0.05796 -0.02871,0.114368 -0.03713,0.119334 -0.19567,0.7671269 -0.29291,1.1953319 -0.05833,0.256549 -0.07981,0.498502 -0.06406,0.72013 0.0095,0.13478 0.09056,0.31983 0.188236,0.429923 0.08331,0.0939 0.120451,0.115587 0.240302,0.141958 0.128826,0.02834 0.157735,0.02575 0.320472,-0.02668 0.142056,-0.04583 0.202459,-0.0787 0.292949,-0.159537 0.177002,-0.158045 0.190611,-0.191751 0.430338,-1.071054 0.103918,-0.381412 0.20538,-0.754458 0.220216,-0.8102299 0.0058,-0.02152 0.03765,-0.133279 0.07104,-0.248279 0.03329,-0.115018 0.06169,-0.221 0.06303,-0.235213 0.0013,-0.01434 0.03455,-0.138148 0.07376,-0.275303 0.03922,-0.137157 0.103591,-0.366971 0.14288,-0.5107899 0.03932,-0.1438107 0.104505,-0.3751894 0.144933,-0.51404 0.04043,-0.1388494 0.07195,-0.2576756 0.07009,-0.2645007 -0.0019,-0.00685 0.02684,-0.1169859 0.06369,-0.2449213 0.152929,-0.5289744 0.449601,-1.6117632 0.479246,-1.7488514 0.01613,-0.075041 0.01069,-0.1459226 -0.02036,-0.26174 C 17.636616,5.5350845 17.621166,5.5087278 17.521824,5.418348 17.443024,5.346625 17.345576,5.2927874 17.238689,5.2588336 Z M 7.3271277,2.6189965 C 7.1683467,2.5683529 6.9860091,2.5618534 6.8062164,2.607554 6.6648194,2.6434865 6.6216188,2.6646642 6.5503572,2.7336832 6.4740782,2.8075622 6.4480679,2.8737749 6.314576,3.3298497 6.2319353,3.6118919 6.1573372,3.8771104 6.1489745,3.9193439 6.1406021,3.9615725 6.1080094,4.07936 6.0761533,4.1812129 6.0442961,4.2830658 6.0140387,4.3916233 6.0093525,4.4222595 6.004673,4.4528966 5.9861584,4.5252979 5.9680782,4.5834469 5.9359968,4.6867077 5.7987573,5.1873435 5.65174,5.7371405 5.6114021,5.8879136 5.5476163,6.1221017 5.5104062,6.2574703 5.4731665,6.3928286 5.431859,6.5511135 5.4183606,6.609248 5.4049873,6.6674145 5.3579137,6.8557249 5.3134831,7.027552 5.0224882,8.1547327 4.953726,8.5260907 4.9816672,8.8193336 c 0.015471,0.162442 0.025698,0.20089 0.086304,0.319335 0.077184,0.150774 0.203451,0.24483 0.3737905,0.278111 0.1224454,0.02398 0.1632286,0.02106 0.2925924,-0.02198 0.2691133,-0.08953 0.5077213,-0.354915 0.5547397,-0.6171714 0.010004,-0.056024 0.044954,-0.190827 0.078072,-0.2996258 0.03299,-0.1088474 0.067131,-0.232417 0.075832,-0.2747486 0.0087,-0.042336 0.041721,-0.1656106 0.073025,-0.2739842 C 6.5472783,7.8208843 6.6104365,7.5966759 6.6564176,7.4311244 6.7023971,7.2655708 6.7663091,7.0358339 6.7985312,6.9205117 6.830789,6.805202 6.8772413,6.6344584 6.90176,6.54131 6.9508222,6.3538308 6.9625455,6.3108236 7.0741505,5.91333 7.11677,5.761973 7.162662,5.5917803 7.1759457,5.5348831 7.1892737,5.4780001 7.2231527,5.355796 7.2517437,5.263546 7.2801507,5.171266 7.3025487,5.0915114 7.3011587,5.0862817 7.2997687,5.0810417 7.3310587,4.9620541 7.3708867,4.821683 7.4107053,4.6813207 7.4754906,4.4488501 7.5146147,4.3050401 7.5537341,4.1612242 7.6129614,3.9479072 7.6461611,3.8311387 7.810471,3.2536077 7.8221965,3.0706214 7.706639,2.8944532 7.6212126,2.7642352 7.4859833,2.6696135 7.3271921,2.6190084 Z M 9.0267613,3.38127 8.9883722,3.5173844 C 8.8595743,3.9761017 8.7916709,4.2273136 8.7938089,4.2352463 c 0.00135,0.00505 -0.034921,0.1407497 -0.080071,0.30175 -0.089068,0.3169948 -0.1704237,0.6151386 -0.2797642,1.0243265 -0.038332,0.1435885 -0.096557,0.3552787 -0.1292211,0.4707183 -0.032687,0.1154312 -0.076379,0.2799352 -0.096724,0.3653551 -0.020239,0.085448 -0.047336,0.1854621 -0.060328,0.2222483 -0.012947,0.03678 -0.048801,0.1662056 -0.07976,0.287766 -0.030827,0.1216132 -0.070209,0.2685994 -0.087093,0.326488 -0.063519,0.2167358 -0.1892376,0.6777072 -0.1870991,0.6856399 0.00126,0.0046 -0.031644,0.1263399 -0.072895,0.2705938 -0.041301,0.1442532 -0.074134,0.2673315 -0.072471,0.2733706 0.00162,0.00604 -0.012821,0.061025 -0.032068,0.1225886 C 7.5828715,8.692772 7.4494891,9.1779286 7.3773032,9.4555486 l -9.81e-5,3.64e-4 c -0.018611,0.07164 -0.027287,0.144124 -0.01955,0.160931 0.00772,0.0168 0.1143243,0.05753 0.236531,0.09075 0.1222433,0.03315 0.3337317,0.09104 0.4703059,0.127929 0.1365489,0.03698 0.3742089,0.102921 0.5280682,0.1465 0.1538573,0.04358 0.2846623,0.0779 0.2910383,0.07607 0.00632,-0.0017 0.1044202,0.02429 0.2176696,0.05755 0.1672514,0.04923 0.4331745,0.122245 0.7671155,0.210843 0.3202134,0.08483 0.5882334,0.157567 0.8272654,0.224759 0.16065,0.04512 0.29623,0.08114 0.301493,0.07961 0.0053,-0.0016 0.134328,0.0323 0.286426,0.07483 0.152102,0.04251 0.316175,0.08781 0.364642,0.100801 0.04847,0.01299 0.217487,0.05886 0.375653,0.102272 0.158235,0.04319 0.379877,0.102181 0.492265,0.131125 0.112444,0.02878 0.278528,0.0756 0.369486,0.104009 0.09099,0.02836 0.171226,0.05029 0.177901,0.04845 0.0067,-0.0019 0.09145,0.01949 0.188339,0.04781 0.09689,0.02831 0.178334,0.04781 0.180948,0.04274 0.0062,-0.0118 0.120135,-0.43031 0.176562,-0.648917 0.02397,-0.09309 0.06753,-0.250568 0.09683,-0.349737 0.02926,-0.09918 0.05173,-0.185437 0.04983,-0.19198 -0.0018,-0.0065 0.02451,-0.1078732 0.05807,-0.2251402 0.06455,-0.226069 0.186418,-0.670471 0.302148,-1.1019799 0.03847,-0.1436154 0.09661,-0.3553525 0.129242,-0.4707135 0.03252,-0.1153904 0.07555,-0.2797734 0.09592,-0.3651902 0.02022,-0.085467 0.04773,-0.1853584 0.0607,-0.2221456 0.01297,-0.036772 0.04892,-0.1665509 0.07988,-0.2881151 0.03086,-0.1216002 0.06966,-0.2683687 0.08664,-0.3262309 0.06832,-0.232924 0.189641,-0.6780907 0.187228,-0.6871255 -0.0013,-0.00522 0.03461,-0.1411847 0.0797,-0.301851 0.0453,-0.1606107 0.108599,-0.3864491 0.140907,-0.5018077 0.08508,-0.3026978 0.147652,-0.561871 0.136396,-0.56576 -0.06436,-0.021949 -0.552312,-0.1590284 -0.559449,-0.1571107 -0.0054,0.00135 -0.125186,-0.03001 -0.266484,-0.069782 C 14.14563,4.7695501 13.901015,4.7025336 13.743126,4.660518 13.585214,4.6185949 13.351385,4.5536389 13.223463,4.5167094 13.095539,4.4797805 12.986511,4.4510056 12.980956,4.45251 12.975456,4.45397 12.852627,4.421218 12.708394,4.379866 12.564143,4.338561 12.440973,4.306298 12.43446,4.308087 12.42816,4.309767 12.36103,4.291353 12.285296,4.26734 12.209516,4.243498 12.083216,4.208339 12.004732,4.189071 11.926242,4.169803 11.761902,4.125917 11.639476,4.09198 11.517058,4.0580073 11.29939,3.9986417 11.155764,3.9601568 10.759675,3.8538796 10.454301,3.7708363 10.136223,3.682407 9.9777672,3.6383268 9.8368373,3.6008223 9.8231201,3.5992893 9.8012159,3.5969527 9.5563114,3.530591 9.1506664,3.4168941 Z m 6.9353077,2.1370289 c -0.0595,-0.018596 -0.201086,-0.056094 -0.314975,-0.083227 -0.113892,-0.027132 -0.221492,-0.055224 -0.238813,-0.062368 -0.02171,-0.0092 -0.04892,0.055972 -0.08839,0.212069 -0.08986,0.3546429 -0.101567,0.3983127 -0.176208,0.667642 -0.03881,0.1395815 -0.06885,0.2583979 -0.06733,0.2641013 0.0016,0.00571 -0.03091,0.1297728 -0.07186,0.2754319 -0.04096,0.1456546 -0.07304,0.2696744 -0.07157,0.2755127 0.0028,0.010455 -0.02878,0.1286645 -0.197838,0.7397993 -0.04529,0.1630428 -0.08088,0.3003965 -0.07955,0.3053131 0.0025,0.00886 -0.138573,0.5448209 -0.215888,0.8201361 -0.02223,0.07929 -0.05441,0.202465 -0.0714,0.273659 -0.02897,0.121357 -0.388102,1.4912697 -0.451066,1.7202807 l 3.63e-4,9.6e-5 c -0.01581,0.05754 -0.0273,0.112703 -0.02522,0.122531 0.004,0.01863 0.0773,0.04106 0.457283,0.139644 0.126922,0.03303 0.232258,0.05606 0.233717,0.05158 0.01017,-0.02935 0.124376,-0.476212 0.15137,-0.591786 0.01795,-0.07741 0.06224,-0.247511 0.09814,-0.377902 0.08245,-0.2988877 0.301444,-1.1334257 0.342446,-1.3048787 0.01703,-0.07119 0.05448,-0.209706 0.08362,-0.3076479 0.02904,-0.097975 0.05119,-0.1838496 0.04924,-0.1909958 -0.002,-0.00723 0.03077,-0.1292776 0.07273,-0.271402 0.04194,-0.142102 0.07457,-0.2650677 0.07237,-0.2730123 -0.0022,-0.00791 0.03013,-0.1320612 0.07136,-0.2763302 0.04134,-0.1442422 0.07381,-0.2666339 0.07246,-0.2718523 -0.0013,-0.00522 0.01501,-0.072021 0.03665,-0.1483656 0.02164,-0.076365 0.07023,-0.2560659 0.107402,-0.3993776 0.03722,-0.1433043 0.104416,-0.4013095 0.149526,-0.5732684 0.04491,-0.1720131 0.10381,-0.4002571 0.130847,-0.5071692 l 0.049,-0.194486 z M 8.1267068,3.4522849 C 8.0339205,3.4303661 8.011573,3.4323242 8.0015382,3.4624682 7.958725,3.5909354 7.7193654,4.477111 7.7234162,4.4921767 7.7247742,4.4975376 7.6993732,4.5994628 7.6666204,4.7184126 7.6337842,4.8373354 7.5742898,5.0579052 7.5345201,5.2085136 7.49475,5.3591201 7.4306004,5.5999758 7.3918939,5.7437052 7.3530063,5.8873839 7.3142498,6.0395286 7.305434,6.0817701 7.2967537,6.1240522 7.264358,6.2471449 7.2333289,6.3552389 7.202306,6.4633319 7.1659313,6.5985115 7.1524488,6.655633 7.1243033,6.7749459 7.0194023,7.1741337 6.8165573,7.9333688 6.7820448,8.0625907 6.7124364,8.3323737 6.6617301,8.5325964 6.6110254,8.7328259 6.5556771,8.9382926 6.5389274,8.9894456 c -0.016793,0.05113 -0.02837,0.103685 -0.025856,0.116274 0.00266,0.01263 0.055875,0.03444 0.11811,0.04877 0.062247,0.01433 0.2114906,0.05329 0.3319111,0.08672 0.1204754,0.03325 0.2246972,0.05923 0.2313882,0.05744 0.011404,-0.003 0.1091697,-0.356894 0.1846363,-0.6676664 0.017334,-0.071275 0.06717,-0.2644295 0.1112665,-0.4295219 0.04405,-0.1650985 0.1060083,-0.3978017 0.1373167,-0.5168426 0.031312,-0.119039 0.086128,-0.3221662 0.1213756,-0.4515282 0.035249,-0.1293609 0.062783,-0.2394007 0.061458,-0.2447591 -0.00149,-0.00541 0.031047,-0.128486 0.072105,-0.2734689 0.041191,-0.1449413 0.073336,-0.2693243 0.071387,-0.2763217 -0.00195,-0.007 0.030816,-0.1292684 0.072723,-0.2714008 0.041903,-0.1421241 0.074461,-0.2652697 0.0722,-0.273823 -0.00227,-0.00856 0.027223,-0.1219157 0.065614,-0.2520103 0.0384,-0.1301071 0.06839,-0.2420458 0.066636,-0.248696 -0.00176,-0.00665 0.016059,-0.078637 0.039801,-0.1600692 C 8.294727,5.1511255 8.3464966,4.9584605 8.3861027,4.8044236 8.4256159,4.650371 8.4913869,4.3983131 8.5320706,4.2442725 8.6919341,3.6383136 8.6964511,3.6154062 8.6636958,3.601183 8.624045,3.5840794 8.2769944,3.4877068 8.1267575,3.4523059 Z m 1.3332933,7.1062121 -0.00892,0.0288 c -0.039297,0.127037 -0.077508,0.261204 -0.07643,0.270027 0.00138,0.01196 -0.046221,0.173107 -0.09195,0.311879 -0.016595,0.05034 -0.027931,0.09382 -0.02522,0.09704 0.00268,0.0032 -0.00955,0.05195 -0.026702,0.108064 -0.017376,0.05605 -0.044614,0.148841 -0.060619,0.206579 -0.016049,0.05771 -0.040698,0.142653 -0.054663,0.188784 -0.013976,0.04613 -0.029817,0.102852 -0.034947,0.126 -0.00519,0.02313 -0.020869,0.08225 -0.035169,0.131264 -0.01432,0.04902 -0.03864,0.133779 -0.053964,0.188587 -0.015285,0.05483 -0.042428,0.149547 -0.060173,0.210125 -0.01784,0.06053 -0.044838,0.157305 -0.060298,0.21503 -0.029957,0.111792 -0.086276,0.309162 -0.1224037,0.429958 -0.0122,0.04033 -0.035481,0.125207 -0.052175,0.188691 -0.016633,0.06351 -0.045602,0.167282 -0.064085,0.230748 -0.071678,0.245453 -0.083256,0.286649 -0.1111145,0.39344 -0.033056,0.127003 -0.038457,0.147171 -0.073214,0.264805 -0.014162,0.04764 -0.038366,0.131558 -0.0538,0.186353 -0.058752,0.208854 -0.076483,0.270617 -0.1028235,0.356876 -0.014992,0.04875 -0.025034,0.09196 -0.022572,0.09586 0.00247,0.004 0.090647,0.03117 0.1959755,0.06046 0.2587011,0.07211 0.6948935,0.190922 0.8096886,0.220822 0.051438,0.01339 0.2417922,0.06421 0.4227286,0.11249 0.1809295,0.04834 0.3329879,0.08761 0.3380629,0.08789 0.0086,3.89e-4 0.02832,-0.06287 0.09578,-0.303626 0.01527,-0.05483 0.04168,-0.14473 0.05871,-0.199486 0.01704,-0.05475 0.03064,-0.104314 0.02993,-0.110233 -6.83e-4,-0.0059 0.01266,-0.05765 0.0293,-0.115357 0.01684,-0.05764 0.06638,-0.230895 0.06638,-0.230895 0.01973,-0.06922 0.04697,-0.159283 0.06081,-0.200066 0.01372,-0.04081 0.02295,-0.07642 0.02046,-0.07932 -0.0039,-0.0046 0.03799,-0.158188 0.07574,-0.276674 0.0072,-0.0231 0.02143,-0.06997 0.03113,-0.104592 0.0096,-0.03464 0.02879,-0.103023 0.04269,-0.152074 0.01391,-0.04903 0.03764,-0.134061 0.05287,-0.18888 0.01527,-0.0548 0.04429,-0.158866 0.06458,-0.230998 0.0203,-0.07213 0.04937,-0.175825 0.06449,-0.230639 0.01507,-0.05483 0.03793,-0.132734 0.05088,-0.173066 0.01305,-0.04031 0.02863,-0.09646 0.03495,-0.124474 0.0061,-0.02806 0.01912,-0.0728 0.02862,-0.09956 0.0094,-0.02679 0.02055,-0.06749 0.02507,-0.09064 0.01087,-0.05582 0.05741,-0.219467 0.09495,-0.333126 0.0166,-0.05034 0.02796,-0.09397 0.02559,-0.09695 -0.0025,-0.003 0.0063,-0.03716 0.01963,-0.07611 0.01334,-0.03896 0.04406,-0.14642 0.06807,-0.238807 0.02399,-0.09241 0.05473,-0.199821 0.06807,-0.238806 0.01334,-0.03899 0.02226,-0.07306 0.01961,-0.07611 -0.0025,-0.003 0.009,-0.04211 0.0255,-0.08671 0.01637,-0.04462 0.0322,-0.100922 0.03547,-0.125111 l 0.0061,-0.044 -0.07456,-0.02264 c -0.04092,-0.01233 -0.144158,-0.04053 -0.229584,-0.06268 -0.08542,-0.02209 -0.255529,-0.06788 -0.378176,-0.101325 -0.504667,-0.13742 -0.7260873,-0.197038 -0.8116698,-0.219089 -0.049655,-0.01291 -0.1320316,-0.03577 -0.1832946,-0.05102 z m 0.9191529,5.043068 c -0.161123,-0.04156 -0.3903018,-0.1019 -0.5093059,-0.134213 -0.1190153,-0.03227 -0.2219067,-0.05699 -0.2285593,-0.05522 -0.00683,0.0018 -0.093205,-0.01907 -0.1921843,-0.04623 C 9.229241,15.305805 8.7021833,15.170054 8.5257237,15.128034 8.13128,15.034113 7.7177514,14.927747 7.693982,14.9143 7.679042,14.9058 7.659688,14.90082 7.650963,14.90315 c -0.014755,0.0039 -0.090426,0.257128 -0.102385,0.342545 -0.00292,0.02078 -0.044234,0.184325 -0.091611,0.363302 l -0.085984,0.325265 0.06229,0.02582 c 0.034123,0.0143 0.069644,0.02414 0.078921,0.02192 0.00927,-0.0023 0.1546347,0.03187 0.3231201,0.07554 0.5657468,0.146757 0.6434309,0.166713 0.9824708,0.251481 0.443073,0.11088 0.4185285,0.104302 0.5986338,0.152776 0.086169,0.02324 0.2140964,0.05382 0.2844943,0.06785 0.070393,0.01403 0.1583521,0.03609 0.1951933,0.04919 0.074065,0.02629 0.5099677,0.130953 0.5269977,0.126375 0.0059,-0.0017 0.03113,-0.08772 0.05623,-0.191023 0.02489,-0.103344 0.08085,-0.325781 0.124128,-0.49452 0.04329,-0.168743 0.07633,-0.314923 0.07376,-0.324733 -0.0026,-0.0098 -0.136651,-0.05193 -0.297784,-0.09348 z m -2.2908966,0.760357 c -0.1545663,-0.042 -0.2921256,-0.07001 -0.3053429,-0.06241 -0.021765,0.01256 -0.059189,0.141812 -0.1745628,0.600402 -0.038659,0.153617 -0.072433,0.280743 -0.2211345,0.83242 -0.041806,0.154568 -0.091139,0.341585 -0.1098035,0.415845 -0.065409,0.258379 -0.127929,0.490064 -0.1866926,0.690693 -0.032416,0.111075 -0.057143,0.20669 -0.054967,0.212276 0.00213,0.0056 -0.021363,0.09565 -0.052427,0.200029 -0.031061,0.104375 -0.054831,0.194212 -0.052965,0.199125 0.00192,0.0049 -0.024357,0.101896 -0.058161,0.215605 -0.033847,0.113693 -0.059679,0.21174 -0.057276,0.218123 0.00231,0.0062 -0.021699,0.09526 -0.05331,0.197511 -0.031532,0.102266 -0.058256,0.20258 -0.059431,0.22325 -0.00128,0.02065 -0.018045,0.08545 -0.036987,0.144086 -0.019224,0.05855 -0.04779,0.161883 -0.063384,0.229418 l 2.0821149,0.581496 c 0.035575,-0.137163 0.2762487,-0.974749 0.3083137,-1.08711 0.032048,-0.112364 0.056884,-0.207878 0.055048,-0.212639 -0.00168,-0.0046 0.01851,-0.08591 0.044984,-0.180727 0.1180653,-0.421385 0.1779214,-0.646373 0.1746616,-0.654751 -0.00187,-0.0049 0.024537,-0.101592 0.05871,-0.214697 0.034166,-0.113081 0.060535,-0.209879 0.05843,-0.215152 -0.00206,-0.0052 0.025868,-0.115789 0.061989,-0.245761 0.1344961,-0.482702 0.1609046,-0.581261 0.1578957,-0.589275 -0.00168,-0.0046 0.024474,-0.101348 0.058161,-0.215606 0.033733,-0.114254 0.059602,-0.21203 0.057454,-0.217316 -0.00206,-0.0052 0.01603,-0.07426 0.039871,-0.153199 0.054677,-0.180793 0.115649,-0.428699 0.1059947,-0.432457 -0.013178,-0.0052 -0.4485907,-0.123637 -0.739277,-0.201204 -0.645737,-0.172051 -0.7686802,-0.205191 -1.03771,-0.278054 z"
         id="path4728"
         sodipodi:nodetypes="ccccccccccccccccccccccccccccccccccccccccccccccccccccscccccccccccccccccccccccccccccccccccccccccccccccccccccccccccccccccccccccccccccccccccccccccccccccccccccccccccccccccccccccccccccscccccccccccccccccccccccccccccccccccccccccccccccccccccccccccccccccccccccccccccccccccccccccccccccccccccccccccccccccccccccccccc" />
      <path
         style="opacity:1;fill:#222222;fill-opacity:1;fill-rule:nonzero;stroke:none;stroke-width:0.24999997;stroke-linecap:butt;stroke-linejoin:round;stroke-miterlimit:4;stroke-dasharray:none;stroke-dashoffset:0;stroke-opacity:0.90944878;paint-order:normal"
         d="m 0.72760492,18.520836 v 4.167188 c 0,1.539081 1.23904398,2.778124 2.77812498,2.778124 H 22.952604 c 1.539081,0 2.778125,-1.239043 2.778125,-2.778124 v -4.167188 z"
         id="rect5205-3-6"
         inkscape:connector-curvature="0" />
    </g>
    <text
       xml:space="preserve"
       style="font-style:normal;font-variant:normal;font-weight:500;font-stretch:normal;font-size:8.46666622px;line-height:4.23333311px;font-family:Montserrat;-inkscape-font-specification:'Montserrat Medium';text-align:center;text-anchor:middle;opacity:1;fill:#eeeeee;fill-opacity:1;fill-rule:nonzero;stroke:none;stroke-width:4.23333311;stroke-linecap:butt;stroke-linejoin:round;stroke-miterlimit:4;stroke-dasharray:none;stroke-dashoffset:0;stroke-opacity:1;paint-order:stroke fill markers"
       x="-355.53735"
       y="24.113144"
       id="text4627-36-3"><tspan
         sodipodi:role="line"
         id="tspan4625-0-6"
         x="-355.53735"
         y="24.113144"
         style="font-style:normal;font-variant:normal;font-weight:500;font-stretch:normal;font-size:8.46666622px;font-family:Montserrat;-inkscape-font-specification:'Montserrat Medium';text-align:center;text-anchor:middle;fill:#eeeeee;fill-opacity:1;stroke-width:4.23333311">ORD</tspan></text>
  </g>
</svg>
