<?xml version="1.0" encoding="UTF-8" standalone="no"?>
<!-- Created with Inkscape (http://www.inkscape.org/) -->

<svg
   xmlns:dc="http://purl.org/dc/elements/1.1/"
   xmlns:cc="http://creativecommons.org/ns#"
   xmlns:rdf="http://www.w3.org/1999/02/22-rdf-syntax-ns#"
   xmlns:svg="http://www.w3.org/2000/svg"
   xmlns="http://www.w3.org/2000/svg"
   xmlns:sodipodi="http://sodipodi.sourceforge.net/DTD/sodipodi-0.dtd"
   xmlns:inkscape="http://www.inkscape.org/namespaces/inkscape"
   width="200"
   height="200"
   viewBox="0 0 52.916667 52.916669"
   version="1.1"
   id="svg8"
   inkscape:version="0.92.1 r15371"
   sodipodi:docname="equality.svg">
  <defs
     id="defs2" />
  <sodipodi:namedview
     id="base"
     pagecolor="#c0c0c0"
     bordercolor="#666666"
     borderopacity="1.0"
     inkscape:pageopacity="0"
     inkscape:pageshadow="2"
     inkscape:zoom="1"
     inkscape:cx="309.20128"
     inkscape:cy="34.620504"
     inkscape:document-units="px"
     inkscape:current-layer="g5584"
     showgrid="false"
     units="px"
     inkscape:snap-page="true"
     inkscape:window-width="1920"
     inkscape:window-height="1016"
     inkscape:window-x="0"
     inkscape:window-y="27"
     inkscape:window-maximized="1"
     inkscape:object-paths="false"
     inkscape:object-nodes="true"
     fit-margin-top="0"
     fit-margin-left="0"
     fit-margin-right="0"
     fit-margin-bottom="0"
     showguides="false" />
  <metadata
     id="metadata5">
    <rdf:RDF>
      <cc:Work
         rdf:about="">
        <dc:format>image/svg+xml</dc:format>
        <dc:type
           rdf:resource="http://purl.org/dc/dcmitype/StillImage" />
        <dc:title></dc:title>
      </cc:Work>
    </rdf:RDF>
  </metadata>
  <g
     inkscape:label="Layer 1"
     inkscape:groupmode="layer"
     id="layer1"
     transform="translate(-5.2916647,48.54143)">
    <g
       id="g5584"
       transform="matrix(2,0,0,2,5.2916647,-48.54143)"
       style="stroke-width:0.5">
      <g
         id="g4561"
         style="stroke-width:0.5">
        <rect
           ry="1.984375"
           rx="1.984375"
           style="opacity:1;fill:#222222;fill-opacity:1;fill-rule:nonzero;stroke:none;stroke-width:0.25;stroke-linecap:butt;stroke-linejoin:round;stroke-miterlimit:4;stroke-dasharray:none;stroke-dashoffset:0;stroke-opacity:0.90944878;paint-order:normal"
           id="rect4485"
           width="26.458334"
           height="26.458334"
           x="0"
           y="-1.110223e-16" />
        <rect
           ry="1.3229166"
           rx="1.3229166"
           y="1.322917"
           x="1.322917"
           height="23.8125"
           width="23.8125"
           id="rect4487"
           style="opacity:1;fill:#f44336;fill-opacity:1;fill-rule:nonzero;stroke:none;stroke-width:0.25;stroke-linecap:butt;stroke-linejoin:round;stroke-miterlimit:4;stroke-dasharray:none;stroke-dashoffset:0;stroke-opacity:0.90944878;paint-order:normal" />
        <path
           inkscape:connector-curvature="0"
           id="rect5205-3"
           d="m 0.72760467,18.520836 v 4.167188 c 0,1.539081 1.23904383,2.778124 2.77812503,2.778124 H 22.952604 c 1.539081,0 2.778125,-1.239043 2.778125,-2.778124 v -4.167188 z"
           style="opacity:1;fill:#222222;fill-opacity:1;fill-rule:nonzero;stroke:none;stroke-width:0.24999999;stroke-linecap:butt;stroke-linejoin:round;stroke-miterlimit:4;stroke-dasharray:none;stroke-dashoffset:0;stroke-opacity:0.90944878;paint-order:normal" />
        <text
           xml:space="preserve"
           style="font-style:normal;font-variant:normal;font-weight:500;font-stretch:normal;font-size:4.23333311px;line-height:4.23333311px;font-family:Montserrat;-inkscape-font-specification:'Montserrat Medium';text-align:center;text-anchor:middle;opacity:1;fill:#eeeeee;fill-opacity:1;fill-rule:nonzero;stroke:none;stroke-width:0.25;stroke-linecap:butt;stroke-linejoin:round;stroke-miterlimit:4;stroke-dasharray:none;stroke-dashoffset:0;stroke-opacity:0.90944878;paint-order:normal"
           x="13.045942"
           y="23.288628"
           id="text4491"><tspan
             sodipodi:role="line"
             id="tspan4489"
             x="13.045942"
             y="23.288628"
             style="font-style:normal;font-variant:normal;font-weight:500;font-stretch:normal;font-size:4.23333311px;font-family:Montserrat;-inkscape-font-specification:'Montserrat Medium';fill:#eeeeee;fill-opacity:1;stroke-width:0.25">EQUALITY</tspan></text>
        <path
           style="fill:#222222;fill-opacity:1;stroke-width:0.49999988"
           d="m 7.5061558,19.237704 c 0.022779,-0.04395 0.149307,-0.256462 0.281173,-0.47224 0.1318663,-0.215777 0.4208828,-0.691041 0.64226,-1.05614 l 0.4025026,-0.663819 v -0.346046 -0.346043 h 0.8764678 0.8764668 l -0.02049,-1.915473 -0.02049,-1.915471 0.317201,-0.640634 0.317201,-0.640633 0.02153,-1.6532888 0.02154,-1.6532904 -0.148256,-0.01756 C 10.893214,7.8957442 10.450405,7.7470525 10.212482,7.6280281 10.116581,7.5800522 9.8681117,7.4459935 9.6603258,7.3301198 9.0754018,7.0039298 8.8912426,6.9320653 8.5996054,6.9161946 8.2795667,6.8987784 8.1737295,6.9390918 7.6749773,7.2683876 7.3273511,7.497904 7.0854772,7.6171021 6.7978325,7.7006539 6.7418907,7.7169033 6.5261142,7.7382389 6.3183292,7.7480662 l -0.3777917,0.017867 v 0.1307737 0.1307738 l 0.2382448,0.00842 0.2382448,0.00842 0.2361808,0.7326355 c 0.1298991,0.4029489 0.3471506,1.0791855 0.482782,1.5027478 0.1356302,0.423561 0.2710969,0.842038 0.3010371,0.929947 0.029939,0.0879 0.1347745,0.414844 0.232966,0.72652 0.098192,0.311679 0.2505683,0.789003 0.3386131,1.060722 0.088046,0.271719 0.18945,0.585576 0.2253434,0.69746 l 0.065262,0.203426 0.490375,0.01452 0.490374,0.01452 -0.1602743,0.188895 C 8.6217775,14.702538 7.8730952,15.093213 6.8559553,15.29697 6.4890188,15.37048 6.4138051,15.37558 5.6935207,15.37583 4.9750785,15.376094 4.896573,15.37093 4.5234316,15.29782 3.4363691,15.085107 2.782125,14.733554 2.2018116,14.050338 L 2.0845629,13.912303 H 2.6327985 3.1810341 L 3.4170262,13.193048 C 3.546822,12.797457 3.8065934,12.003005 3.9942947,11.4276 4.1819974,10.852196 4.4425575,10.054475 4.5733175,9.6548891 4.7040777,9.2553026 4.8755727,8.7290018 4.9544175,8.4853324 L 5.0977737,8.0422971 5.3375254,8.0421545 5.5772771,8.0420116 V 7.8536058 7.6651997 L 5.4281754,7.5896438 C 5.1240542,7.4355399 4.8555859,7.0679074 4.803529,6.7342789 4.7804633,6.5864528 4.7592915,6.5805218 5.0251214,6.7963514 c 0.1414614,0.1148528 0.4487131,0.2866574 0.5126553,0.2866574 0.024515,0 0.0395,-0.033074 0.0395,-0.087183 v -0.087183 h 0.1743649 0.1743652 l 4.393e-4,0.1089786 C 5.9271047,7.1857479 5.9550947,7.2088995 6.1551842,7.2070149 6.4567595,7.2041801 6.6360046,7.0971332 7.106787,6.638739 7.7173251,6.044266 7.8371246,5.9562474 8.1491562,5.8728965 c 0.3739113,-0.09988 0.9661033,-0.00499 1.9470778,0.3119787 0.51704,0.1670666 0.951292,0.287856 1.034872,0.287856 0.05245,0 0.05491,-0.03436 0.05491,-0.7683973 0,-0.4746919 -0.01097,-0.77518 -0.02871,-0.7861423 -0.0158,-0.00976 -0.101135,-0.036609 -0.189659,-0.059666 -0.08853,-0.023055 -0.196569,-0.063929 -0.240106,-0.090826 -0.157125,-0.097079 -0.332909,-0.2890666 -0.421179,-0.4600007 -0.0806,-0.156086 -0.09018,-0.2017837 -0.09139,-0.4359127 -0.0012,-0.2282533 0.0093,-0.2847871 0.08238,-0.4441085 0.374501,-0.8165997 1.535949,-0.8121195 1.907518,0.00735 0.0725,0.1598854 0.08544,0.2249022 0.08542,0.4288471 -2e-5,0.2043548 -0.01253,0.2668319 -0.08348,0.4167823 -0.143084,0.3024466 -0.355615,0.4912082 -0.651341,0.5784967 l -0.122465,0.036147 -0.0077,0.803243 c -0.0042,0.4417835 0.0023,0.8031514 0.01452,0.8030392 0.07934,-7.266e-4 0.602335,-0.1459494 1.097508,-0.304748 0.881238,-0.2826078 1.178814,-0.3454478 1.641938,-0.3467316 0.506733,-0.00141 0.673949,0.092333 1.354248,0.7591553 0.427754,0.4192843 0.604683,0.5426343 0.844491,0.5887582 0.168311,0.032373 0.213311,-0.00532 0.213311,-0.1786894 V 6.908644 h 0.174365 0.174364 v 0.1182016 c 0,0.1085357 0.0054,0.1167312 0.06539,0.1002155 0.151872,-0.041777 0.545309,-0.2588922 0.708671,-0.3910745 l 0.17621,-0.1425784 -0.02695,0.1483126 c -0.07949,0.4373523 -0.430491,0.8247431 -0.872454,0.9629048 -0.04039,0.012626 -0.05086,0.048984 -0.05086,0.1766451 v 0.1607466 l 0.239751,3.955e-4 0.239752,3.953e-4 0.16467,0.5154377 c 0.359199,1.1243334 0.642517,2.0102402 0.722471,2.2590882 0.04621,0.143851 0.157299,0.490403 0.246845,0.770114 0.08955,0.27971 0.186876,0.580489 0.216285,0.668399 0.02942,0.0879 0.133951,0.414844 0.232311,0.72652 0.09835,0.311678 0.206677,0.64842 0.240711,0.748318 l 0.06185,0.18163 h 0.491244 0.491243 l -0.07892,0.09444 c -0.350189,0.419056 -0.644462,0.653755 -1.098444,0.876063 -0.397765,0.194779 -0.680565,0.291351 -1.120326,0.382564 -0.998208,0.207046 -2.221121,0.154185 -3.134974,-0.135505 -0.686974,-0.217767 -1.335439,-0.646337 -1.676414,-1.107936 l -0.08002,-0.108331 0.54156,-0.0079 0.541559,-0.0079 0.0839,-0.247017 c 0.04614,-0.13586 0.236832,-0.717802 0.423752,-1.293207 0.186918,-0.575404 0.402592,-1.235813 0.479271,-1.467574 0.07667,-0.231761 0.291719,-0.8921667 0.477864,-1.4675712 0.186146,-0.5754056 0.365426,-1.1213859 0.398401,-1.2132907 l 0.05996,-0.1671 h 0.228389 c 0.219379,0 0.229108,-0.00286 0.246626,-0.072653 0.01,-0.039959 0.01,-0.1053457 0,-0.1453043 -0.01732,-0.069053 -0.02865,-0.072678 -0.228375,-0.073158 C 15.914794,7.749842 15.520779,7.6147069 15.057626,7.3073026 14.62311,7.0189063 14.458751,6.9351145 14.279999,6.910857 13.978529,6.869946 13.678993,6.95753 13.191182,7.2292244 c -0.846613,0.471534 -1.12947,0.5985645 -1.48937,0.6688757 l -0.19616,0.038322 v 1.6187263 1.6187266 l 0.246837,0.51918 c 0.13576,0.285549 0.276342,0.57149 0.312405,0.635424 l 0.06557,0.116238 0.01452,1.947076 0.01452,1.947079 0.762848,0.0077 0.762846,0.0077 v 0.330256 0.330258 l 0.370527,0.505518 c 0.203788,0.278035 0.39668,0.540475 0.428647,0.5832 0.03196,0.04272 0.127583,0.173155 0.212484,0.28985 0.0849,0.116694 0.264711,0.3617 0.399586,0.544456 0.134874,0.18276 0.245225,0.342958 0.245225,0.355998 0,0.01303 -1.772323,0.0237 -3.938492,0.0237 H 7.4647375 Z m -1.935996,-8.078298 -0.00742,-2.7528986 -0.074436,-0.00571 C 5.4473678,8.3976474 5.4008618,8.4039074 5.384964,8.4147094 5.369069,8.4255034 5.30919,8.5781918 5.2519049,8.7540105 5.1946189,8.929828 5.0429734,9.3940755 4.914913,9.7856702 4.7868539,10.177266 4.5285838,10.968446 4.3409802,11.543852 4.1533775,12.119256 3.905062,12.877744 3.7891694,13.229381 c -0.1158926,0.351637 -0.2048381,0.649146 -0.1976571,0.661133 0.00719,0.012 0.4569837,0.02179 0.9995584,0.02179 h 0.9865021 z m 2.3319852,2.729013 c 0,-0.01315 -0.018792,-0.08179 -0.041761,-0.15257 C 7.8374161,13.665072 7.7120435,13.273691 7.5817789,12.866112 7.4515132,12.458535 7.2359431,11.785049 7.1027347,11.369478 6.9695254,10.953908 6.7540793,10.280423 6.623965,9.8728458 6.1797136,8.4812382 6.1520042,8.4064123 6.0769772,8.3957766 5.9184549,8.3733042 5.9260073,8.2361105 5.9260073,11.138174 c 0,1.475205 0.00794,2.702878 0.017638,2.728161 0.015597,0.04065 0.1299726,0.04597 0.9880685,0.04597 0.5337361,0 0.9704297,-0.01075 0.9704297,-0.02389 z m 8.671555,-0.02209 c 0.0097,-0.02527 0.01765,-1.252955 0.01765,-2.72816 0,-2.3943834 -0.0048,-2.6862301 -0.04532,-2.7198127 -0.06459,-0.053604 -0.191341,-0.00233 -0.219144,0.088623 -0.02742,0.089688 -0.750926,2.3172137 -0.991113,3.0513897 -0.258783,0.791021 -0.43367,1.324349 -0.600864,1.832362 -0.08181,0.248584 -0.148749,0.467632 -0.148749,0.48677 0,0.02634 0.23944,0.03479 0.984958,0.03479 0.871348,0 0.986996,-0.0054 1.0026,-0.04597 z m 2.313444,0.0047 c 0,-0.04091 -0.232017,-0.780955 -0.697671,-2.225325 C 17.861948,10.629658 17.618753,9.8712717 17.537135,9.6113184 17.17388,8.4543309 17.160514,8.4178886 17.0932,8.4009941 16.930157,8.3600726 16.940069,8.1811411 16.940069,11.165142 v 2.747161 h 0.973538 c 0.823317,0 0.973537,-0.0065 0.973537,-0.04142 z"
           id="path4521"
           inkscape:connector-curvature="0" />
      </g>
    </g>
  </g>
</svg>
