<?xml version="1.0" encoding="UTF-8" standalone="no"?>
<!-- Created with Inkscape (http://www.inkscape.org/) -->

<svg
   xmlns:dc="http://purl.org/dc/elements/1.1/"
   xmlns:cc="http://creativecommons.org/ns#"
   xmlns:rdf="http://www.w3.org/1999/02/22-rdf-syntax-ns#"
   xmlns:svg="http://www.w3.org/2000/svg"
   xmlns="http://www.w3.org/2000/svg"
   xmlns:sodipodi="http://sodipodi.sourceforge.net/DTD/sodipodi-0.dtd"
   xmlns:inkscape="http://www.inkscape.org/namespaces/inkscape"
   width="200"
   height="200"
   viewBox="0 0 52.916668 52.916666"
   version="1.1"
   id="svg8"
   inkscape:version="0.92.1 r15371"
   sodipodi:docname="equality.svg">
  <defs
     id="defs2">
    <inkscape:path-effect
       effect="envelope"
       id="path-effect4658"
       is_visible="true"
       yy="true"
       xx="true"
       bendpath1="m -199.08406,108.42369 h 7.0057"
       bendpath2="m -192.07836,108.42369 v 6.75242"
       bendpath3="m -199.08406,115.17611 h 7.0057"
       bendpath4="m -199.08406,108.42369 v 6.75242" />
    <inkscape:path-effect
       effect="bend_path"
       id="path-effect4656"
       is_visible="true"
       bendpath="m -192.00142,114.60623 c 2.12577,-0.53066 4.48261,0.85111 7.0057,0"
       prop_scale="1"
       scale_y_rel="false"
       vertical="false"
       bendpath-nodetypes="cc" />
    <inkscape:path-effect
       effect="bounding_box"
       id="path-effect4654"
       is_visible="true"
       linkedpath=""
       visualbounds="false" />
  </defs>
  <sodipodi:namedview
     id="base"
     pagecolor="#ffffff"
     bordercolor="#666666"
     borderopacity="1.0"
     inkscape:pageopacity="0.0"
     inkscape:pageshadow="2"
     inkscape:zoom="0.70710678"
     inkscape:cx="56.450488"
     inkscape:cy="105.07799"
     inkscape:document-units="px"
     inkscape:current-layer="layer1"
     showgrid="false"
     fit-margin-top="0"
     fit-margin-left="0"
     fit-margin-right="0"
     fit-margin-bottom="0"
     inkscape:window-width="1920"
     inkscape:window-height="1016"
     inkscape:window-x="0"
     inkscape:window-y="27"
     inkscape:window-maximized="1"
     showguides="false"
     inkscape:object-nodes="false"
     units="px" />
  <metadata
     id="metadata5">
    <rdf:RDF>
      <cc:Work
         rdf:about="">
        <dc:format>image/svg+xml</dc:format>
        <dc:type
           rdf:resource="http://purl.org/dc/dcmitype/StillImage" />
        <dc:title></dc:title>
      </cc:Work>
    </rdf:RDF>
  </metadata>
  <g
     inkscape:label="Layer 1"
     inkscape:groupmode="layer"
     id="layer1"
     transform="translate(39.608708,-92.411388)">
    <g
       style="stroke-width:0.5"
       id="g4561"
       transform="matrix(2,0,0,2,-39.608708,92.411388)">
      <rect
         y="-1.110223e-16"
         x="0"
         height="26.458334"
         width="26.458334"
         id="rect4485"
         style="opacity:1;fill:#222222;fill-opacity:1;fill-rule:nonzero;stroke:none;stroke-width:0.25;stroke-linecap:butt;stroke-linejoin:round;stroke-miterlimit:4;stroke-dasharray:none;stroke-dashoffset:0;stroke-opacity:0.90944878;paint-order:normal"
         rx="1.984375"
         ry="1.984375" />
      <rect
         style="opacity:1;fill:#f44336;fill-opacity:1;fill-rule:nonzero;stroke:none;stroke-width:0.25;stroke-linecap:butt;stroke-linejoin:round;stroke-miterlimit:4;stroke-dasharray:none;stroke-dashoffset:0;stroke-opacity:0.90944878;paint-order:normal"
         id="rect4487"
         width="23.8125"
         height="23.8125"
         x="1.322917"
         y="1.322917"
         rx="1.3229166"
         ry="1.3229166" />
      <path
         style="fill:#222222;fill-opacity:1;stroke:none;stroke-width:1.88976383;stroke-opacity:1"
         d="m 105.05469,82.900391 c -3.23562,-0.01247 -6.506174,1.728957 -8.076174,5.152343 -0.57343,1.250137 -0.718207,2.008497 -0.708985,3.763672 0.0091,1.794933 0.167145,2.501157 0.796875,3.720703 0.76955,1.490222 2.13577,2.992531 3.529294,3.853516 0.5596,0.345713 1.31506,0.58754 2.06641,0.783205 0.3035,0.079 0.60604,0.16299 0.8418,0.23633 0.0204,0.24721 0.0283,0.56525 0.0449,1.0039 0.037,1.00668 0.0586,2.46512 0.0586,4.25196 0,2.68166 -0.0148,4.04839 -0.0586,4.7539 -0.0733,-0.0144 -0.0521,-0.0107 -0.13281,-0.0293 -0.43548,-0.10022 -1.01211,-0.25277 -1.69727,-0.44335 -1.37062,-0.38114 -3.165458,-0.92266 -5.109375,-1.55079 -7.46861,-2.41322 -12.041059,-3.23465 -15.251953,-2.37695 -1.230322,0.32865 -2.229266,0.72614 -3.410156,1.59375 -1.18089,0.86762 -2.573741,2.17757 -4.886719,4.42969 -1.762731,1.71634 -2.952941,2.74317 -3.896485,3.30664 -0.943542,0.56347 -1.612789,0.71493 -2.642578,0.72461 -0.642338,0.006 -0.78609,-0.0713 -0.738281,-0.0156 -0.01398,-0.0883 -0.04394,-0.22021 -0.04492,-0.47265 v -1.77149 h -2.259765 -2.257813 v 0.99024 c -0.199579,-0.0994 -0.390419,-0.18156 -0.621094,-0.31055 -0.738186,-0.41277 -1.567725,-0.94604 -2.021484,-1.31445 -0.499235,-0.40534 -0.854048,-0.70795 -1.136719,-0.92969 -0.282671,-0.22174 -0.366022,-0.37993 -0.857422,-0.51758 -0.06146,-0.0172 -0.130395,-0.0233 -0.220703,-0.0293 -0.09031,-0.006 -0.31638,0.0273 -0.324219,0.0293 -0.0079,0.002 -0.349436,0.1595 -0.355468,0.16406 -0.003,0.002 -0.143899,0.14356 -0.146485,0.14649 -0.0026,0.003 -0.07485,0.0859 -0.103515,0.13281 -0.22935,0.37512 -0.170311,0.55626 -0.16211,0.69336 0.0164,0.27419 0.06118,0.46606 0.101563,0.72461 0.45349,2.90638 2.587216,5.82275 5.226562,7.16016 l 0.621094,0.31054 v 0.8418 0.48633 h -0.871094 -2.509765 l -1.285156,4.00195 c -0.595129,1.83924 -1.890807,5.80862 -2.878907,8.82813 -0.988636,3.02114 -2.965808,9.05642 -4.384765,13.40625 -1.418656,4.34893 -3.374735,10.35662 -4.355469,13.3457 l -1.580078,4.7832 h -3.453125 -6.1875 l 2.214844,2.59766 c 4.509931,5.30965 9.74634,8.11228 18.085937,9.74414 2.836898,0.55582 3.586187,0.60743 9.021484,0.60547 5.449107,-0.002 6.186739,-0.0463 8.976563,-0.60547 7.829138,-1.56836 13.710395,-4.60781 17.642578,-9.24219 l 2.480469,-2.9375 -5.669922,-0.16211 -3.041016,-0.0879 -0.28125,-0.90039 c -0.272436,-0.84921 -1.047154,-3.21695 -1.71289,-5.27148 -0.664054,-2.04937 -1.813554,-5.66509 -2.554688,-8.01758 -0.743248,-2.3592 -1.531669,-4.80177 -1.771484,-5.50586 -0.211707,-0.6216 -1.233179,-3.81383 -2.257813,-7.01367 -1.025537,-3.20265 -2.67987,-8.32027 -3.662109,-11.36719 l -1.978516,-6.17187 -2.464843,-0.0879 -0.886719,-0.0293 v -0.0742 -0.0879 l 1.949219,-0.0898 c 0.802143,-0.0379 1.612965,-0.0953 2.289062,-0.16211 0.676097,-0.0668 1.133222,-0.11504 1.550781,-0.23632 2.269238,-0.65911 4.224158,-1.61778 6.894531,-3.38086 1.874198,-1.23742 2.973934,-1.91059 3.808594,-2.22852 0.834661,-0.31792 1.448828,-0.34462 2.613282,-0.28125 2.071515,0.11273 3.204164,0.55837 7.603515,3.01172 1.579759,0.88097 3.436265,1.88785 4.207031,2.27344 1.936404,0.96871 5.129524,2.07321 6.820314,2.27344 l 0.28125,0.0293 -0.16211,11.65039 -0.14844,12.28321 -2.30273,4.65039 -2.509768,5.04883 0.162109,14.70507 0.148438,13.52344 h -5.669922 -7.574219 v 3.55859 2.34571 l -2.908203,4.79883 c -1.672852,2.75889 -3.846595,6.3598 -4.841797,7.98828 -1.000486,1.63714 -1.912555,3.12061 -2.169922,3.61718 l -1.019531,1.99219 h 31.314455 c 8.18864,0 15.63819,-0.0261 21.03711,-0.0586 2.69946,-0.0159 4.89153,-0.0374 6.4082,-0.0586 0.75834,-0.0106 1.35015,-0.0172 1.75781,-0.0293 0.20387,-0.006 0.35014,-0.008 0.4707,-0.0156 0.0605,-0.004 0.11553,-0.008 0.17774,-0.0156 0.031,-0.004 0.0581,-0.0119 0.13281,-0.0293 0.0378,-0.009 0.18974,-0.0735 0.19141,-0.0742 8.1e-4,-3.8e-4 0.25157,-0.16173 0.25195,-0.16211 4.1e-4,-3.8e-4 0.29492,-0.69298 0.29492,-0.69336 0,-0.002 -0.0149,-0.17561 -0.0156,-0.17773 -4.1e-4,-0.002 -0.021,-0.0762 -0.0293,-0.10352 -0.0166,-0.0544 -0.0321,-0.0881 -0.0449,-0.11718 -0.0249,-0.0582 -0.0511,-0.095 -0.0723,-0.13282 -0.0416,-0.0757 -0.0797,-0.15242 -0.13281,-0.23632 -0.10598,-0.16782 -0.24187,-0.37112 -0.41406,-0.6211 -0.34439,-0.49995 -0.81315,-1.16156 -1.32813,-1.85937 -1.01819,-1.37966 -2.37514,-3.22782 -3.01367,-4.10547 -0.64327,-0.88417 -1.37036,-1.86147 -1.62305,-2.19922 -0.22201,-0.29669 -1.69244,-2.29934 -3.23242,-4.40039 l -2.61328,-3.57227 v -2.19922 -3.42578 l -6.70312,-0.0742 -4.84375,-0.0449 -0.10157,-13.78906 -0.10351,-14.95508 -0.6211,-1.09375 c -0.19653,-0.34847 -1.30938,-2.60296 -2.33203,-4.75391 l -1.77148,-3.71874 v -12.03126 -11.45703 l 0.72461,-0.13281 c 2.83926,-0.55468 5.11457,-1.59518 11.5293,-5.16797 3.61915,-2.01575 5.63031,-2.56293 7.64843,-2.28906 1.14037,0.15476 2.21325,0.68368 5.47657,2.84961 3.60041,2.38967 6.81368,3.49125 10.30468,3.5 0.55673,0.001 0.68572,0.0217 0.8125,0.0293 0.003,0.10215 0.003,0.16347 0,0.26562 -0.13712,0.008 -0.32067,0.0293 -0.95898,0.0293 h -2.39258 l -0.67773,1.875 c -0.28332,0.78968 -1.60578,4.86086 -3.01368,9.21289 -1.40665,4.34819 -3.03831,9.34396 -3.61523,11.08789 -0.58182,1.75847 -2.20391,6.73731 -3.61719,11.08789 -1.41243,4.34797 -2.86558,8.7738 -3.20508,9.77344 l -0.41211,1.22461 -3.42578,0.0586 -5.93554,0.0898 1.69726,2.28711 c 2.75155,3.72495 7.77062,7.0243 13.14063,8.72657 7.10777,2.25315 16.4565,2.6496 24.18359,1.04687 3.37516,-0.70004 5.62488,-1.48458 8.67969,-2.98047 3.52274,-1.72503 5.92024,-3.63091 8.62305,-6.86523 l 1.88867,-2.25977 h -5.72657 -3.04296 l -0.25,-0.73828 c -0.2456,-0.72091 -1.07413,-3.27263 -1.81641,-5.625 -0.74427,-2.35834 -1.52346,-4.81149 -1.75586,-5.50586 -0.21558,-0.64441 -0.9624,-2.93844 -1.63867,-5.05078 -0.67698,-2.11457 -1.51174,-4.72814 -1.86133,-5.81641 -0.60345,-1.87816 -2.74773,-8.58327 -5.46289,-17.08203 l -1.44727,-4.54687 h -2.50976 -0.8711 v -0.28125 c 0,-0.33941 0.0202,-0.438 0.0332,-0.53711 3.5341,-1.2303 6.28394,-4.32114 6.93554,-7.90625 l 0.66602,-3.61719 -3.32227,2.67188 c -0.52573,0.42539 -1.55924,1.0818 -2.56835,1.63867 -0.72152,0.39816 -1.2391,0.60323 -1.74219,0.8125 v -1.35938 h -2.25977 -2.25781 v 1.78711 c 0,0.25784 -0.0289,0.38685 -0.0469,0.47071 -0.08,10e-4 -0.19794,0.004 -0.4414,-0.043 -0.79558,-0.15297 -1.42004,-0.40219 -2.30274,-1.01758 -0.88269,-0.61539 -2.00024,-1.61792 -3.60351,-3.18945 -2.58304,-2.53187 -4.22191,-4.02218 -5.81641,-4.91602 -1.59449,-0.89384 -3.10436,-1.09924 -5.07812,-1.09375 -3.58513,0.01 -6.01583,0.52918 -12.69727,2.67188 -1.85916,0.59622 -3.78441,1.15902 -5.30078,1.58007 -0.73474,0.20402 -1.35597,0.37056 -1.8457,0.48828 -0.007,-0.22032 -0.024,-0.37957 -0.0293,-0.66406 -0.0196,-1.08703 -0.0159,-2.60493 0,-4.26758 l 0.0449,-5.375 0.26563,-0.0723 c 2.47225,-0.72973 4.33655,-2.397263 5.50781,-4.873049 0.56133,-1.186388 0.7225,-1.975321 0.72266,-3.558593 1.5e-4,-1.581618 -0.16788,-2.373045 -0.73829,-3.63086 -1.55732,-3.433806 -4.82493,-5.198465 -8.06054,-5.210937 z m 39.25586,44.246089 c 0.0393,0.48548 0.081,1.27517 0.10351,2.62891 0.0469,2.82898 0.0586,7.91388 0.0586,16.96289 0,5.57388 -0.0207,10.67539 -0.0449,14.41016 -0.0121,1.86738 -0.0271,3.39082 -0.043,4.45703 -0.007,0.45059 -0.008,0.77319 -0.0156,1.04883 -0.15163,0.0166 -0.21516,0.0313 -0.50195,0.0449 -1.01176,0.0461 -2.88054,0.0586 -6.17188,0.0586 -2.81413,0 -4.67286,-0.0185 -5.80273,-0.0586 -0.22012,-0.008 -0.27586,-0.0195 -0.44141,-0.0293 0.0174,-0.0567 0.026,-0.0875 0.0449,-0.14844 0.201,-0.65778 0.47386,-1.5309 0.78125,-2.46484 1.26405,-3.84078 2.59063,-7.868 4.54688,-13.84766 0.90842,-2.77676 2.72157,-8.37302 4.3418,-13.36132 1.61505,-4.97239 2.99357,-9.20908 3.14453,-9.70118 z m -83.208988,0.44336 0.06055,19.31055 0.05859,19.85742 h -6.511719 c -2.044993,0 -3.925967,-0.0147 -5.285156,-0.0449 -0.465706,-0.01 -0.761895,-0.0321 -1.091797,-0.0449 0.04142,-0.14332 0.06688,-0.2301 0.117188,-0.39844 0.267084,-0.89336 0.658037,-2.11742 1.09375,-3.43945 0.876882,-2.6606 2.743697,-8.38977 4.162109,-12.74024 1.418009,-4.34922 3.373999,-10.3296 4.341797,-13.28906 0.968094,-2.96033 2.119323,-6.46473 2.552734,-7.79492 0.176368,-0.5413 0.346645,-1.00491 0.501953,-1.41602 z m 4.814454,0.0293 c 0.06712,0.1609 0.07719,0.15544 0.162109,0.38477 0.5254,1.41876 1.420788,4.18839 3.099609,9.44726 0.983731,3.08149 2.610069,8.18233 3.617188,11.32422 1.006799,3.14092 2.632637,8.22812 3.617187,11.30859 0.984799,3.08129 1.93365,6.03841 2.111329,6.58594 -0.301214,0.0121 -0.560326,0.0343 -0.97461,0.0449 -1.317815,0.0325 -3.141414,0.043 -5.152344,0.043 -3.241244,0 -5.085827,-0.0125 -6.082031,-0.0586 -0.270365,-0.0128 -0.324688,-0.0283 -0.472656,-0.0449 -0.0071,-0.27568 -0.009,-0.59627 -0.01563,-1.04688 -0.01587,-1.06622 -0.03087,-2.5916 -0.04297,-4.45898 -0.02411,-3.73477 -0.04492,-8.83628 -0.04492,-14.41016 0,-10.96925 -0.01408,-16.21686 0.117188,-18.60156 0.02275,-0.41343 0.01905,-0.27081 0.06055,-0.51758 z m 83.222654,0.0586 c 0.007,0.019 0.008,0.01 0.0156,0.0293 0.41333,1.12694 1.13697,3.39321 2.50976,7.76563 0.6203,1.9757 2.45564,7.70373 4.93164,15.38476 1.75956,5.4578 3.07812,9.58953 3.95508,12.38672 0.4385,1.39859 0.77338,2.45956 0.99024,3.18945 0.0325,0.10923 0.0462,0.15597 0.0742,0.25 -0.10423,0.007 -0.10661,0.01 -0.23632,0.0156 -1.02268,0.0438 -2.85558,0.0586 -5.96485,0.0586 h -6.42187 v -19.8125 c 0,-11.27916 -0.0138,-16.60817 0.11719,-18.9707 0.008,-0.14237 0.0202,-0.17594 0.0293,-0.29688 z"
         transform="matrix(0.13229167,0,0,0.13229167,-2.64583,-8.273566)"
         id="path4521"
         inkscape:connector-curvature="0" />
      <path
         style="opacity:1;fill:#222222;fill-opacity:1;fill-rule:nonzero;stroke:none;stroke-width:0.24999999;stroke-linecap:butt;stroke-linejoin:round;stroke-miterlimit:4;stroke-dasharray:none;stroke-dashoffset:0;stroke-opacity:0.90944878;paint-order:normal"
         d="m 0.72760467,18.520836 v 4.167188 c 0,1.539081 1.23904383,2.778124 2.77812503,2.778124 H 22.952604 c 1.539081,0 2.778125,-1.239043 2.778125,-2.778124 v -4.167188 z"
         id="rect5205-3"
         inkscape:connector-curvature="0" />
      <g
         id="text4491"
         style="font-style:normal;font-variant:normal;font-weight:500;font-stretch:normal;font-size:4.23333311px;line-height:4.23333311px;font-family:Montserrat;-inkscape-font-specification:'Montserrat Medium';text-align:center;text-anchor:middle;opacity:1;fill:#eeeeee;fill-opacity:1;fill-rule:nonzero;stroke:none;stroke-width:0.25;stroke-linecap:butt;stroke-linejoin:round;stroke-miterlimit:4;stroke-dasharray:none;stroke-dashoffset:0;stroke-opacity:0.90944878;paint-order:normal"
         aria-label="EQUALITY">
        <path
           id="path4713"
           style="font-style:normal;font-variant:normal;font-weight:500;font-stretch:normal;font-size:4.23333311px;font-family:Montserrat;-inkscape-font-specification:'Montserrat Medium';fill:#eeeeee;fill-opacity:1;stroke-width:0.25"
           d="m 2.7357257,20.325294 h 2.1716998 v 0.4953 H 3.3029923 v 0.732367 h 1.4393333 v 0.4953 H 3.3029923 v 0.745067 h 1.6552332 v 0.4953 H 2.7357257 Z"
           inkscape:connector-curvature="0" />
        <path
           id="path4715"
           style="font-style:normal;font-variant:normal;font-weight:500;font-stretch:normal;font-size:4.23333311px;font-family:Montserrat;-inkscape-font-specification:'Montserrat Medium';fill:#eeeeee;fill-opacity:1;stroke-width:0.25"
           d="m 8.6249534,23.627294 q -0.1693333,0.1524 -0.3894666,0.237067 -0.2201333,0.0889 -0.4318,0.0889 -0.2794,0 -0.5206999,-0.1651 -0.2413,-0.160867 -0.4106334,-0.4572 -0.4402666,0 -0.8000999,-0.2032 -0.3598333,-0.2032 -0.5672667,-0.550333 -0.2074333,-0.351367 -0.2074333,-0.7747 0,-0.423334 0.2074333,-0.770467 0.2074334,-0.347133 0.5672667,-0.5461 0.3640666,-0.198967 0.8043333,-0.198967 0.4402666,0 0.8000999,0.198967 0.3640667,0.198967 0.5715,0.5461 0.2074333,0.347133 0.2074333,0.770467 0,0.3302 -0.1312333,0.6223 -0.127,0.287866 -0.3598333,0.499533 -0.2328333,0.211667 -0.5376333,0.3175 0.2243666,0.237067 0.4445,0.237067 0.2285999,0 0.5333999,-0.237067 z M 5.8775203,21.802728 q 0,0.2794 0.1354666,0.512233 0.1397,0.232833 0.3683,0.3683 0.2328333,0.135467 0.5037666,0.135467 0.2667,0 0.4953,-0.135467 0.2286,-0.135467 0.3598333,-0.3683 0.1354667,-0.232833 0.1354667,-0.512233 0,-0.2794 -0.1354667,-0.508 -0.1312333,-0.232834 -0.3598333,-0.364067 -0.2286,-0.135467 -0.4953,-0.135467 -0.2709333,0 -0.5037666,0.135467 -0.2328333,0.131233 -0.3683,0.364067 -0.1354666,0.2286 -0.1354666,0.508 z"
           inkscape:connector-curvature="0" />
        <path
           id="path4717"
           style="font-style:normal;font-variant:normal;font-weight:500;font-stretch:normal;font-size:4.23333311px;font-family:Montserrat;-inkscape-font-specification:'Montserrat Medium';fill:#eeeeee;fill-opacity:1;stroke-width:0.25"
           d="m 9.49874,22.069428 q 0,0.351366 0.1989667,0.550333 0.1989666,0.198967 0.5334003,0.198967 0.334433,0 0.524933,-0.198967 0.194733,-0.198967 0.194733,-0.550333 v -1.744134 h 0.567267 v 1.744134 q 0,0.385233 -0.156633,0.6731 -0.156634,0.283633 -0.448734,0.436033 -0.287866,0.1524 -0.681566,0.1524 -0.3979337,0 -0.694267,-0.1524 -0.2921,-0.1524 -0.4487333,-0.436033 -0.1566333,-0.287867 -0.1566333,-0.6731 V 20.325294 H 9.49874 Z"
           inkscape:connector-curvature="0" />
        <path
           id="path4719"
           style="font-style:normal;font-variant:normal;font-weight:500;font-stretch:normal;font-size:4.23333311px;font-family:Montserrat;-inkscape-font-specification:'Montserrat Medium';fill:#eeeeee;fill-opacity:1;stroke-width:0.25"
           d="m 14.296495,23.288628 -0.262467,-0.626534 h -1.4478 l -0.262466,0.626534 h -0.588434 l 1.299634,-2.963334 h 0.588433 l 1.2827,2.963334 z m -1.507067,-1.113367 h 1.0414 l -0.516466,-1.2446 z"
           inkscape:connector-curvature="0" />
        <path
           id="path4721"
           style="font-style:normal;font-variant:normal;font-weight:500;font-stretch:normal;font-size:4.23333311px;font-family:Montserrat;-inkscape-font-specification:'Montserrat Medium';fill:#eeeeee;fill-opacity:1;stroke-width:0.25"
           d="m 15.262092,20.325294 h 0.567267 v 2.4511 h 1.278466 v 0.512234 h -1.845733 z"
           inkscape:connector-curvature="0" />
        <path
           id="path4723"
           style="font-style:normal;font-variant:normal;font-weight:500;font-stretch:normal;font-size:4.23333311px;font-family:Montserrat;-inkscape-font-specification:'Montserrat Medium';fill:#eeeeee;fill-opacity:1;stroke-width:0.25"
           d="m 17.552391,20.325294 h 0.567267 v 2.963334 h -0.567267 z"
           inkscape:connector-curvature="0" />
        <path
           id="path4725"
           style="font-style:normal;font-variant:normal;font-weight:500;font-stretch:normal;font-size:4.23333311px;font-family:Montserrat;-inkscape-font-specification:'Montserrat Medium';fill:#eeeeee;fill-opacity:1;stroke-width:0.25"
           d="m 18.520304,20.325294 h 2.417233 v 0.503767 h -0.922866 v 2.459567 h -0.5715 v -2.459567 h -0.922867 z"
           inkscape:connector-curvature="0" />
        <path
           id="path4727"
           style="font-style:normal;font-variant:normal;font-weight:500;font-stretch:normal;font-size:4.23333311px;font-family:Montserrat;-inkscape-font-specification:'Montserrat Medium';fill:#eeeeee;fill-opacity:1;stroke-width:0.25"
           d="m 23.722608,20.325294 -1.0795,1.9939 v 0.969434 h -0.567267 v -0.948267 l -1.1049,-2.015067 h 0.575734 l 0.808566,1.392767 0.795867,-1.392767 z"
           inkscape:connector-curvature="0" />
      </g>
    </g>
    <text
       xml:space="preserve"
       style="font-style:normal;font-variant:normal;font-weight:500;font-stretch:normal;font-size:8.46666622px;line-height:4.23333311px;font-family:Montserrat;-inkscape-font-specification:'Montserrat Medium';text-align:center;text-anchor:middle;opacity:1;fill:#eeeeee;fill-opacity:1;fill-rule:nonzero;stroke:none;stroke-width:4.23333311;stroke-linecap:butt;stroke-linejoin:round;stroke-miterlimit:4;stroke-dasharray:none;stroke-dashoffset:0;stroke-opacity:1;paint-order:stroke fill markers"
       x="-355.53735"
       y="24.113144"
       id="text4627-36-3"><tspan
         sodipodi:role="line"
         id="tspan4625-0-6"
         x="-355.53735"
         y="24.113144"
         style="font-style:normal;font-variant:normal;font-weight:500;font-stretch:normal;font-size:8.46666622px;font-family:Montserrat;-inkscape-font-specification:'Montserrat Medium';text-align:center;text-anchor:middle;fill:#eeeeee;fill-opacity:1;stroke-width:4.23333311">ORD</tspan></text>
  </g>
</svg>
