<?xml version="1.0" encoding="utf-8"?>
<!-- Generator: Adobe Illustrator 22.0.1, SVG Export Plug-In . SVG Version: 6.00 Build 0)  -->
<svg version="1.1"
	 id="svg8" inkscape:version="0.92.1 r15371" sodipodi:docname="equality.svg" xmlns:cc="http://creativecommons.org/ns#" xmlns:dc="http://purl.org/dc/elements/1.1/" xmlns:inkscape="http://www.inkscape.org/namespaces/inkscape" xmlns:rdf="http://www.w3.org/1999/02/22-rdf-syntax-ns#" xmlns:sodipodi="http://sodipodi.sourceforge.net/DTD/sodipodi-0.dtd" xmlns:svg="http://www.w3.org/2000/svg"
	 xmlns="http://www.w3.org/2000/svg" xmlns:xlink="http://www.w3.org/1999/xlink" x="0px" y="0px" viewBox="0 0 200 200"
	 style="enable-background:new 0 0 200 200;" xml:space="preserve">
<style type="text/css">
	.st0{fill:#222222;}
	.st1{fill:#F44336;}
	.st2{enable-background:new    ;}
	.st3{fill:#EEEEEE;}
	.st4{fill:#FFFFFF;}
	.st5{font-family:'Quadriga';}
	.st6{font-size:29.2px;}
</style>
<defs>
	
	
		<inkscape:path-effect  bendpath1="m -199.08406,108.42369 h 7.0057" bendpath2="m -192.07836,108.42369 v 6.75242" bendpath3="m -199.08406,115.17611 h 7.0057" bendpath4="m -199.08406,108.42369 v 6.75242" effect="envelope" id="path-effect4658" is_visible="true" xx="true" yy="true">
		</inkscape:path-effect>
	
		<inkscape:path-effect  bendpath="m -192.00142,114.60623 c 2.12577,-0.53066 4.48261,0.85111 7.0057,0" bendpath-nodetypes="cc" effect="bend_path" id="path-effect4656" is_visible="true" prop_scale="1" scale_y_rel="false" vertical="false">
		</inkscape:path-effect>
	<inkscape:path-effect  effect="bounding_box" id="path-effect4654" is_visible="true" linkedpath="" visualbounds="false">
		</inkscape:path-effect>
</defs>
<sodipodi:namedview  bordercolor="#666666" borderopacity="1.0" fit-margin-bottom="0" fit-margin-left="0" fit-margin-right="0" fit-margin-top="0" id="base" inkscape:current-layer="layer1" inkscape:cx="56.450488" inkscape:cy="105.07799" inkscape:document-units="px" inkscape:object-nodes="false" inkscape:pageopacity="0.0" inkscape:pageshadow="2" inkscape:window-height="1016" inkscape:window-maximized="1" inkscape:window-width="1920" inkscape:window-x="0" inkscape:window-y="27" inkscape:zoom="0.70710678" pagecolor="#ffffff" showgrid="false" showguides="false" units="px">
	</sodipodi:namedview>
<path id="rect4485" class="st0" d="M15,0h170c8.3,0,15,6.7,15,15v170c0,8.3-6.7,15-15,15H15c-8.3,0-15-6.7-15-15V15
	C0,6.7,6.7,0,15,0z"/>
<path id="rect4487" class="st1" d="M20,10h160c5.5,0,10,4.5,10,10v160c0,5.5-4.5,10-10,10H20c-5.5,0-10-4.5-10-10V20
	C10,14.5,14.5,10,20,10z"/>
<path id="path4521" inkscape:connector-curvature="0" class="st0" d="M85.1,20.4c-3.2,0-6.5,1.7-8.1,5.2c-0.6,1.3-0.7,2-0.7,3.8
	s0.2,2.5,0.8,3.7c0.8,1.5,2.1,3,3.5,3.9c0.6,0.3,1.3,0.6,2.1,0.8c0.3,0.1,0.6,0.2,0.8,0.2c0,0.2,0,0.6,0,1c0,1,0.1,2.5,0.1,4.3
	c0,2.7,0,4-0.1,4.8c-0.1,0-0.1,0-0.1,0c-0.4-0.1-1-0.3-1.7-0.4c-1.4-0.4-3.2-0.9-5.1-1.6c-7.5-2.4-12-3.2-15.3-2.4
	c-1.2,0.3-2.2,0.7-3.4,1.6c-1.2,0.9-2.6,2.2-4.9,4.4c-1.8,1.7-3,2.7-3.9,3.3s-1.6,0.7-2.6,0.7c-0.6,0-0.8-0.1-0.7,0
	c0-0.1,0-0.2,0-0.5v-1.8h-2.3h-2.3v1c-0.2-0.1-0.4-0.2-0.6-0.3c-0.7-0.4-1.6-0.9-2-1.3c-0.5-0.4-0.9-0.7-1.1-0.9
	c-0.3-0.2-0.4-0.4-0.9-0.5c-0.1,0-0.1,0-0.2,0s-0.3,0-0.3,0s-0.3,0.2-0.4,0.2l-0.1,0.1l-0.1,0.1c-0.2,0.4-0.2,0.6-0.2,0.7
	c0,0.3,0.1,0.5,0.1,0.7c0.5,2.9,2.6,5.8,5.2,7.2l0.6,0.3v0.8V60h-0.9h-2.5l-1.3,4c-0.6,1.8-1.9,5.8-2.9,8.8s-3,9.1-4.4,13.4
	s-3.4,10.4-4.4,13.3l-1.6,4.8h-3.5h-6.2l2.2,2.6c4.5,5.3,9.7,8.1,18.1,9.7c2.8,0.6,3.6,0.6,9,0.6s6.2,0,9-0.6
	c7.8-1.6,13.7-4.6,17.6-9.2l2.5-2.9l-5.7-0.2l-3-0.1l-0.3-0.9c-0.3-0.8-1-3.2-1.7-5.3c-0.7-2-1.8-5.7-2.6-8
	c-0.7-2.4-1.5-4.8-1.8-5.5c-0.2-0.6-1.2-3.8-2.3-7c-1-3.2-2.7-8.3-3.7-11.4l-2-6.2l-2.5-0.1h-0.9v-0.1v-0.1l1.9-0.1
	c0.8,0,1.6-0.1,2.3-0.2c0.7-0.1,1.1-0.1,1.6-0.2c2.3-0.7,4.2-1.6,6.9-3.4c1.9-1.2,3-1.9,3.8-2.2s1.4-0.3,2.6-0.3
	c2.1,0.1,3.2,0.6,7.6,3c1.6,0.9,3.4,1.9,4.2,2.3c1.9,1,5.1,2.1,6.8,2.3h0.3l-0.2,11.7l-0.1,12.3l-2.3,4.7l-2.5,5l0.2,14.7l0.1,13.5
	h-5.7h-7.6v3.6v2.3l-2.9,4.8c-1.7,2.8-3.8,6.4-4.8,8s-1.9,3.1-2.2,3.6l-1,2h31.3c8.2,0,15.6,0,21-0.1c2.7,0,4.9,0,6.4-0.1
	c0.8,0,1.4,0,1.8,0c0.2,0,0.4,0,0.5,0s0.1,0,0.2,0h0.1l0.2-0.1l0.3-0.2l0.3-0.7v-0.2v-0.1c0-0.1,0-0.1,0-0.1c0-0.1-0.1-0.1-0.1-0.1
	c0-0.1-0.1-0.2-0.1-0.2c-0.1-0.2-0.2-0.4-0.4-0.6c-0.3-0.5-0.8-1.2-1.3-1.9c-1-1.4-2.4-3.2-3-4.1c-0.6-0.9-1.4-1.9-1.6-2.2
	s-1.7-2.3-3.2-4.4l-2.6-3.6v-2.2v-3.4l-6.7-0.1h-4.8l-0.1-13.8l-0.1-15L92,92.7c-0.2-0.3-1.3-2.6-2.3-4.8l-1.8-3.7v-12V60.8l0.7-0.1
	c2.8-0.6,5.1-1.6,11.5-5.2c3.6-2,5.6-2.6,7.6-2.3c1.1,0.2,2.2,0.7,5.5,2.8c3.6,2.4,6.8,3.5,10.3,3.5c0.6,0,0.7,0,0.8,0
	c0,0.1,0,0.2,0,0.3c-0.1,0-0.3,0-1,0h-2.4l-0.7,1.9c-0.3,0.8-1.6,4.9-3,9.2s-3,9.3-3.6,11.1c-0.6,1.8-2.2,6.7-3.6,11.1
	c-1.4,4.3-2.9,8.8-3.2,9.8l-0.4,1.2l-3.4,0.1l-5.9,0.1l1.7,2.3c2.8,3.7,7.8,7,13.1,8.7c7.1,2.3,16.5,2.6,24.2,1
	c3.4-0.7,5.6-1.5,8.7-3c3.5-1.7,5.9-3.6,8.6-6.9l1.9-2.3h-5.7h-3l-0.2-0.7c-0.2-0.7-1.1-3.3-1.8-5.6c-0.7-2.4-1.5-4.8-1.8-5.5
	c-0.2-0.6-1-2.9-1.6-5.1c-0.7-2.1-1.5-4.7-1.9-5.8c-0.6-1.9-2.7-8.6-5.5-17.1l-1.4-4.5h-2.5H129v-0.3c0-0.3,0-0.4,0-0.5
	c3.5-1.2,6.3-4.3,6.9-7.9l0.7-3.6l-3.3,2.7c-0.5,0.4-1.6,1.1-2.6,1.6c-0.7,0.4-1.2,0.6-1.7,0.8v-1.4h-2.3h-2.3V53c0,0.3,0,0.4,0,0.5
	c-0.1,0-0.2,0-0.4,0c-0.8-0.2-1.4-0.4-2.3-1s-2-1.6-3.6-3.2c-2.6-2.5-4.2-4-5.8-4.9c-1.6-0.9-3.1-1.1-5.1-1.1c-3.6,0-6,0.5-12.7,2.7
	c-1.9,0.6-3.8,1.2-5.3,1.6c-0.7,0.2-1.4,0.4-1.8,0.5c0-0.2,0-0.4,0-0.7c0-1.1,0-2.6,0-4.3v-5.4l0.3-0.1c2.5-0.7,4.3-2.4,5.5-4.9
	c0.6-1.2,0.7-2,0.7-3.6s-0.2-2.4-0.7-3.6C91.6,22.1,88.3,20.4,85.1,20.4L85.1,20.4z M124.3,64.6c0,0.5,0.1,1.3,0.1,2.6
	c0,2.8,0.1,7.9,0.1,17c0,5.6,0,10.7,0,14.4c0,1.9,0,3.4,0,4.5c0,0.5,0,0.8,0,1c-0.2,0-0.2,0-0.5,0c-1,0-2.9,0.1-6.2,0.1
	c-2.8,0-4.7,0-5.8-0.1c-0.2,0-0.3,0-0.4,0c0-0.1,0-0.1,0-0.1c0.2-0.7,0.5-1.5,0.8-2.5c1.3-3.8,2.6-7.9,4.5-13.8
	c0.9-2.8,2.7-8.4,4.3-13.4C122.8,69.3,124.2,65.1,124.3,64.6z M41.1,65l0.1,19.3l0.1,19.9h-6.5c-2,0-3.9,0-5.3,0c-0.5,0-0.8,0-1.1,0
	c0-0.1,0.1-0.2,0.1-0.4c0.3-0.9,0.7-2.1,1.1-3.4c0.9-2.7,2.7-8.4,4.2-12.7c1.4-4.3,3.4-10.3,4.3-13.3c1-3,2.1-6.5,2.6-7.8
	C40.8,65.9,40.9,65.5,41.1,65L41.1,65z M45.9,65.1c0.1,0.2,0.1,0.2,0.2,0.4c0.5,1.4,1.4,4.2,3.1,9.4c1,3.1,2.6,8.2,3.6,11.3
	c1,3.1,2.6,8.2,3.6,11.3c1,3.1,1.9,6,2.1,6.6c-0.3,0-0.6,0-1,0c-1.3,0-3.1,0-5.2,0c-3.2,0-5.1,0-6.1-0.1c-0.3,0-0.3,0-0.5,0
	c0-0.3,0-0.6,0-1c0-1.1,0-2.6,0-4.5c0-3.7,0-8.8,0-14.4c0-11,0-16.2,0.1-18.6C45.9,65.2,45.9,65.3,45.9,65.1L45.9,65.1z M129.1,65.1
	C129.1,65.2,129.1,65.1,129.1,65.1c0.4,1.2,1.2,3.4,2.5,7.8c0.6,2,2.5,7.7,4.9,15.4c1.8,5.5,3.1,9.6,4,12.4c0.4,1.4,0.8,2.5,1,3.2
	c0,0.1,0,0.2,0.1,0.2c-0.1,0-0.1,0-0.2,0c-1,0-2.9,0.1-6,0.1H129V84.4c0-11.3,0-16.6,0.1-19C129.1,65.3,129.1,65.3,129.1,65.1
	L129.1,65.1z"/>
<path id="rect5205-3" inkscape:connector-curvature="0" class="st0" d="M5.5,140v31.5c0,11.6,9.4,21,21,21h147c11.6,0,21-9.4,21-21
	V140H5.5z"/>
<text transform="matrix(1 0 0 1 -1231.6602 -258.1348)" class="st3" style="font-family:'Montserrat-Regular'; font-size:32px;">ORD</text>
<text transform="matrix(1 0 0 1 6.5001 181)" class="st4 st5 st6">SOZIALISTISCH</text>
</svg>
