<?xml version="1.0" encoding="UTF-8" standalone="no"?>
<!-- Created with Inkscape (http://www.inkscape.org/) -->

<svg
   xmlns:dc="http://purl.org/dc/elements/1.1/"
   xmlns:cc="http://creativecommons.org/ns#"
   xmlns:rdf="http://www.w3.org/1999/02/22-rdf-syntax-ns#"
   xmlns:svg="http://www.w3.org/2000/svg"
   xmlns="http://www.w3.org/2000/svg"
   xmlns:sodipodi="http://sodipodi.sourceforge.net/DTD/sodipodi-0.dtd"
   xmlns:inkscape="http://www.inkscape.org/namespaces/inkscape"
   width="200"
   height="200"
   viewBox="0 0 52.916667 52.916669"
   version="1.1"
   id="svg8"
   inkscape:version="0.92.1 r15371"
   sodipodi:docname="liberty.svg">
  <defs
     id="defs2" />
  <sodipodi:namedview
     id="base"
     pagecolor="#c0c0c0"
     bordercolor="#666666"
     borderopacity="1.0"
     inkscape:pageopacity="0"
     inkscape:pageshadow="2"
     inkscape:zoom="0.5"
     inkscape:cx="306.17838"
     inkscape:cy="-83.649253"
     inkscape:document-units="px"
     inkscape:current-layer="g5584"
     showgrid="false"
     units="px"
     inkscape:snap-page="true"
     inkscape:window-width="1920"
     inkscape:window-height="1016"
     inkscape:window-x="0"
     inkscape:window-y="27"
     inkscape:window-maximized="1"
     inkscape:object-paths="false"
     inkscape:object-nodes="true"
     fit-margin-top="0"
     fit-margin-left="0"
     fit-margin-right="0"
     fit-margin-bottom="0"
     showguides="false" />
  <metadata
     id="metadata5">
    <rdf:RDF>
      <cc:Work
         rdf:about="">
        <dc:format>image/svg+xml</dc:format>
        <dc:type
           rdf:resource="http://purl.org/dc/dcmitype/StillImage" />
        <dc:title></dc:title>
      </cc:Work>
    </rdf:RDF>
  </metadata>
  <g
     inkscape:label="Layer 1"
     inkscape:groupmode="layer"
     id="layer1"
     transform="translate(-5.2916647,48.54143)">
    <g
       id="g5584"
       transform="matrix(2,0,0,2,5.2916647,-48.54143)"
       style="stroke-width:0.5">
      <g
         id="g5146"
         style="stroke-width:0.5">
        <rect
           y="-1.110223e-16"
           x="0"
           height="26.458334"
           width="26.458334"
           id="rect5134"
           style="opacity:1;fill:#222222;fill-opacity:1;fill-rule:nonzero;stroke:none;stroke-width:0.25;stroke-linecap:butt;stroke-linejoin:round;stroke-miterlimit:4;stroke-dasharray:none;stroke-dashoffset:0;stroke-opacity:0.90944878;paint-order:normal"
           rx="1.984375"
           ry="1.984375" />
        <rect
           style="opacity:1;fill:#ffeb3b;fill-opacity:1;fill-rule:nonzero;stroke:none;stroke-width:0.25;stroke-linecap:butt;stroke-linejoin:round;stroke-miterlimit:4;stroke-dasharray:none;stroke-dashoffset:0;stroke-opacity:0.90944878;paint-order:normal"
           id="rect5136"
           width="23.8125"
           height="23.8125"
           x="1.322917"
           y="1.322917"
           rx="1.3229166"
           ry="1.3229166" />
        <path
           sodipodi:nodetypes="cccccscsccsccccccccsccccccssccsccsccccccccccscccscccccccccccscsscsscccccsscsssccscccccccscccsccssscccccccccscccccccccccccccccsccccccsccccccccccccccccccccc"
           inkscape:connector-curvature="0"
           id="path4587"
           d="m 10.832837,21.487109 c -0.207754,-0.04394 -0.65865,-0.189092 -0.776235,-0.249896 -0.05377,-0.02781 -0.1883227,-0.08028 -0.2990194,-0.116624 -0.49944,-0.163958 -0.9122002,-0.44783 -1.1637683,-0.800374 -0.3500617,-0.490567 -1.4805685,-2.541744 -1.4820244,-2.688962 -2.512e-4,-0.03118 0.041351,-0.128373 0.092576,-0.215986 0.2273213,-0.388804 0.3331623,-0.804136 0.2745579,-1.077401 -0.019471,-0.0908 -0.035404,-0.207623 -0.035404,-0.259595 0,-0.114097 -0.018702,-0.122191 -0.3896597,-0.168709 -0.16034,-0.02011 -0.3326475,-0.05242 -0.3829058,-0.07183 -0.082169,-0.03171 -0.091377,-0.05142 -0.091377,-0.195424 0,-0.08808 0.016826,-0.170549 0.037383,-0.183255 0.026474,-0.01636 0.030124,-0.126021 0.012499,-0.375784 -0.076653,-1.086539 0.033077,-1.550395 0.4799485,-2.028771 L 7.213505,12.943057 6.9997005,12.457833 C 6.8017271,12.008539 6.3366036,10.828873 6.2515705,10.560392 6.1885132,10.361311 6.0898802,9.8600947 6.048856,9.530304 6.0272627,9.356685 5.9957853,9.1605623 5.9789084,9.0944771 5.9620316,9.0283951 5.9482308,8.8324589 5.9482308,8.6590717 c 0,-0.1733873 -0.00943,-0.4050857 -0.020865,-0.5148854 L 5.9065001,7.9445508 5.7936715,8.0694394 C 5.655254,8.2226501 5.4813233,8.310022 5.3702429,8.2821424 5.3250774,8.2708126 5.2273108,8.2053867 5.152979,8.1367651 L 5.0178312,8.0119956 V 7.7410622 c 0,-0.1584699 -0.013791,-0.2709334 -0.033231,-0.2709334 -0.052661,0 -0.037896,-0.3731633 0.017666,-0.4466295 0.071414,-0.094412 0.059817,-0.19973 -0.034287,-0.311569 -0.045688,-0.054301 -0.083072,-0.1166891 -0.083072,-0.1386443 0,-0.021952 -0.025131,-0.082457 -0.055839,-0.1344496 -0.052302,-0.088537 -0.052302,-0.1072589 0,-0.295375 0.030708,-0.1104653 0.055839,-0.2573736 0.055839,-0.326463 0,-0.1201994 -0.00697,-0.1280853 -0.1611398,-0.1828488 C 4.5073167,5.5572709 4.4027809,5.4692326 4.2858244,5.2653133 4.1939041,5.105044 4.1877112,5.0717363 4.1874241,4.7360016 4.1871729,4.4154344 4.1978209,4.3499367 4.2889106,4.1137515 4.4092743,3.8016371 4.6162132,3.5099183 4.8285053,3.353088 4.9663302,3.2512734 4.986242,3.2191131 5.0298572,3.0279017 5.0891208,2.7680817 5.2389667,2.5720338 5.4775306,2.442191 5.6153453,2.3671784 5.7106655,2.3453185 6.0046769,2.3212552 6.2020782,2.3050961 6.395327,2.2819443 6.434119,2.2697942 c 0.054137,-0.016959 0.086855,8.408e-4 0.1407933,0.076581 0.069599,0.097754 0.2802064,0.2059197 0.4009156,0.2059197 0.054137,0 0.060145,0.018466 0.044345,0.1362778 -0.021224,0.1582012 0.014293,0.1946319 0.1907469,0.1956849 0.06396,3.771e-4 0.1721415,0.0162 0.2403911,0.035158 0.1515694,0.042089 0.3528455,-0.0041 0.4406685,-0.1011481 0.095663,-0.1057097 0.1164357,-0.080519 0.1163034,0.1410814 -1.384e-4,0.2469654 -0.086445,0.4235907 -0.2070671,0.4237896 -0.098205,1.63e-4 -0.2737376,0.1084187 -0.3401591,0.2097903 -0.075812,0.1157087 -0.019942,0.231602 0.1634775,0.3390927 0.1686985,0.098862 0.1869759,0.1585181 0.07651,0.2496867 -0.073116,0.06034 -0.073485,0.064001 -0.01661,0.1658552 0.075105,0.1345173 0.07895,0.5631074 0.00687,0.7673456 -0.08745,0.2478627 -0.3632094,0.4853417 -0.7602586,0.6547229 l -0.214878,0.091664 0.15046,0.2146103 c 0.2784491,0.3971681 0.3958598,0.6813507 0.4936623,1.1948552 0.093663,0.4917939 0.2850008,1.0194507 0.578355,1.5949748 0.5040641,0.9889094 0.5584093,1.1082939 0.7136422,1.5676958 0.084476,0.249994 0.1535893,0.478026 0.1535893,0.506736 0,0.02871 0.015042,0.0522 0.033436,0.0522 0.050313,0 1.5035827,-0.263253 1.5147137,-0.274382 0.01307,-0.01307 0.08006,-0.552674 0.08006,-0.644884 0,-0.06253 -0.114379,-0.1325221 -0.7559509,-0.4625815 C 8.5787694,9.0449472 8.1598019,8.8268405 8.143526,8.8116278 c -0.00789,-0.00738 -1.631e-4,-0.027684 0.017215,-0.045073 0.019994,-0.019994 0.1290636,-0.0082 0.2968433,0.032236 0.1458758,0.035117 0.4521408,0.1085827 0.6805879,0.163257 0.2284461,0.05467 0.66634,0.1600396 0.9730958,0.2341448 0.306756,0.07411 0.577418,0.1347388 0.601468,0.1347388 0.05716,0 0.485612,-0.3245425 0.485612,-0.3678429 0,-0.051317 -0.86973,-1.7739091 -0.901984,-1.7864807 -0.01563,-0.00605 -0.02842,-0.032257 -0.02842,-0.058146 0,-0.025888 -0.01495,-0.047073 -0.03323,-0.047073 -0.01828,0 -0.03323,-0.022628 -0.03323,-0.050292 0,-0.049339 -0.06375,-0.1827872 -0.102968,-0.2155352 -0.01094,-0.00913 -0.01967,-0.041628 -0.01938,-0.072203 5.16e-4,-0.056639 0.09211,0.036809 0.819721,0.8364586 0.207867,0.228447 0.504695,0.5536724 0.659618,0.7227234 l 0.281677,0.3073642 h 0.287859 0.287859 L 12.50339,8.1762403 C 12.551524,7.943224 12.66013,7.416134 12.744742,7.0049305 12.829351,6.5937257 12.90297,6.2528869 12.908335,6.24751 c 0.01104,-0.011063 0.03536,0.3722866 0.08496,1.338921 0.01875,0.3655154 0.04222,0.7699028 0.05217,0.8986392 l 0.01808,0.2340669 0.255328,0.098216 c 0.14043,0.054024 0.265049,0.098216 0.276932,0.098216 0.02547,0 1.489369,-1.3534982 1.650835,-1.5263318 0.124353,-0.1331085 0.173902,-0.1505091 0.148149,-0.052025 -0.0095,0.036553 -0.03058,0.066461 -0.04673,0.066461 -0.01615,0 -0.02936,0.022435 -0.02936,0.049841 0,0.027417 -0.01321,0.049841 -0.02935,0.049841 -0.01615,0 -0.03792,0.026165 -0.04839,0.058146 -0.01853,0.056608 -0.139782,0.2725799 -0.247191,0.4402797 -0.02926,0.045688 -0.235844,0.4010882 -0.45907,0.7897758 l -0.405863,0.7067039 0.146554,0.1008303 0.146555,0.1008302 0.556369,-0.1540607 c 0.306002,-0.084743 0.839046,-0.235528 1.184541,-0.3350858 0.345493,-0.099559 0.638861,-0.1767995 0.651928,-0.1716493 0.01306,0.00513 -0.422918,0.3009456 -0.968853,0.6573118 -0.70477,0.4600608 -0.988111,0.6624128 -0.977098,0.6978018 0.0085,0.02742 0.05646,0.16199 0.106498,0.299057 0.08167,0.223678 0.09169,0.298586 0.09784,0.731031 0.0067,0.469816 0.0095,0.487608 0.116839,0.714415 0.09531,0.20157 0.111723,0.275048 0.122974,0.550785 0.01119,0.274207 0.0033,0.337173 -0.05711,0.455571 -0.09101,0.178382 -0.08865,0.209508 0.02407,0.31749 0.06489,0.06217 0.186244,0.11486 0.390436,0.169531 0.565954,0.151529 1.112474,0.414579 1.288433,0.620146 0.184778,0.215873 0.292626,0.478597 0.339403,0.82681 0.08756,0.651806 0.119762,3.271091 0.137828,3.742534 l 0.01859,0.485045 -0.191725,0.3789 c -0.261837,0.517464 -0.445757,0.793896 -0.630253,0.947271 -0.08562,0.07119 -0.258273,0.264006 -0.383652,0.428488 -0.125382,0.164482 -0.292533,0.360653 -0.371451,0.435938 -0.282955,0.269927 -0.872523,0.716838 -1.1863,0.899253 -0.175758,0.102173 -0.431708,0.256528 -0.568776,0.342999 -0.388703,0.24522 -0.706054,0.393236 -1.211538,0.565073 -0.25658,0.08722 -0.616615,-2.064511 -0.800079,-1.998826 -0.341657,0.122322 -0.805004,0.221161 -1.012189,0.215911 -0.06397,-0.0016 -0.183588,-0.01718 -0.265829,-0.03456 z m 0.324281,-8.177041 c 0.08967,-0.09572 0.140921,-0.231897 0.140921,-0.374431 0,-0.101486 -0.01474,-0.119105 -0.149555,-0.178736 -0.08225,-0.03639 -0.230436,-0.14265 -0.329292,-0.236145 l -0.179738,-0.169989 -0.360203,0.112011 c -0.4483917,0.139434 -0.464439,0.174069 -0.192827,0.416153 0.13358,0.119057 0.257191,0.191859 0.429815,0.253142 0.133272,0.04731 0.307623,0.123356 0.387448,0.16899 0.176726,0.101025 0.167534,0.100697 0.253431,0.009 z m -0.53726,-1.640191 c 0.01015,-0.03857 -0.0089,-0.128293 -0.04235,-0.199371 l -0.06083,-0.129236 -0.8304728,-0.0072 -0.8304737,-0.0072 0.1734887,0.09029 c 0.1106518,0.05759 0.2113765,0.14445 0.2780984,0.239822 0.057541,0.08224 0.1790501,0.226238 0.2700301,0.319995 l 0.1654174,0.170467 0.4292999,-0.203696 c 0.311894,-0.147988 0.434357,-0.222876 0.44779,-0.273832 z"
           style="fill:#222222;fill-opacity:1;stroke-width:0.49999994" />
        <path
           inkscape:connector-curvature="0"
           id="rect5205"
           d="m 0.7276035,18.520835 v 4.167188 c 0,1.539081 1.2390438,2.778125 2.778125,2.778125 H 22.952604 c 1.539081,0 2.778125,-1.239044 2.778125,-2.778125 v -4.167188 z"
           style="opacity:1;fill:#222222;fill-opacity:1;fill-rule:nonzero;stroke:none;stroke-width:0.25;stroke-linecap:butt;stroke-linejoin:round;stroke-miterlimit:4;stroke-dasharray:none;stroke-dashoffset:0;stroke-opacity:0.90944878;paint-order:normal" />
        <text
           id="text5142"
           y="23.288628"
           x="13.045943"
           style="font-style:normal;font-variant:normal;font-weight:500;font-stretch:normal;font-size:4.23333311px;line-height:4.23333311px;font-family:Montserrat;-inkscape-font-specification:'Montserrat Medium';text-align:center;text-anchor:middle;opacity:1;fill:#eeeeee;fill-opacity:1;fill-rule:nonzero;stroke:none;stroke-width:0.25;stroke-linecap:butt;stroke-linejoin:round;stroke-miterlimit:4;stroke-dasharray:none;stroke-dashoffset:0;stroke-opacity:0.90944878;paint-order:normal"
           xml:space="preserve"><tspan
             style="font-style:normal;font-variant:normal;font-weight:500;font-stretch:normal;font-size:4.23333311px;font-family:Montserrat;-inkscape-font-specification:'Montserrat Medium';fill:#eeeeee;fill-opacity:1;stroke-width:0.25"
             y="23.288628"
             x="13.045943"
             id="tspan5140"
             sodipodi:role="line">LIBERTY</tspan></text>
      </g>
    </g>
  </g>
</svg>
