<?xml version="1.0" encoding="UTF-8" standalone="no"?>
<!-- Created with Inkscape (http://www.inkscape.org/) -->

<svg
   xmlns:dc="http://purl.org/dc/elements/1.1/"
   xmlns:cc="http://creativecommons.org/ns#"
   xmlns:rdf="http://www.w3.org/1999/02/22-rdf-syntax-ns#"
   xmlns:svg="http://www.w3.org/2000/svg"
   xmlns="http://www.w3.org/2000/svg"
   xmlns:sodipodi="http://sodipodi.sourceforge.net/DTD/sodipodi-0.dtd"
   xmlns:inkscape="http://www.inkscape.org/namespaces/inkscape"
   width="200"
   height="200"
   viewBox="0 0 52.916667 52.916669"
   version="1.1"
   id="svg8"
   inkscape:version="0.92.1 r15371"
   sodipodi:docname="might.svg">
  <defs
     id="defs2" />
  <sodipodi:namedview
     id="base"
     pagecolor="#c0c0c0"
     bordercolor="#666666"
     borderopacity="1.0"
     inkscape:pageopacity="0"
     inkscape:pageshadow="2"
     inkscape:zoom="0.5"
     inkscape:cx="306.17838"
     inkscape:cy="-83.649253"
     inkscape:document-units="px"
     inkscape:current-layer="g5584"
     showgrid="false"
     units="px"
     inkscape:snap-page="true"
     inkscape:window-width="1920"
     inkscape:window-height="1016"
     inkscape:window-x="0"
     inkscape:window-y="27"
     inkscape:window-maximized="1"
     inkscape:object-paths="false"
     inkscape:object-nodes="true"
     fit-margin-top="0"
     fit-margin-left="0"
     fit-margin-right="0"
     fit-margin-bottom="0"
     showguides="false" />
  <metadata
     id="metadata5">
    <rdf:RDF>
      <cc:Work
         rdf:about="">
        <dc:format>image/svg+xml</dc:format>
        <dc:type
           rdf:resource="http://purl.org/dc/dcmitype/StillImage" />
        <dc:title></dc:title>
      </cc:Work>
    </rdf:RDF>
  </metadata>
  <g
     inkscape:label="Layer 1"
     inkscape:groupmode="layer"
     id="layer1"
     transform="translate(-5.2916647,48.54143)">
    <g
       id="g5584"
       transform="matrix(2,0,0,2,5.2916647,-48.54143)"
       style="stroke-width:0.5">
      <g
         id="g5250"
         style="stroke-width:0.5">
        <rect
           ry="1.984375"
           rx="1.984375"
           style="opacity:1;fill:#222222;fill-opacity:1;fill-rule:nonzero;stroke:none;stroke-width:0.25;stroke-linecap:butt;stroke-linejoin:round;stroke-miterlimit:4;stroke-dasharray:none;stroke-dashoffset:0;stroke-opacity:0.90944878;paint-order:normal"
           id="rect5238"
           width="26.458334"
           height="26.458334"
           x="0"
           y="-1.110223e-16" />
        <rect
           ry="1.3229166"
           rx="1.3229166"
           y="1.322917"
           x="1.322917"
           height="23.8125"
           width="23.8125"
           id="rect5240"
           style="opacity:1;fill:#ff9800;fill-opacity:1;fill-rule:nonzero;stroke:none;stroke-width:0.25;stroke-linecap:butt;stroke-linejoin:round;stroke-miterlimit:4;stroke-dasharray:none;stroke-dashoffset:0;stroke-opacity:0.90944878;paint-order:normal" />
        <path
           style="opacity:1;fill:#222222;fill-opacity:1;fill-rule:nonzero;stroke:none;stroke-width:0.25;stroke-linecap:butt;stroke-linejoin:round;stroke-miterlimit:4;stroke-dasharray:none;stroke-dashoffset:0;stroke-opacity:0.90944878;paint-order:normal"
           d="m 0.7276035,18.520835 v 4.167188 c 0,1.539081 1.2390438,2.778125 2.778125,2.778125 H 22.952604 c 1.539081,0 2.778125,-1.239044 2.778125,-2.778125 v -4.167188 z"
           id="path5244"
           inkscape:connector-curvature="0" />
        <text
           xml:space="preserve"
           style="font-style:normal;font-variant:normal;font-weight:500;font-stretch:normal;font-size:4.23333311px;line-height:4.23333311px;font-family:Montserrat;-inkscape-font-specification:'Montserrat Medium';text-align:center;text-anchor:middle;opacity:1;fill:#eeeeee;fill-opacity:1;fill-rule:nonzero;stroke:none;stroke-width:0.25;stroke-linecap:butt;stroke-linejoin:round;stroke-miterlimit:4;stroke-dasharray:none;stroke-dashoffset:0;stroke-opacity:0.90944878;paint-order:normal"
           x="13.045943"
           y="23.288628"
           id="text5248"><tspan
             sodipodi:role="line"
             id="tspan5246"
             x="13.045943"
             y="23.288628"
             style="font-style:normal;font-variant:normal;font-weight:500;font-stretch:normal;font-size:4.23333311px;font-family:Montserrat;-inkscape-font-specification:'Montserrat Medium';fill:#eeeeee;fill-opacity:1;stroke-width:0.25">MIGHT</tspan></text>
        <path
           inkscape:connector-curvature="0"
           id="path5277"
           d="m 3.1274994,3.8365297 c 2.013e-4,0.023171 0.071906,0.4611583 0.1594602,0.9733076 L 3.446148,5.7410169 3.838957,6.1409446 C 4.0550024,6.3609042 5.3459466,7.6580081 6.7077216,9.0233962 L 9.1836775,11.505922 7.8461693,12.843431 6.5086607,14.180938 6.2171159,13.890297 5.925571,13.599656 4.8791424,13.244648 3.8327146,12.88964 l 1.1780295,1.178447 1.1780294,1.178446 -1.1913403,1.18821 -1.1913414,1.18821 -0.1461864,0.01584 c -0.5294869,0.05736 -0.9062925,0.575598 -0.7984417,1.098128 0.043074,0.208694 0.1055019,0.324936 0.254554,0.47399 0.1508261,0.150827 0.2685273,0.213465 0.4851884,0.258217 0.1891711,0.03908 0.4161677,0.0061 0.5986616,-0.08703 0.2494428,-0.127258 0.4579709,-0.434189 0.4887866,-0.719443 l 0.015319,-0.141822 1.188209,-1.191339 1.1882087,-1.191341 1.1673901,1.164719 C 8.959855,18.013315 9.40761,18.44163 9.395781,18.401034 9.385111,18.364434 9.2292297,17.898414 9.0493668,17.365445 L 8.722344,16.396413 8.4341666,16.107339 8.1459889,15.818266 l 1.3375191,-1.33752 1.337519,-1.337519 1.337518,1.337519 1.337518,1.33752 -0.285114,0.286399 -0.285117,0.286397 -0.346917,1.020844 c -0.190803,0.561463 -0.346916,1.028631 -0.346916,1.03815 0,0.0096 0.527119,-0.50971 1.171374,-1.153841 l 1.171375,-1.171149 1.181271,1.181049 1.181273,1.181048 0.01404,0.155041 c 0.04876,0.537761 0.570872,0.934041 1.089497,0.826921 0.21666,-0.04476 0.334364,-0.107391 0.485186,-0.258217 0.149054,-0.149052 0.211482,-0.265296 0.254555,-0.473988 0.107852,-0.522532 -0.268953,-1.040766 -0.79844,-1.098132 l -0.146187,-0.01584 -1.191342,-1.18821 -1.191339,-1.18821 1.177472,-1.177694 1.177472,-1.177696 -1.045882,0.354268 -1.045881,0.354269 -0.291535,0.290628 -0.291534,0.29063 -1.337512,-1.33751 L 12.45835,11.505912 15.327687,8.6364805 18.197026,5.76705 18.362434,4.7916546 c 0.09097,-0.5364682 0.15948,-0.9810155 0.152235,-0.9878835 -0.0072,-0.00686 -0.444451,0.059104 -0.971569,0.146604 L 16.584721,4.1094717 13.702875,6.9890106 10.821028,9.8685484 7.9458298,6.9934018 5.0706336,4.1182572 4.0989306,3.9563297 C 3.2635464,3.8171182 3.1272661,3.8003118 3.1274994,3.8365297 Z"
           style="fill:#222222;fill-opacity:1;stroke-width:0.5" />
      </g>
    </g>
  </g>
</svg>
