<?xml version="1.0" encoding="utf-8"?>
<!-- Generator: Adobe Illustrator 22.0.1, SVG Export Plug-In . SVG Version: 6.00 Build 0)  -->
<svg version="1.1"
	 id="svg8" inkscape:version="0.92.1 r15371" sodipodi:docname="might.svg" xmlns:cc="http://creativecommons.org/ns#" xmlns:dc="http://purl.org/dc/elements/1.1/" xmlns:inkscape="http://www.inkscape.org/namespaces/inkscape" xmlns:rdf="http://www.w3.org/1999/02/22-rdf-syntax-ns#" xmlns:sodipodi="http://sodipodi.sourceforge.net/DTD/sodipodi-0.dtd" xmlns:svg="http://www.w3.org/2000/svg"
	 xmlns="http://www.w3.org/2000/svg" xmlns:xlink="http://www.w3.org/1999/xlink" x="0px" y="0px" viewBox="0 0 200 200"
	 style="enable-background:new 0 0 200 200;" xml:space="preserve">
<style type="text/css">
	.st0{fill:#222222;}
	.st1{fill:#FF9800;}
	.st2{fill:#FFFFFF;}
	.st3{font-family:'Quadriga';}
	.st4{font-size:29.2px;}
</style>
<defs>
	
	
		<inkscape:path-effect  bendpath1="m -199.08406,108.42369 h 7.0057" bendpath2="m -192.07836,108.42369 v 6.75242" bendpath3="m -199.08406,115.17611 h 7.0057" bendpath4="m -199.08406,108.42369 v 6.75242" effect="envelope" id="path-effect4658" is_visible="true" xx="true" yy="true">
		</inkscape:path-effect>
	
		<inkscape:path-effect  bendpath="m -192.00142,114.60623 c 2.12577,-0.53066 4.48261,0.85111 7.0057,0" bendpath-nodetypes="cc" effect="bend_path" id="path-effect4656" is_visible="true" prop_scale="1" scale_y_rel="false" vertical="false">
		</inkscape:path-effect>
	<inkscape:path-effect  effect="bounding_box" id="path-effect4654" is_visible="true" linkedpath="" visualbounds="false">
		</inkscape:path-effect>
</defs>
<sodipodi:namedview  bordercolor="#666666" borderopacity="1.0" fit-margin-bottom="0" fit-margin-left="0" fit-margin-right="0" fit-margin-top="0" id="base" inkscape:current-layer="layer1" inkscape:cx="859.81981" inkscape:cy="-94.531022" inkscape:document-units="mm" inkscape:object-nodes="true" inkscape:pageopacity="0.0" inkscape:pageshadow="2" inkscape:snap-page="true" inkscape:window-height="1016" inkscape:window-maximized="1" inkscape:window-width="1920" inkscape:window-x="0" inkscape:window-y="27" inkscape:zoom="0.70710678" pagecolor="#ffffff" showgrid="false" showguides="false" units="px">
	</sodipodi:namedview>
<path id="rect5238-5" class="st0" d="M15,0h170c8.3,0,15,6.7,15,15v170c0,8.3-6.7,15-15,15H15c-8.3,0-15-6.7-15-15V15
	C0,6.7,6.7,0,15,0z"/>
<path id="rect5240-3" class="st1" d="M20,10h160c5.5,0,10,4.5,10,10v160c0,5.5-4.5,10-10,10H20c-5.5,0-10-4.5-10-10V20
	C10,14.5,14.5,10,20,10z"/>
<path id="path4773-5" inkscape:connector-curvature="0" class="st0" d="M69.5,23.5c8,0,12.3,2.2,17,8.7
	c9.9,13.5,12.6,15.3,22.6,15.3c8.6,0,15.1-1.9,34.3-9.8c2.2-0.9,5.6,17.7,7.5,40.7L152,92l-5.6,2.5c-15.4,6.7-28.7,9.3-36.5,6.9
	c-4.5-1.4-8.1-5-14.4-14.6C90,78.6,83.3,76.1,72,78c-7.3,1.2-21.1,5.9-21.3,7.1c-0.1,0.5,3.3,16,7.4,34.6l6.9,30.7
	c-3.2-0.1-6.3-0.4-9.4-0.9c-0.9-6.3-4.5-23-11.9-56.4c-7.4-33.4-12.9-60-12.6-61.1c0.9-3,3.1-3.8,5.4-1.9l1.9,1.6l5.5-2.2
	C53.6,25.8,63.1,23.5,69.5,23.5z M40.6,38.2c-0.1,0-0.2,0-0.2,0.1c-0.2,0.2,1.7,9.4,4.1,20.4c3,13.4,4.7,19.6,5.2,18.7
	c0.4-0.7,1.1-4.4,1.6-8.1c1-8.3-0.1-15.6-3.2-22C46.1,43.3,41.9,38.2,40.6,38.2L40.6,38.2z"/>
<path id="path5244-6" inkscape:connector-curvature="0" class="st0" d="M5.5,140v31.5c0,11.6,9.4,21,21,21h147c11.6,0,21-9.4,21-21
	V140H5.5z"/>
<text transform="matrix(1 0 0 1 40.3998 182)" class="st2 st3 st4">NATIONAL</text>
</svg>
