<?xml version="1.0" encoding="UTF-8" standalone="no"?>
<!-- Created with Inkscape (http://www.inkscape.org/) -->

<svg
   xmlns:dc="http://purl.org/dc/elements/1.1/"
   xmlns:cc="http://creativecommons.org/ns#"
   xmlns:rdf="http://www.w3.org/1999/02/22-rdf-syntax-ns#"
   xmlns:svg="http://www.w3.org/2000/svg"
   xmlns="http://www.w3.org/2000/svg"
   xmlns:sodipodi="http://sodipodi.sourceforge.net/DTD/sodipodi-0.dtd"
   xmlns:inkscape="http://www.inkscape.org/namespaces/inkscape"
   width="200"
   height="200"
   viewBox="0 0 52.916667 52.916669"
   version="1.1"
   id="svg8"
   inkscape:version="0.92.1 r15371"
   sodipodi:docname="peace.svg">
  <defs
     id="defs2" />
  <sodipodi:namedview
     id="base"
     pagecolor="#c0c0c0"
     bordercolor="#666666"
     borderopacity="1.0"
     inkscape:pageopacity="0"
     inkscape:pageshadow="2"
     inkscape:zoom="0.5"
     inkscape:cx="306.17838"
     inkscape:cy="-83.649253"
     inkscape:document-units="px"
     inkscape:current-layer="g5584"
     showgrid="false"
     units="px"
     inkscape:snap-page="true"
     inkscape:window-width="1920"
     inkscape:window-height="1016"
     inkscape:window-x="0"
     inkscape:window-y="27"
     inkscape:window-maximized="1"
     inkscape:object-paths="false"
     inkscape:object-nodes="true"
     fit-margin-top="0"
     fit-margin-left="0"
     fit-margin-right="0"
     fit-margin-bottom="0"
     showguides="false" />
  <metadata
     id="metadata5">
    <rdf:RDF>
      <cc:Work
         rdf:about="">
        <dc:format>image/svg+xml</dc:format>
        <dc:type
           rdf:resource="http://purl.org/dc/dcmitype/StillImage" />
        <dc:title></dc:title>
      </cc:Work>
    </rdf:RDF>
  </metadata>
  <g
     inkscape:label="Layer 1"
     inkscape:groupmode="layer"
     id="layer1"
     transform="translate(-5.2916647,48.54143)">
    <g
       id="g5584"
       transform="matrix(2,0,0,2,5.2916647,-48.54143)"
       style="stroke-width:0.5">
      <g
         id="g5264"
         style="stroke-width:0.5">
        <rect
           y="-1.110223e-16"
           x="0"
           height="26.458334"
           width="26.458334"
           id="rect5252"
           style="opacity:1;fill:#222222;fill-opacity:1;fill-rule:nonzero;stroke:none;stroke-width:0.25;stroke-linecap:butt;stroke-linejoin:round;stroke-miterlimit:4;stroke-dasharray:none;stroke-dashoffset:0;stroke-opacity:0.90944878;paint-order:normal"
           rx="1.984375"
           ry="1.984375" />
        <rect
           style="opacity:1;fill:#03a9f4;fill-opacity:1;fill-rule:nonzero;stroke:none;stroke-width:0.25;stroke-linecap:butt;stroke-linejoin:round;stroke-miterlimit:4;stroke-dasharray:none;stroke-dashoffset:0;stroke-opacity:0.90944878;paint-order:normal"
           id="rect5254"
           width="23.8125"
           height="23.8125"
           x="1.322917"
           y="1.322917"
           rx="1.3229166"
           ry="1.3229166" />
        <path
           inkscape:connector-curvature="0"
           id="path5305"
           d="m 6.268127,21.709471 c 0.089728,-0.09631 0.1579292,-0.117365 0.2308356,-0.07126 0.2875218,0.181824 0.91061,-0.0068 0.91061,-0.27562 0,-0.208053 0.081581,-0.222714 0.2249671,-0.04043 0.1804845,0.229449 0.4999343,0.231174 0.7106239,0.0038 0.1228506,-0.132557 0.184236,-0.153923 0.2831754,-0.09856 0.1495573,0.0837 0.5617146,0.01976 0.6635373,-0.102928 0.039377,-0.04745 0.092822,-0.170839 0.1187666,-0.274208 0.030437,-0.12127 0.081726,-0.174685 0.1445742,-0.150567 0.1547296,0.05937 0.7252389,-0.253034 0.8311219,-0.45512 0.08273,-0.1579 0.135706,-0.181133 0.373793,-0.163943 0.217898,0.01573 0.32643,-0.02123 0.505978,-0.172307 0.191605,-0.161224 0.222797,-0.227961 0.192838,-0.41258 -0.03344,-0.206067 -0.02355,-0.218455 0.153648,-0.192448 0.136319,0.02001 0.271139,-0.03775 0.481132,-0.206125 0.160459,-0.128656 0.293374,-0.274657 0.295367,-0.324448 0.0063,-0.156386 -0.262267,-0.620719 -0.553676,-0.957416 -0.337181,-0.389565 -0.479581,-0.789919 -0.360265,-1.012865 0.04458,-0.08329 0.280504,-0.277404 0.524288,-0.431367 0.394582,-0.249201 0.521041,-0.393592 1.151917,-1.315256 0.684102,-0.999425 1.108187,-1.512174 1.34104,-1.621415 0.06114,-0.02867 0.237483,-0.03488 0.391891,-0.01376 l 0.280741,0.03838 -0.210556,0.146657 c -0.115806,0.08067 -0.344785,0.220708 -0.508842,0.311211 -0.335337,0.184992 -0.348407,0.212368 -0.175463,0.367479 0.113354,0.101662 0.16611,0.07868 0.684305,-0.298192 0.308815,-0.224593 0.585168,-0.393739 0.61412,-0.37588 0.02895,0.01786 0.05426,-0.0088 0.05624,-0.0594 0.002,-0.05053 0.224458,-0.265584 0.494392,-0.477894 0.751006,-0.590685 2.038427,-1.940415 2.334703,-2.447698 0.31738,-0.54342 0.299641,-0.6401104 -0.0254,-0.138478 -0.360063,0.555672 -1.497784,1.700025 -2.264041,2.277238 -0.379298,0.285721 -0.716032,0.519493 -0.748297,0.519493 -0.066,0 -0.187405,-0.280084 -0.258592,-0.596574 -0.143352,-0.637341 -0.504496,-0.900904 -1.186276,-0.86574 -0.263153,0.01357 -0.465908,-0.0062 -0.479474,-0.04667 -0.05827,-0.173965 0.06426,-0.309348 0.444433,-0.491052 0.80713,-0.385772 0.945907,-0.687365 0.560873,-1.21889 L 14.285474,9.7724341 14.401531,9.4176091 C 14.498941,9.1198114 14.50382,9.0168473 14.431961,8.7769773 14.384861,8.6197843 14.271778,7.9666069 14.180661,7.325472 13.947377,5.6839561 13.776364,5.2648357 13.065563,4.59259 12.758714,4.3023843 12.630702,4.2253766 12.483845,4.242648 12.33545,4.2601 12.28236,4.316032 12.233296,4.5066081 c -0.03424,0.1329986 -0.04913,0.3104895 -0.03308,0.3944242 l 0.02917,0.1526085 -0.235337,-0.1388529 c -0.300306,-0.1771841 -0.443554,-0.079979 -0.443554,0.3009881 0,0.2229354 0.0432,0.3026541 0.261639,0.4827018 0.315287,0.259886 0.252232,0.2837576 -0.106193,0.040202 -0.395897,-0.2690179 -0.580096,-0.2197945 -0.680931,0.1819636 -0.0407,0.1621697 -0.0047,0.2059007 0.343333,0.4168193 0.446805,0.2707925 0.481035,0.3393472 0.06721,0.1346011 -0.679047,-0.3359655 -0.908754,-0.3002009 -0.982289,0.1529385 -0.04045,0.2492511 -0.03491,0.2566164 0.284635,0.3786523 0.179238,0.068451 0.343512,0.1529766 0.365055,0.1878343 0.02154,0.034857 -0.07809,0.01438 -0.221419,-0.045503 -0.143323,-0.059884 -0.396563,-0.1088806 -0.562755,-0.1088806 -0.242841,0 -0.3307277,0.036308 -0.4476327,0.1849277 -0.080005,0.1017107 -0.1454636,0.2096772 -0.1454636,0.2399258 0,0.030249 0.2073096,0.1239859 0.4606863,0.2083047 0.542832,0.180643 0.562863,0.2683502 0.02479,0.1085607 C 9.6598696,7.6151081 9.4121392,7.6341975 9.2394789,7.8536992 9.1594734,7.9554096 9.0940146,8.0620079 9.0940146,8.090584 c 0,0.028577 0.1500208,0.1149114 0.3333796,0.1918566 l 0.3333791,0.1398998 -0.3750061,-0.00831 c -0.3426978,-0.0076 -0.3900364,0.01095 -0.5494535,0.2152815 L 8.6618663,8.8529021 8.9305794,8.9976897 c 0.2226988,0.1199947 0.2356626,0.1374911 0.075704,0.1021765 -0.1061556,-0.023436 -0.2719675,-0.022795 -0.3684721,0.00144 -0.1443201,0.036222 -0.1754628,0.086589 -0.1754628,0.28378 0,0.1318583 0.030802,0.3207569 0.068448,0.4197744 0.037646,0.099013 0.052106,0.1800322 0.032132,0.1800322 -0.019975,0 -0.4692538,-0.3589401 -0.9984011,-0.7976449 C 6.5295014,8.3291227 5.4215197,7.2193699 4.9471053,6.5656351 4.7851207,6.3424224 4.5603402,6.0615342 4.4475928,5.9414392 4.3348459,5.8213442 4.0155638,5.2873131 3.7380771,4.754703 3.2063004,3.734008 3.0779472,3.5785774 2.9023216,3.7426366 2.8107176,3.8282076 2.8189086,3.907025 2.9709776,4.4032241 3.0659456,4.7131065 3.1907924,5.0613969 3.2484123,5.1772023 3.3516121,5.3846124 3.3499667,5.3840882 3.1383017,5.1421103 l -0.214875,-0.2456481 -0.00285,0.320028 c -0.00249,0.2796444 0.037002,0.3667185 0.3129807,0.6900355 0.3794961,0.444591 0.4104421,0.5473405 0.064573,0.2143979 l -0.2512622,-0.24187 0.045435,0.2807405 c 0.097164,0.6003668 0.1225798,0.6694863 0.2964766,0.8062737 0.098746,0.077674 0.1443009,0.1412256 0.1012321,0.1412256 -0.052732,0 -0.064108,0.1088867 -0.034833,0.3333796 0.059651,0.4574226 0.1349691,0.5788335 0.3598738,0.580102 0.1047962,5.836e-4 0.237915,0.033081 0.2958177,0.0722 0.080556,0.054423 0.055833,0.066532 -0.1052781,0.051564 C 3.7975221,8.12521 3.795279,8.128679 3.8155721,8.438516 c 0.021911,0.3345531 0.077783,0.4028245 0.3841417,0.4693982 0.1684513,0.036606 0.1792471,0.05306 0.081643,0.12443 -0.1014607,0.074189 -0.096413,0.1073926 0.051527,0.3389596 0.1570631,0.2458476 0.1818294,0.2571912 0.5851159,0.2679817 l 0.4211104,0.011264 -0.3333794,0.069476 c -0.1833585,0.038216 -0.3333792,0.093812 -0.3333792,0.1235385 0,0.072008 0.7296417,0.632609 0.8233602,0.632609 0.040397,0 0.069064,0.0525 0.063702,0.116671 -0.013754,0.164622 0.6872623,0.45507 0.9970425,0.413098 l 0.2347539,-0.0318 -0.1821148,0.168777 c -0.1001631,0.09282 -0.1821152,0.236434 -0.1821152,0.319124 0,0.08269 0.186948,0.409307 0.41544,0.725816 0.228491,0.31651 0.4986251,0.757337 0.6002976,0.979615 0.1016724,0.222279 0.3259762,0.636582 0.4984534,0.920675 0.1724772,0.284094 0.3472704,0.613134 0.3884292,0.731203 0.1714237,0.491747 -0.2430379,1.011272 -1.2664362,1.587472 -0.3428072,0.193009 -0.9183332,0.534019 -1.2789471,0.757799 -1.311726,0.813995 -1.7161826,1.033126 -2.1184494,1.147756 -0.4449971,0.126806 -0.5216918,0.21288 -0.3971061,0.44567 0.06389,0.11938 0.056996,0.211371 -0.032629,0.435365 -0.10536,0.263321 -0.1050803,0.293457 0.00384,0.413812 0.064611,0.07139 0.178329,0.149123 0.2527057,0.172729 0.1256216,0.03988 0.127457,0.05479 0.025837,0.209878 -0.2409889,0.367796 -0.058183,0.873748 0.3156957,0.873748 0.1699168,0 0.2065759,0.02921 0.2065759,0.164585 0,0.212459 0.2248162,0.414646 0.4280789,0.384989 0.1015905,-0.01483 0.2283163,0.04644 0.3513144,0.169824 0.2007344,0.201369 0.3133324,0.232246 0.4745226,0.130128 0.058487,-0.03706 0.1679416,-0.02312 0.2807405,0.03574 0.2614409,0.136414 0.5439762,0.120357 0.6927847,-0.03937 z m 13.318995,-9.225253 c 0.355239,-0.111339 1.438367,-0.672013 1.438367,-0.744563 0,-0.02992 -0.08686,-0.07016 -0.193009,-0.08942 -0.10615,-0.01926 -0.458816,-0.105384 -0.78369,-0.191371 -0.850097,-0.225011 -1.138959,-0.157997 -2.367456,0.54923 l -0.22092,0.127178 0.185826,0.08045 c 0.102204,0.04425 0.295874,0.144702 0.430379,0.22323 0.286465,0.167247 1.048447,0.190081 1.510503,0.04527 z m -2.361651,-0.886535 c 0.335069,-0.453205 0.4402,-1.079206 0.290288,-1.7285258 -0.101481,-0.4395601 -0.496516,-1.498535 -0.559002,-1.498535 -0.06874,0 -0.303521,0.5450614 -0.451396,1.0479695 -0.208905,0.7104693 -0.103449,1.5810213 0.255733,2.1111553 0.211186,0.311698 0.277034,0.321332 0.464377,0.06793 z M 19.749317,10.7472 c 0.166646,-0.08248 0.649297,-0.477255 1.072559,-0.8772599 0.423261,-0.4000048 0.815935,-0.7272814 0.872608,-0.7272814 0.05667,0 0.103045,-0.03217 0.103045,-0.071489 0,-0.1018064 -0.791515,-0.017319 -1.148252,0.122567 -0.159799,0.062662 -0.389375,0.1797717 -0.510171,0.2602449 -0.349999,0.233168 -1.49562,1.3232804 -1.456753,1.3861684 0.07277,0.117746 0.76274,0.05764 1.066967,-0.09295 z M 18.522631,9.9006396 c 0.406325,-0.5327203 0.486265,-1.0386948 0.293355,-1.8567503 -0.12854,-0.545084 -0.451222,-1.3577104 -0.539127,-1.3577104 -0.08372,0 -0.331499,0.5541914 -0.454845,1.0173229 -0.208904,0.7843701 -0.05958,1.7212058 0.356383,2.2360082 l 0.161828,0.200276 z M 19.625345,9.1879085 C 20.18643,8.7470707 20.504247,8.345508 20.710555,7.816741 20.911197,7.302499 21.170653,6.1018553 21.088462,6.0679577 20.98729,6.0262317 20.488489,6.3268927 20.141874,6.638529 19.515399,7.2017844 19.179664,8.0431119 19.215152,8.9608318 l 0.02061,0.5331629 z"
           style="fill:#222222;fill-opacity:1;stroke-width:0.49999994" />
        <path
           style="opacity:1;fill:#222222;fill-opacity:1;fill-rule:nonzero;stroke:none;stroke-width:0.24999997;stroke-linecap:butt;stroke-linejoin:round;stroke-miterlimit:4;stroke-dasharray:none;stroke-dashoffset:0;stroke-opacity:0.90944878;paint-order:normal"
           d="m 0.72760492,18.520836 v 4.167188 c 0,1.539081 1.23904398,2.778124 2.77812498,2.778124 H 22.952604 c 1.539081,0 2.778125,-1.239043 2.778125,-2.778124 v -4.167188 z"
           id="path5258"
           inkscape:connector-curvature="0" />
        <text
           id="text5262"
           y="23.288628"
           x="13.045943"
           style="font-style:normal;font-variant:normal;font-weight:500;font-stretch:normal;font-size:4.23333311px;line-height:4.23333311px;font-family:Montserrat;-inkscape-font-specification:'Montserrat Medium';text-align:center;letter-spacing:0px;text-anchor:middle;opacity:1;fill:#eeeeee;fill-opacity:1;fill-rule:nonzero;stroke:none;stroke-width:0.25;stroke-linecap:butt;stroke-linejoin:round;stroke-miterlimit:4;stroke-dasharray:none;stroke-dashoffset:0;stroke-opacity:0.90944878;paint-order:normal"
           xml:space="preserve"><tspan
             style="font-style:normal;font-variant:normal;font-weight:500;font-stretch:normal;font-size:4.23333311px;font-family:Montserrat;-inkscape-font-specification:'Montserrat Medium';letter-spacing:0px;fill:#eeeeee;fill-opacity:1;stroke-width:0.25"
             y="23.288628"
             x="13.045943"
             id="tspan5260"
             sodipodi:role="line">PEACE</tspan></text>
      </g>
    </g>
  </g>
</svg>
