<?xml version="1.0" encoding="utf-8"?>
<!-- Generator: Adobe Illustrator 22.0.1, SVG Export Plug-In . SVG Version: 6.00 Build 0)  -->
<svg version="1.1"
	 id="svg8" inkscape:version="0.92.1 r15371" sodipodi:docname="peace.svg" xmlns:cc="http://creativecommons.org/ns#" xmlns:dc="http://purl.org/dc/elements/1.1/" xmlns:inkscape="http://www.inkscape.org/namespaces/inkscape" xmlns:rdf="http://www.w3.org/1999/02/22-rdf-syntax-ns#" xmlns:sodipodi="http://sodipodi.sourceforge.net/DTD/sodipodi-0.dtd" xmlns:svg="http://www.w3.org/2000/svg"
	 xmlns="http://www.w3.org/2000/svg" xmlns:xlink="http://www.w3.org/1999/xlink" x="0px" y="0px" viewBox="0 0 200 200"
	 style="enable-background:new 0 0 200 200;" xml:space="preserve">
<style type="text/css">
	.st0{fill:#222222;}
	.st1{fill:#03A9F4;}
	.st2{fill:#FFFFFF;}
	.st3{font-family:'Quadriga';}
	.st4{font-size:29.2px;}
</style>
<defs>
	
	
		<inkscape:path-effect  bendpath1="m -199.08406,108.42369 h 7.0057" bendpath2="m -192.07836,108.42369 v 6.75242" bendpath3="m -199.08406,115.17611 h 7.0057" bendpath4="m -199.08406,108.42369 v 6.75242" effect="envelope" id="path-effect4658" is_visible="true" xx="true" yy="true">
		</inkscape:path-effect>
	
		<inkscape:path-effect  bendpath="m -192.00142,114.60623 c 2.12577,-0.53066 4.48261,0.85111 7.0057,0" bendpath-nodetypes="cc" effect="bend_path" id="path-effect4656" is_visible="true" prop_scale="1" scale_y_rel="false" vertical="false">
		</inkscape:path-effect>
	<inkscape:path-effect  effect="bounding_box" id="path-effect4654" is_visible="true" linkedpath="" visualbounds="false">
		</inkscape:path-effect>
</defs>
<sodipodi:namedview  bordercolor="#666666" borderopacity="1.0" fit-margin-bottom="0" fit-margin-left="0" fit-margin-right="0" fit-margin-top="0" id="base" inkscape:current-layer="layer1" inkscape:cx="766.04529" inkscape:cy="-11.092422" inkscape:document-units="mm" inkscape:object-nodes="true" inkscape:pageopacity="0.0" inkscape:pageshadow="2" inkscape:snap-page="true" inkscape:window-height="1016" inkscape:window-maximized="1" inkscape:window-width="1920" inkscape:window-x="0" inkscape:window-y="27" inkscape:zoom="0.70710678" pagecolor="#ffffff" showgrid="false" showguides="false" units="px">
	</sodipodi:namedview>
<path id="rect5252-2" class="st0" d="M15,0h170c8.3,0,15,6.7,15,15v170c0,8.3-6.7,15-15,15H15c-8.3,0-15-6.7-15-15V15
	C0,6.7,6.7,0,15,0z"/>
<path id="rect5254-7" class="st1" d="M20,10h160c5.5,0,10,4.5,10,10v160c0,5.5-4.5,10-10,10H20c-5.5,0-10-4.5-10-10V20
	C10,14.5,14.5,10,20,10z"/>
<path id="path4806-0" inkscape:connector-curvature="0" class="st0" d="M87.8,19.3c-2.2,0-4.4,0.1-5.7,0.2
	C67.7,20.8,55.1,25.9,44,35c-2.4,2-7.1,6.7-9.1,9.1c-9,10.9-14.1,23.4-15.6,37.6c-0.3,2.9-0.3,9.2-0.1,12c1.4,14.7,6.7,27.5,16,38.7
	c0.8,0.9,2.5,2.8,4,4.3c3.7,3.7,6.6,6,10.8,8.9c9.6,6.3,21,10.3,32.4,11.1c1.1,0.1,2.3,0.2,2.7,0.2c1.6,0.1,6.8-0.1,9.1-0.3
	c8.6-0.8,16.6-3.1,24.4-6.9c20.2-10,34.2-29.5,37.4-51.7c0.5-3.7,0.7-6.1,0.7-10c0-7.7-1.1-14.6-3.6-21.8
	c-2.7-8.1-6.9-15.6-12.6-22.4c-1.8-2.1-6.2-6.6-8.3-8.3c-11.3-9.4-24-14.6-38.7-16C92.2,19.4,90,19.3,87.8,19.3L87.8,19.3z
	 M71.7,30.1c-3.4,3.8-7.2,8.7-10.1,13.5c-1.4,2.3-3.5,6.3-4.7,9.1c-0.2,0.5-0.4,0.9-0.5,1.2c-0.1,0-0.1,0-0.2-0.1
	c-0.6-0.2-1.4-0.6-2.3-1c-1.8-0.8-4-1.9-5.6-2.8c-1.1-0.6-2.5-1.4-3.6-2.1c-0.4-0.3-0.8-0.5-1.1-0.7c0.1-0.2,0.3-0.3,0.5-0.5
	c4.9-5.1,10.1-9,16.3-12.2C63.6,32.6,67.9,31.2,71.7,30.1L71.7,30.1z M103.8,30.1c9.2,2.6,18.3,7.4,25.1,13.8c1.1,1.1,2.1,2,2.8,2.7
	c0.2,0.2,0.2,0.2,0.3,0.4c-0.3,0.2-0.7,0.5-1.2,0.7c-1.1,0.7-2.4,1.4-3.3,1.9c-0.8,0.4-2.6,1.4-3.9,2c-1.3,0.7-3.1,1.5-3.9,1.8
	l-0.6,0.3l-0.2-0.4c-0.9-2.1-3.8-7.6-4.8-9.3C111.3,39.1,107.5,34.2,103.8,30.1z M83.5,30.2c0,0.8,0,1.6,0,2.8c0,3,0,7.1,0,11.6V60
	h-0.2c-3.2-0.1-9.5-0.9-13.9-1.9c-1.6-0.4-3.1-0.8-4.2-1.1c-0.4-0.1-0.6-0.2-0.9-0.3c0.2-0.4,0.4-0.9,0.7-1.4
	c0.6-1.2,1.3-2.6,1.9-3.7c3.6-6.6,7.2-11.7,12.3-17.1c0.7-0.8,2.2-2.2,3.4-3.4C83,30.7,83.2,30.5,83.5,30.2z M92.1,30.2
	c0.2,0.2,0.3,0.3,0.5,0.5c1,1,2.2,2.1,2.9,2.8c5.4,5.6,9.4,11.1,13.1,17.9c0.5,1,1.3,2.5,1.8,3.7c0.3,0.6,0.5,1.1,0.7,1.5
	c-0.3,0.1-0.6,0.2-1.1,0.3c-4.9,1.4-10.5,2.4-15.7,2.8c-0.9,0.1-2,0.1-2.5,0.1V44.5c0-5.1,0-9.2,0-12C92,31.5,92,30.9,92.1,30.2
	L92.1,30.2z M38.2,53.8c0.2,0.1,0.4,0.2,0.7,0.4c4.2,2.7,9.5,5.5,14,7.4c0.3,0.1,0.3,0.2,0.5,0.2c-0.1,0.3-0.2,0.6-0.4,1.2
	c-2,6.5-3.4,14.3-3.7,20.8l-10.9,0l-10.8,0l0-0.5c0.1-1.8,0.4-4.1,0.8-6.4c1-5.6,3.1-11.5,5.7-16.5C35.3,58.2,37.2,55.2,38.2,53.8
	L38.2,53.8z M137.3,53.8c4.2,6.3,7.2,12.6,9,19.5c0.9,3.5,1.6,8.6,1.7,10.5h-10.7c-3.2,0-6.2,0-8.3,0c-1.1,0-1.9,0-2.5,0
	c-0.1,0-0.1,0-0.1,0c0,0,0,0,0,0c0-3.1-0.8-9.3-1.9-14c-0.5-2.2-1.6-6.6-2.2-8c0.2-0.1,0.3-0.1,0.5-0.2c4.5-1.9,9.8-4.7,14-7.4
	C137,54,137.1,53.9,137.3,53.8L137.3,53.8z M114.5,63.6c0.3-0.1,0.3,0.1,0.8,1.7c1.7,5.5,3.1,13.3,3.3,18.4l0,1.2l-13.8,0
	c-10.9,0-13.8,0-13.8-0.1c0-0.1-0.1-4,0-8.6l0-8.4l1.4-0.1c6.8-0.5,11.7-1.2,16.9-2.5C111.2,64.5,113.6,63.9,114.5,63.6L114.5,63.6z
	 M61.4,64.6c6.5,2,13.6,3.3,21.5,3.9l0.5,0v7.7v7.6l-12.8,0c-4.3,0-7.7,0-10.1,0c-1.2,0-2.1,0-2.7,0c0,0,0,0-0.1,0
	c0-0.3,0-0.7,0.1-1.1c0.1-1.1,0.2-2.6,0.4-4c0.5-4.2,1.6-9.5,2.8-13.2C61.3,65,61.4,64.8,61.4,64.6L61.4,64.6z M27.6,92.3h10.8h10.9
	c0,0.5,0.1,1.8,0.2,2.9c0.4,6.1,1.6,12.5,3.5,18.6l0.2,0.7c-0.3,0.1-0.6,0.3-1,0.4c-4.3,1.8-10.1,4.9-13.6,7.2
	c-0.2,0.1-0.3,0.2-0.5,0.3c0-0.1-0.1-0.1-0.1-0.1c-0.3-0.5-0.8-1.2-1.3-2c-1-1.6-2.2-3.7-3-5.3c-3.3-6.6-5.7-15.3-6.1-22.2
	L27.6,92.3z M57.8,92.3l12.8,0l12.9,0v7.6v7.7l-0.5,0c-7.8,0.5-13.7,1.6-20.6,3.5l-0.7,0.2c-0.2,0.1-0.4,0.1-0.5,0.1
	c-0.1-0.2-0.1-0.4-0.2-0.7c-0.3-0.9-0.7-2.2-1-3.6c-1.1-4.5-1.9-9.6-2.2-14.3L57.8,92.3z M117.8,92.3l0,0.6
	c-0.3,5.9-1.4,12.1-3.1,17.9c-0.1,0.4-0.2,0.6-0.2,0.8c0,0,0,0-0.1,0c-6.2-2-13.8-3.3-21.6-3.9l-0.6,0V100v-7.6l12.9,0L117.8,92.3z
	 M126.3,92.3h10.9H148c0,0.4-0.1,1.4-0.2,2.3c-1.1,9.9-4.3,18.8-9.7,26.9c-0.2,0.4-0.4,0.7-0.6,0.9c-0.1-0.1-0.2-0.1-0.2-0.2
	c-3.6-2.4-9.5-5.6-13.8-7.4c-0.4-0.1-0.7-0.3-1-0.4l0.2-0.7c1.9-6.2,3.2-13.6,3.6-19.5C126.2,93.5,126.3,92.7,126.3,92.3z
	 M83.6,116.2v15.7v0.8c0,4.2,0,8.2,0,11c0,1.2,0,2.1,0,2.9c0,0,0,0,0,0c-0.9-0.8-1.9-1.8-2.9-2.8c-5.8-5.8-10.5-12.3-14.3-19.8
	c-0.5-1-1.1-2.2-1.6-3.3c-0.2-0.5-0.4-0.8-0.5-1.2c0.1,0,0.2-0.1,0.3-0.1c0.8-0.2,2-0.6,3.7-1c4.7-1.2,10.5-2,14.6-2.2L83.6,116.2z
	 M92,116.2l0.9,0c2.5,0.1,6.1,0.5,9.3,1.1c1.9,0.3,4.5,0.9,6.6,1.5c1,0.3,2,0.5,2.6,0.7c0.1,0,0.1,0,0.1,0c-0.2,0.4-0.5,1.1-0.9,2
	c-4.1,8.9-10.5,17.6-17.6,24.3c-0.3,0.3-0.6,0.5-0.9,0.8c0-0.2,0-0.2,0-0.4c0-2.2,0-6.4,0-14.3L92,116.2z M56.1,122.4
	c0.1,0.2,0.2,0.3,0.4,0.8c3.6,8.2,8.9,16.1,14.8,22.9c-1.1-0.3-2.3-0.7-3.2-1c-7.3-2.5-14.2-6.5-20.1-11.6c-0.5-0.4-1.8-1.7-3-2.9
	c-0.6-0.6-1.1-1.1-1.5-1.6c0.4-0.3,1-0.7,1.7-1.1c1.5-0.9,3.5-2,5.1-2.9c0.9-0.5,2.4-1.2,3.6-1.8C55,122.9,55.7,122.6,56.1,122.4z
	 M119.5,122.4c0.8,0.3,2.2,0.9,3.9,1.8c2,1,4.1,2.1,5.6,3c1.5,0.9,2.5,1.5,3,1.8c-0.3,0.3-0.7,0.7-1.2,1.2c-0.9,0.9-2,2-2.7,2.6
	c-6.6,6-15.1,10.5-23.7,12.9c5.9-6.7,11-14.4,14.6-22.5C119.3,122.8,119.4,122.7,119.5,122.4z"/>
<path id="path5258-9" inkscape:connector-curvature="0" class="st0" d="M5.5,140v31.5c0,11.6,9.4,21,21,21h147c11.6,0,21-9.4,21-21
	V140H5.5z"/>
<text transform="matrix(1 0 0 1 57.424 180)" class="st2 st3 st4">GLOBAL</text>
</svg>
