<?xml version="1.0" encoding="utf-8"?>
<!-- Generator: Adobe Illustrator 22.0.1, SVG Export Plug-In . SVG Version: 6.00 Build 0)  -->
<svg version="1.1"
	 id="svg8" inkscape:version="0.92.1 r15371" sodipodi:docname="progress.svg" xmlns:cc="http://creativecommons.org/ns#" xmlns:dc="http://purl.org/dc/elements/1.1/" xmlns:inkscape="http://www.inkscape.org/namespaces/inkscape" xmlns:rdf="http://www.w3.org/1999/02/22-rdf-syntax-ns#" xmlns:sodipodi="http://sodipodi.sourceforge.net/DTD/sodipodi-0.dtd" xmlns:svg="http://www.w3.org/2000/svg"
	 xmlns="http://www.w3.org/2000/svg" xmlns:xlink="http://www.w3.org/1999/xlink" x="0px" y="0px" viewBox="0 0 200 200"
	 style="enable-background:new 0 0 200 200;" xml:space="preserve">
<style type="text/css">
	.st0{fill:#222222;}
	.st1{fill:#9C27B0;}
	.st2{enable-background:new    ;}
	.st3{fill:#EEEEEE;}
	.st4{fill:#FFFFFF;}
	.st5{font-family:'Quadriga';}
	.st6{font-size:29.2px;}
</style>
<defs>
	
	
		<inkscape:path-effect  bendpath1="m -199.08406,108.42369 h 7.0057" bendpath2="m -192.07836,108.42369 v 6.75242" bendpath3="m -199.08406,115.17611 h 7.0057" bendpath4="m -199.08406,108.42369 v 6.75242" effect="envelope" id="path-effect4658" is_visible="true" xx="true" yy="true">
		</inkscape:path-effect>
	
		<inkscape:path-effect  bendpath="m -192.00142,114.60623 c 2.12577,-0.53066 4.48261,0.85111 7.0057,0" bendpath-nodetypes="cc" effect="bend_path" id="path-effect4656" is_visible="true" prop_scale="1" scale_y_rel="false" vertical="false">
		</inkscape:path-effect>
	<inkscape:path-effect  effect="bounding_box" id="path-effect4654" is_visible="true" linkedpath="" visualbounds="false">
		</inkscape:path-effect>
</defs>
<sodipodi:namedview  bordercolor="#666666" borderopacity="1.0" fit-margin-bottom="0" fit-margin-left="0" fit-margin-right="0" fit-margin-top="0" id="base" inkscape:current-layer="layer1" inkscape:cx="616.35575" inkscape:cy="150.46772" inkscape:document-units="px" inkscape:object-nodes="true" inkscape:pageopacity="0.0" inkscape:pageshadow="2" inkscape:snap-page="true" inkscape:window-height="1016" inkscape:window-maximized="1" inkscape:window-width="1920" inkscape:window-x="0" inkscape:window-y="27" inkscape:zoom="0.5" pagecolor="#ffffff" showgrid="false" showguides="false" units="px">
	</sodipodi:namedview>
<path id="rect5363" class="st0" d="M15,0h170c8.3,0,15,6.7,15,15v170c0,8.3-6.7,15-15,15H15c-8.3,0-15-6.7-15-15V15
	C0,6.7,6.7,0,15,0z"/>
<path id="rect5365" class="st1" d="M20,10h160c5.5,0,10,4.5,10,10v160c0,5.5-4.5,10-10,10H20c-5.5,0-10-4.5-10-10V20
	C10,14.5,14.5,10,20,10z"/>
<path id="text5407" inkscape:connector-curvature="0" class="st0" d="M81.7,26.1c-0.5,0.1-0.9,0.4-1,0.9c0,0,0,0,0,0
	c-4,0.6-7.8,3-11.2,8.5c-3.6,5.9-6.3,14.3-8.4,24.8c-9.8-3.4-18.3-5.3-25.2-5.2c-7.3,0.1-12.3,2-14.6,6c0,0,0,0,0,0
	c-0.8,1.4-1.2,3-1.2,4.8c0,3.2,1.2,6.7,3.4,10.7c3.3,6,9.1,12.5,16.9,19.4c-7.9,7-13.9,13.5-17.1,19.5c0,0,0,0,0,0
	c-2.1,4-3.2,7.5-3.2,10.5c0,1.8,0.4,3.4,1.2,4.8c0,0,0,0,0,0c2.2,3.9,7.1,5.8,14.3,6c0,0,0,0,0,0c6.9,0.2,15.5-1.8,25.5-5.3
	c2.1,10.2,4.7,18.5,8.2,24.5c0,0,0,0,0,0c3.8,6.2,7.9,9.7,12.5,9.7c4.5,0,8.6-3.5,12.4-9.7c0,0,0,0,0,0c3.5-5.9,6.2-14.3,8.2-24.5
	c10.1,3.5,18.7,5.4,25.6,5.2c7.1-0.2,12-2,14.3-5.9v0c0.9-1.4,1.3-3.1,1.3-4.9c0-3.1-1.1-6.5-3.2-10.4c0,0,0,0,0,0
	c-3.3-6-9.3-12.5-17.3-19.5c7.8-6.9,13.8-13.4,17.2-19.5h0c2.2-3.9,3.4-7.4,3.4-10.5c0-1.8-0.4-3.5-1.3-4.9c-2.3-4-7.3-5.8-14.6-5.9
	c-6.9-0.1-15.4,1.8-25.2,5.2c-2.1-10.5-4.8-18.9-8.4-24.7c-3.7-6.1-7.7-9.4-12.2-9.4C81.8,26.1,81.7,26.1,81.7,26.1L81.7,26.1z
	 M81.8,33.1c1.1,0,2.3,0.5,3.7,1.8c1.3,1.2,2.7,3.2,4.1,5.9c2.6,5,4.7,12.4,6.3,21.7c-4.7,1.8-9.4,3.9-14.1,6.2
	c-4.8-2.3-9.6-4.4-14.3-6.2c1.6-9.3,3.7-16.7,6.3-21.7c1.4-2.7,2.8-4.7,4.2-5.9C79.4,33.7,80.6,33.1,81.8,33.1L81.8,33.1z M36,61.5
	c0.7,0,1.4,0,2.2,0c5.6,0.3,13,2.2,21.6,5.3c-0.8,5-1.3,10.2-1.7,15.4c-4.4,3-8.5,6-12.5,9.2c-7.1-5.9-12.4-11.3-15.5-16.1
	c0,0,0,0,0,0c-1.7-2.6-2.7-4.8-3.1-6.6c-0.4-1.8-0.2-3.1,0.4-4.2c0,0,0,0,0,0c0.6-1,1.6-1.8,3.4-2.4C32.2,61.7,33.9,61.5,36,61.5
	L36,61.5z M127.5,61.5c2.1,0,3.8,0.3,5.1,0.7c1.8,0.5,2.8,1.3,3.5,2.4c0.6,1.1,0.8,2.4,0.4,4.2c-0.4,1.8-1.5,4-3.1,6.6c0,0,0,0,0,0
	c-3.1,4.8-8.4,10.3-15.6,16.2c-3.9-3.2-8.1-6.2-12.5-9.2c-0.4-5.3-1-10.4-1.8-15.5c8.6-3.2,16-5,21.8-5.3h0
	C126.1,61.5,126.8,61.4,127.5,61.5L127.5,61.5z M97,69.3c0.3,2.7,0.6,5.4,0.8,8.2c-1.3-0.8-2.7-1.6-4-2.5c0,0,0,0-0.1,0
	c-1.5-0.8-2.9-1.6-4.3-2.3C92,71.5,94.5,70.4,97,69.3L97,69.3z M66.4,69.4c2.5,1,5,2.1,7.5,3.3c-1.4,0.8-2.8,1.5-4.2,2.3
	c0,0,0,0,0,0c-1.4,0.9-2.7,1.7-4.1,2.5C65.8,74.8,66.1,72.1,66.4,69.4L66.4,69.4z M81.6,76.5c2.9,1.5,5.7,3,8.6,4.6
	c2.8,1.6,5.6,3.3,8.3,5c0.2,3.2,0.2,6.5,0.2,9.8c0,3.3-0.1,6.5-0.2,9.7c-2.6,1.7-5.4,3.4-8.3,5c0,0,0,0,0,0
	c-2.8,1.7-5.6,3.2-8.4,4.7c-2.9-1.5-5.7-3.1-8.5-4.7c0,0,0,0-0.1,0c-2.9-1.6-5.7-3.3-8.3-5c-0.1-3.2-0.2-6.5-0.2-9.7
	c0-3.3,0.1-6.6,0.2-9.8c2.7-1.7,5.5-3.4,8.3-5c0,0,0,0,0,0C76,79.5,78.8,78,81.6,76.5L81.6,76.5z M81.8,87.7c-1.4,0-2.8,0.4-4.1,1.1
	c-1.3,0.7-2.3,1.7-3,3c-0.7,1.3-1.1,2.7-1.1,4.2c0,1.4,0.4,2.8,1.1,4.1c0,0,0,0,0,0c0.7,1.2,1.8,2.2,3,2.9c1.3,0.7,2.6,1.1,4.1,1.1
	c1.4,0,2.7-0.4,4-1.1c1.3-0.7,2.3-1.7,3-2.9c0,0,0,0,0,0c0.7-1.3,1.1-2.7,1.1-4.1c0-1.5-0.4-2.9-1.1-4.2c-0.7-1.3-1.8-2.3-3-3
	C84.5,88.1,83.2,87.7,81.8,87.7L81.8,87.7z M57.7,91.1c0,1.6-0.1,3.2-0.1,4.9c0,1.6,0,3.2,0.1,4.8c-2.3-1.6-4.5-3.2-6.7-4.8
	C53.2,94.3,55.4,92.6,57.7,91.1z M105.7,91.1c2.3,1.6,4.6,3.2,6.7,4.9c-2.2,1.6-4.4,3.2-6.7,4.8c0.1-1.6,0.1-3.2,0.1-4.8
	C105.8,94.3,105.8,92.7,105.7,91.1z M45.6,100.4c4,3.2,8.2,6.2,12.5,9.2c0.4,5.2,0.9,10.3,1.7,15.4c-8.8,3.2-16.2,5.1-21.9,5.3
	c-3,0.1-5.4-0.1-7.1-0.7c-1.7-0.5-2.8-1.3-3.4-2.3c-0.6-1-0.8-2.3-0.4-4.1c0.4-1.8,1.4-4,3-6.6c0,0,0,0,0,0
	C33,111.8,38.3,106.4,45.6,100.4L45.6,100.4z M117.8,100.4c7.3,6,12.6,11.5,15.6,16.3c0,0,0,0,0,0c1.6,2.6,2.6,4.8,3,6.5
	c0.4,1.8,0.2,3.1-0.4,4.1c0,0,0,0,0,0c-0.6,1-1.6,1.8-3.4,2.3c-1.7,0.5-4.1,0.8-7.1,0.7c-5.6-0.2-13.1-2.1-21.9-5.3
	c0.8-5,1.3-10.2,1.7-15.4C109.7,106.6,113.8,103.5,117.8,100.4L117.8,100.4z M65.6,114.2c1.4,0.8,2.7,1.7,4.1,2.5
	c1.4,0.8,2.8,1.6,4.2,2.3c-2.5,1.2-5,2.3-7.5,3.3C66.1,119.7,65.8,117,65.6,114.2L65.6,114.2z M97.8,114.3c-0.2,2.8-0.5,5.5-0.8,8.2
	c-2.5-1-5-2.2-7.5-3.3c1.4-0.8,2.8-1.5,4.3-2.3c0,0,0,0,0,0C95.2,115.9,96.5,115.1,97.8,114.3L97.8,114.3z M81.6,123.1
	c4.8,2.3,9.5,4.4,14.3,6.3c-1.6,9.1-3.6,16.4-6.3,21.5c0,0,0,0,0,0c-1.4,2.7-2.8,4.7-4.1,6c-1.3,1.3-2.5,1.8-3.8,1.8
	c-1.2,0-2.5-0.5-3.9-1.8c-1.4-1.3-2.8-3.2-4.2-6c-2.6-5.1-4.7-12.4-6.3-21.5C72.2,127.5,76.9,125.4,81.6,123.1L81.6,123.1z"/>
<path id="path5369" inkscape:connector-curvature="0" class="st0" d="M5.5,140v31.5c0,11.6,9.4,21,21,21h147c11.6,0,21-9.4,21-21
	V140H5.5z"/>
<text transform="matrix(1 0 0 1 -1010.7832 -268.4609)" class="st3" style="font-family:'Montserrat-Regular'; font-size:32px;">ORD</text>
<text transform="matrix(1 0 0 1 26.8511 179)" class="st4 st5 st6">PROGRESSIV</text>
</svg>
