<?xml version="1.0" encoding="utf-8"?>
<!-- Generator: Adobe Illustrator 22.0.1, SVG Export Plug-In . SVG Version: 6.00 Build 0)  -->
<svg version="1.1"
	 id="svg8" inkscape:version="0.92.1 r15371" sodipodi:docname="wealth.svg" xmlns:cc="http://creativecommons.org/ns#" xmlns:dc="http://purl.org/dc/elements/1.1/" xmlns:inkscape="http://www.inkscape.org/namespaces/inkscape" xmlns:rdf="http://www.w3.org/1999/02/22-rdf-syntax-ns#" xmlns:sodipodi="http://sodipodi.sourceforge.net/DTD/sodipodi-0.dtd" xmlns:svg="http://www.w3.org/2000/svg"
	 xmlns="http://www.w3.org/2000/svg" xmlns:xlink="http://www.w3.org/1999/xlink" x="0px" y="0px" viewBox="0 0 200 200"
	 style="enable-background:new 0 0 200 200;" xml:space="preserve">
<style type="text/css">
	.st0{fill:#222222;}
	.st1{fill:#00897B;}
	.st2{fill:#FFFFFF;}
	.st3{font-family:'Quadriga';}
	.st4{font-size:29.1996px;}
</style>
<defs>
	
	
		<inkscape:path-effect  bendpath1="m -199.08406,108.42369 h 7.0057" bendpath2="m -192.07836,108.42369 v 6.75242" bendpath3="m -199.08406,115.17611 h 7.0057" bendpath4="m -199.08406,108.42369 v 6.75242" effect="envelope" id="path-effect4658" is_visible="true" xx="true" yy="true">
		</inkscape:path-effect>
	
		<inkscape:path-effect  bendpath="m -192.00142,114.60623 c 2.12577,-0.53066 4.48261,0.85111 7.0057,0" bendpath-nodetypes="cc" effect="bend_path" id="path-effect4656" is_visible="true" prop_scale="1" scale_y_rel="false" vertical="false">
		</inkscape:path-effect>
	<inkscape:path-effect  effect="bounding_box" id="path-effect4654" is_visible="true" linkedpath="" visualbounds="false">
		</inkscape:path-effect>
</defs>
<sodipodi:namedview  bordercolor="#666666" borderopacity="1.0" fit-margin-bottom="0" fit-margin-left="0" fit-margin-right="0" fit-margin-top="0" id="base" inkscape:current-layer="layer1" inkscape:cx="859.81981" inkscape:cy="-94.531022" inkscape:document-units="mm" inkscape:object-nodes="true" inkscape:pageopacity="0.0" inkscape:pageshadow="2" inkscape:snap-page="true" inkscape:window-height="1016" inkscape:window-maximized="1" inkscape:window-width="1920" inkscape:window-x="0" inkscape:window-y="27" inkscape:zoom="0.70710678" pagecolor="#ffffff" showgrid="false" showguides="false" units="px">
	</sodipodi:namedview>
<path id="rect5322" class="st0" d="M15.2,0h170c8.3,0,15,6.7,15,15v170c0,8.3-6.7,15-15,15h-170c-8.3,0-15-6.7-15-15V15
	C0.2,6.7,6.9,0,15.2,0z"/>
<path id="rect5324" class="st1" d="M20.2,10h160c5.5,0,10,4.5,10,10v160c0,5.5-4.5,10-10,10h-160c-5.5,0-10-4.5-10-10V20
	C10.2,14.5,14.6,10,20.2,10z"/>
<path id="path5326" inkscape:connector-curvature="0" class="st0" d="M5.7,140v31.5c0,11.6,9.4,21,21,21h147c11.6,0,21-9.4,21-21
	V140H5.7z"/>
<path id="path5347" inkscape:connector-curvature="0" class="st0" d="M71.1,140l-0.1-6.1l-4.6-0.8c-5-0.8-11.6-2.7-15.1-4.4
	c-5.9-2.7-11.9-8.3-14-12.9c-1.1-2.4-1.3-3.6-1.3-6.7c0-4.5,1.1-7.1,4.2-9.6c3.2-2.6,6.8-3.8,11.4-3.9c4.5,0,7.3,0.9,10.3,3.3
	c9.7,8,4.4,21.1-8.9,22.4l-3.1,0.3L51,123c2.6,2.5,8.4,4.7,15.7,6.1c5,1,4.5,3.2,4.5-19.3V90l-2.6-1.1c-1.4-0.6-4.5-1.9-6.8-2.8
	c-10.9-4.6-18.6-11.3-21.4-18.8c-2.2-5.9-1.6-15.5,1.5-21.7c4.3-8.6,14.2-15.2,26.5-17.5l2.8-0.5v-5.8v-5.8h2h2v5.6v5.6H80h4.9v-5.6
	v-5.6H87h2.2v5.8c0,3.2,0.2,5.8,0.4,5.8c1.6,0,7.2,1.1,10.2,2c12.5,3.7,19.8,10.3,20.5,18.2c0.3,3.5-0.7,6.2-3.2,8.8
	c-2.9,2.9-5,3.7-10.1,3.7c-4,0-4.6-0.1-7.1-1.4c-3.2-1.7-5.6-4.6-6.4-7.9c-0.5-2.1-0.5-2.7,0.4-5.5c1.1-3.2,2.1-4.4,5.8-6.6
	c1.5-0.9,2.7-1.2,4.8-1.3c1.5,0,2.7-0.2,2.7-0.4c0-1.2-7.8-4.3-12.9-5.2c-1.6-0.3-3.4-0.6-4-0.7l-1.1-0.2l0.1,18.3l0.1,18.3l4.8,1.7
	c10.4,3.7,19.4,8.4,24.2,12.7c6.7,5.9,8.8,9.8,9.2,17.2c0.5,8.1-1.2,14.1-5.6,20.1c-3.9,5.5-9.6,9.1-18.4,11.7
	c-2.9,0.9-7.4,1.8-9.9,2.1l-4.6,0.5v6.1v6.1H87h-2.2v-6v-6H80h-4.9v6v6h-1.9h-1.9L71.1,140z M83,130.1l1.8,0v-17.8V94.5l-4.4-1.6
	c-2.4-0.9-4.6-1.6-4.9-1.6c-0.3,0-0.5,6.8-0.5,19.3V130l2.1,0.2c1.1,0.1,2.5,0.1,3.1,0C80.7,130.1,82,130.1,83,130.1L83,130.1z
	 M94.6,127.5c3.7-1.6,7.9-5.4,9.3-8.3c1.5-3.2,1.5-8.6,0-11.6c-2.1-4.3-5.5-7.1-12.3-10.3l-2.5-1.1v16.5v16.5l1.3-0.3
	C91.3,128.8,93.1,128.1,94.6,127.5L94.6,127.5z M84.8,48.6V30.8l-3.1,0c-1.7,0-3.9,0.1-4.9,0.3l-1.8,0.3l0.1,16l0.1,16l1.2,0.3
	c0.7,0.2,2.8,0.8,4.6,1.5c1.9,0.6,3.5,1.1,3.5,1.2C84.8,66.4,84.8,58.4,84.8,48.6L84.8,48.6z M71.2,47c0-16.5,0.3-15.5-4.2-13.2
	c-3.7,1.9-7.2,5.6-8.2,8.7c-1.8,5.2-0.3,9.9,4.5,14.1c1.8,1.6,6.8,4.8,7.6,4.8C71,61.5,71.2,55,71.2,47z"/>
<text transform="matrix(1 0 0 1 14.0009 178.1719)" class="st2 st3 st4">FREIHEITLICH</text>
</svg>
